<?xml version='1.0' encoding='utf-8'?>
<svg xmlns="http://www.w3.org/2000/svg" xmlns:xlink="http://www.w3.org/1999/xlink" id="chart-43dbfa1f-f6e9-42f4-8908-3c238ba3e039" class="pygal-chart" viewBox="0 0 800 600"><!--Generated with pygal 2.4.0 (lxml) ©Kozea 2012-2016 on 2020-04-01--><!--http://pygal.org--><!--http://github.com/Kozea/pygal--><defs><style type="text/css">#chart-43dbfa1f-f6e9-42f4-8908-3c238ba3e039{-webkit-user-select:none;-webkit-font-smoothing:antialiased;font-family:Consolas,"Liberation Mono",Menlo,Courier,monospace}#chart-43dbfa1f-f6e9-42f4-8908-3c238ba3e039 .title{font-family:Consolas,"Liberation Mono",Menlo,Courier,monospace;font-size:16px}#chart-43dbfa1f-f6e9-42f4-8908-3c238ba3e039 .legends .legend text{font-family:Consolas,"Liberation Mono",Menlo,Courier,monospace;font-size:14px}#chart-43dbfa1f-f6e9-42f4-8908-3c238ba3e039 .axis text{font-family:Consolas,"Liberation Mono",Menlo,Courier,monospace;font-size:10px}#chart-43dbfa1f-f6e9-42f4-8908-3c238ba3e039 .axis text.major{font-family:Consolas,"Liberation Mono",Menlo,Courier,monospace;font-size:10px}#chart-43dbfa1f-f6e9-42f4-8908-3c238ba3e039 .text-overlay text.value{font-family:Consolas,"Liberation Mono",Menlo,Courier,monospace;font-size:16px}#chart-43dbfa1f-f6e9-42f4-8908-3c238ba3e039 .text-overlay text.label{font-family:Consolas,"Liberation Mono",Menlo,Courier,monospace;font-size:10px}#chart-43dbfa1f-f6e9-42f4-8908-3c238ba3e039 .tooltip{font-family:Consolas,"Liberation Mono",Menlo,Courier,monospace;font-size:14px}#chart-43dbfa1f-f6e9-42f4-8908-3c238ba3e039 text.no_data{font-family:Consolas,"Liberation Mono",Menlo,Courier,monospace;font-size:64px}
#chart-43dbfa1f-f6e9-42f4-8908-3c238ba3e039{background-color:rgba(249,249,249,1)}#chart-43dbfa1f-f6e9-42f4-8908-3c238ba3e039 path,#chart-43dbfa1f-f6e9-42f4-8908-3c238ba3e039 line,#chart-43dbfa1f-f6e9-42f4-8908-3c238ba3e039 rect,#chart-43dbfa1f-f6e9-42f4-8908-3c238ba3e039 circle{-webkit-transition:150ms;-moz-transition:150ms;transition:150ms}#chart-43dbfa1f-f6e9-42f4-8908-3c238ba3e039 .graph &gt; .background{fill:rgba(249,249,249,1)}#chart-43dbfa1f-f6e9-42f4-8908-3c238ba3e039 .plot &gt; .background{fill:rgba(255,255,255,1)}#chart-43dbfa1f-f6e9-42f4-8908-3c238ba3e039 .graph{fill:rgba(0,0,0,.87)}#chart-43dbfa1f-f6e9-42f4-8908-3c238ba3e039 text.no_data{fill:rgba(0,0,0,1)}#chart-43dbfa1f-f6e9-42f4-8908-3c238ba3e039 .title{fill:rgba(0,0,0,1)}#chart-43dbfa1f-f6e9-42f4-8908-3c238ba3e039 .legends .legend text{fill:rgba(0,0,0,.87)}#chart-43dbfa1f-f6e9-42f4-8908-3c238ba3e039 .legends .legend:hover text{fill:rgba(0,0,0,1)}#chart-43dbfa1f-f6e9-42f4-8908-3c238ba3e039 .axis .line{stroke:rgba(0,0,0,1)}#chart-43dbfa1f-f6e9-42f4-8908-3c238ba3e039 .axis .guide.line{stroke:rgba(0,0,0,.54)}#chart-43dbfa1f-f6e9-42f4-8908-3c238ba3e039 .axis .major.line{stroke:rgba(0,0,0,.87)}#chart-43dbfa1f-f6e9-42f4-8908-3c238ba3e039 .axis text.major{fill:rgba(0,0,0,1)}#chart-43dbfa1f-f6e9-42f4-8908-3c238ba3e039 .axis.y .guides:hover .guide.line,#chart-43dbfa1f-f6e9-42f4-8908-3c238ba3e039 .line-graph .axis.x .guides:hover .guide.line,#chart-43dbfa1f-f6e9-42f4-8908-3c238ba3e039 .stackedline-graph .axis.x .guides:hover .guide.line,#chart-43dbfa1f-f6e9-42f4-8908-3c238ba3e039 .xy-graph .axis.x .guides:hover .guide.line{stroke:rgba(0,0,0,1)}#chart-43dbfa1f-f6e9-42f4-8908-3c238ba3e039 .axis .guides:hover text{fill:rgba(0,0,0,1)}#chart-43dbfa1f-f6e9-42f4-8908-3c238ba3e039 .reactive{fill-opacity:.7;stroke-opacity:.8}#chart-43dbfa1f-f6e9-42f4-8908-3c238ba3e039 .ci{stroke:rgba(0,0,0,.87)}#chart-43dbfa1f-f6e9-42f4-8908-3c238ba3e039 .reactive.active,#chart-43dbfa1f-f6e9-42f4-8908-3c238ba3e039 .active .reactive{fill-opacity:.8;stroke-opacity:.9;stroke-width:4}#chart-43dbfa1f-f6e9-42f4-8908-3c238ba3e039 .ci .reactive.active{stroke-width:1.5}#chart-43dbfa1f-f6e9-42f4-8908-3c238ba3e039 .series text{fill:rgba(0,0,0,1)}#chart-43dbfa1f-f6e9-42f4-8908-3c238ba3e039 .tooltip rect{fill:rgba(255,255,255,1);stroke:rgba(0,0,0,1);-webkit-transition:opacity 150ms;-moz-transition:opacity 150ms;transition:opacity 150ms}#chart-43dbfa1f-f6e9-42f4-8908-3c238ba3e039 .tooltip .label{fill:rgba(0,0,0,.87)}#chart-43dbfa1f-f6e9-42f4-8908-3c238ba3e039 .tooltip .label{fill:rgba(0,0,0,.87)}#chart-43dbfa1f-f6e9-42f4-8908-3c238ba3e039 .tooltip .legend{font-size:.8em;fill:rgba(0,0,0,.54)}#chart-43dbfa1f-f6e9-42f4-8908-3c238ba3e039 .tooltip .x_label{font-size:.6em;fill:rgba(0,0,0,1)}#chart-43dbfa1f-f6e9-42f4-8908-3c238ba3e039 .tooltip .xlink{font-size:.5em;text-decoration:underline}#chart-43dbfa1f-f6e9-42f4-8908-3c238ba3e039 .tooltip .value{font-size:1.5em}#chart-43dbfa1f-f6e9-42f4-8908-3c238ba3e039 .bound{font-size:.5em}#chart-43dbfa1f-f6e9-42f4-8908-3c238ba3e039 .max-value{font-size:.75em;fill:rgba(0,0,0,.54)}#chart-43dbfa1f-f6e9-42f4-8908-3c238ba3e039 .map-element{fill:rgba(255,255,255,1);stroke:rgba(0,0,0,.54) !important}#chart-43dbfa1f-f6e9-42f4-8908-3c238ba3e039 .map-element .reactive{fill-opacity:inherit;stroke-opacity:inherit}#chart-43dbfa1f-f6e9-42f4-8908-3c238ba3e039 .color-0,#chart-43dbfa1f-f6e9-42f4-8908-3c238ba3e039 .color-0 a:visited{stroke:#F44336;fill:#F44336}#chart-43dbfa1f-f6e9-42f4-8908-3c238ba3e039 .text-overlay .color-0 text{fill:black}
#chart-43dbfa1f-f6e9-42f4-8908-3c238ba3e039 text.no_data{text-anchor:middle}#chart-43dbfa1f-f6e9-42f4-8908-3c238ba3e039 .guide.line{fill:none}#chart-43dbfa1f-f6e9-42f4-8908-3c238ba3e039 .centered{text-anchor:middle}#chart-43dbfa1f-f6e9-42f4-8908-3c238ba3e039 .title{text-anchor:middle}#chart-43dbfa1f-f6e9-42f4-8908-3c238ba3e039 .legends .legend text{fill-opacity:1}#chart-43dbfa1f-f6e9-42f4-8908-3c238ba3e039 .axis.x text{text-anchor:middle}#chart-43dbfa1f-f6e9-42f4-8908-3c238ba3e039 .axis.x:not(.web) text[transform]{text-anchor:start}#chart-43dbfa1f-f6e9-42f4-8908-3c238ba3e039 .axis.x:not(.web) text[transform].backwards{text-anchor:end}#chart-43dbfa1f-f6e9-42f4-8908-3c238ba3e039 .axis.y text{text-anchor:end}#chart-43dbfa1f-f6e9-42f4-8908-3c238ba3e039 .axis.y text[transform].backwards{text-anchor:start}#chart-43dbfa1f-f6e9-42f4-8908-3c238ba3e039 .axis.y2 text{text-anchor:start}#chart-43dbfa1f-f6e9-42f4-8908-3c238ba3e039 .axis.y2 text[transform].backwards{text-anchor:end}#chart-43dbfa1f-f6e9-42f4-8908-3c238ba3e039 .axis .guide.line{stroke-dasharray:4,4}#chart-43dbfa1f-f6e9-42f4-8908-3c238ba3e039 .axis .major.guide.line{stroke-dasharray:6,6}#chart-43dbfa1f-f6e9-42f4-8908-3c238ba3e039 .horizontal .axis.y .guide.line,#chart-43dbfa1f-f6e9-42f4-8908-3c238ba3e039 .horizontal .axis.y2 .guide.line,#chart-43dbfa1f-f6e9-42f4-8908-3c238ba3e039 .vertical .axis.x .guide.line{opacity:0}#chart-43dbfa1f-f6e9-42f4-8908-3c238ba3e039 .horizontal .axis.always_show .guide.line,#chart-43dbfa1f-f6e9-42f4-8908-3c238ba3e039 .vertical .axis.always_show .guide.line{opacity:1 !important}#chart-43dbfa1f-f6e9-42f4-8908-3c238ba3e039 .axis.y .guides:hover .guide.line,#chart-43dbfa1f-f6e9-42f4-8908-3c238ba3e039 .axis.y2 .guides:hover .guide.line,#chart-43dbfa1f-f6e9-42f4-8908-3c238ba3e039 .axis.x .guides:hover .guide.line{opacity:1}#chart-43dbfa1f-f6e9-42f4-8908-3c238ba3e039 .axis .guides:hover text{opacity:1}#chart-43dbfa1f-f6e9-42f4-8908-3c238ba3e039 .nofill{fill:none}#chart-43dbfa1f-f6e9-42f4-8908-3c238ba3e039 .subtle-fill{fill-opacity:.2}#chart-43dbfa1f-f6e9-42f4-8908-3c238ba3e039 .dot{stroke-width:1px;fill-opacity:1}#chart-43dbfa1f-f6e9-42f4-8908-3c238ba3e039 .dot.active{stroke-width:5px}#chart-43dbfa1f-f6e9-42f4-8908-3c238ba3e039 .dot.negative{fill:transparent}#chart-43dbfa1f-f6e9-42f4-8908-3c238ba3e039 text,#chart-43dbfa1f-f6e9-42f4-8908-3c238ba3e039 tspan{stroke:none !important}#chart-43dbfa1f-f6e9-42f4-8908-3c238ba3e039 .series text.active{opacity:1}#chart-43dbfa1f-f6e9-42f4-8908-3c238ba3e039 .tooltip rect{fill-opacity:.95;stroke-width:.5}#chart-43dbfa1f-f6e9-42f4-8908-3c238ba3e039 .tooltip text{fill-opacity:1}#chart-43dbfa1f-f6e9-42f4-8908-3c238ba3e039 .showable{visibility:hidden}#chart-43dbfa1f-f6e9-42f4-8908-3c238ba3e039 .showable.shown{visibility:visible}#chart-43dbfa1f-f6e9-42f4-8908-3c238ba3e039 .gauge-background{fill:rgba(229,229,229,1);stroke:none}#chart-43dbfa1f-f6e9-42f4-8908-3c238ba3e039 .bg-lines{stroke:rgba(249,249,249,1);stroke-width:2px}</style><script type="text/javascript">window.pygal = window.pygal || {};window.pygal.config = window.pygal.config || {};window.pygal.config['43dbfa1f-f6e9-42f4-8908-3c238ba3e039'] = {"allow_interruptions": false, "box_mode": "extremes", "classes": ["pygal-chart"], "css": ["file://style.css", "file://graph.css"], "defs": [], "disable_xml_declaration": false, "dots_size": 2.5, "dynamic_print_values": false, "explicit_size": false, "fill": false, "force_uri_protocol": "https", "formatter": null, "half_pie": false, "height": 600, "include_x_axis": false, "inner_radius": 0, "interpolate": "cubic", "interpolation_parameters": {}, "interpolation_precision": 250, "inverse_y_axis": false, "js": ["//kozea.github.io/pygal.js/2.0.x/pygal-tooltips.min.js"], "legend_at_bottom": false, "legend_at_bottom_columns": null, "legend_box_size": 12, "logarithmic": false, "margin": 20, "margin_bottom": null, "margin_left": null, "margin_right": null, "margin_top": null, "max_scale": 16, "min_scale": 4, "missing_value_fill_truncation": "x", "no_data_text": "No data", "no_prefix": false, "order_min": null, "pretty_print": false, "print_labels": false, "print_values": true, "print_values_position": "center", "print_zeroes": true, "range": null, "rounded_bars": null, "secondary_range": null, "show_dots": true, "show_legend": true, "show_minor_x_labels": true, "show_minor_y_labels": true, "show_only_major_dots": false, "show_x_guides": false, "show_x_labels": true, "show_y_guides": true, "show_y_labels": true, "spacing": 10, "stack_from_top": false, "strict": false, "stroke": true, "stroke_style": null, "style": {"background": "rgba(249, 249, 249, 1)", "ci_colors": [], "colors": ["#F44336", "#3F51B5", "#009688", "#FFC107", "#FF5722", "#9C27B0", "#03A9F4", "#8BC34A", "#FF9800", "#E91E63", "#2196F3", "#4CAF50", "#FFEB3B", "#673AB7", "#00BCD4", "#CDDC39", "#9E9E9E", "#607D8B"], "font_family": "Consolas, \"Liberation Mono\", Menlo, Courier, monospace", "foreground": "rgba(0, 0, 0, .87)", "foreground_strong": "rgba(0, 0, 0, 1)", "foreground_subtle": "rgba(0, 0, 0, .54)", "guide_stroke_dasharray": "4,4", "label_font_family": "Consolas, \"Liberation Mono\", Menlo, Courier, monospace", "label_font_size": 10, "legend_font_family": "Consolas, \"Liberation Mono\", Menlo, Courier, monospace", "legend_font_size": 14, "major_guide_stroke_dasharray": "6,6", "major_label_font_family": "Consolas, \"Liberation Mono\", Menlo, Courier, monospace", "major_label_font_size": 10, "no_data_font_family": "Consolas, \"Liberation Mono\", Menlo, Courier, monospace", "no_data_font_size": 64, "opacity": ".7", "opacity_hover": ".8", "plot_background": "rgba(255, 255, 255, 1)", "stroke_opacity": ".8", "stroke_opacity_hover": ".9", "title_font_family": "Consolas, \"Liberation Mono\", Menlo, Courier, monospace", "title_font_size": 16, "tooltip_font_family": "Consolas, \"Liberation Mono\", Menlo, Courier, monospace", "tooltip_font_size": 14, "transition": "150ms", "value_background": "rgba(229, 229, 229, 1)", "value_colors": [], "value_font_family": "Consolas, \"Liberation Mono\", Menlo, Courier, monospace", "value_font_size": 16, "value_label_font_family": "Consolas, \"Liberation Mono\", Menlo, Courier, monospace", "value_label_font_size": 10}, "title": "COVID-19 | Mato Grosso do Sul\n Fonte: jhoonb.github.io/corona", "tooltip_border_radius": 0, "tooltip_fancy_mode": true, "truncate_label": null, "truncate_legend": null, "width": 800, "x_label_rotation": 90, "x_labels": ["28-02-2020", "04-03-2020", "09-03-2020", "12-03-2020", "15-03-2020", "18-03-2020", "21-03-2020", "24-03-2020", "27-03-2020", "30-03-2020"], "x_labels_major": null, "x_labels_major_count": null, "x_labels_major_every": null, "x_title": null, "xrange": null, "y_label_rotation": 0, "y_labels": null, "y_labels_major": null, "y_labels_major_count": null, "y_labels_major_every": null, "y_title": null, "zero": 0, "legends": ["Confirmados"]}</script><script type="text/javascript" xlink:href="https://kozea.github.io/pygal.js/2.0.x/pygal-tooltips.min.js"/></defs><title>COVID-19 | Mato Grosso do Sul
 Fonte: jhoonb.github.io/corona</title><g class="graph line-graph vertical"><rect x="0" y="0" width="800" height="600" class="background"/><g transform="translate(156, 72)" class="plot"><rect x="0" y="0" width="623.6" height="438.0" class="background"/><g class="axis y always_show"><g class="guides"><path d="M0.000000 428.385360 h623.600000" class="axis major line"/><text x="-5" y="431.8853595401433" class="major">0</text><title>0</title></g><g class="guides"><path d="M0.000000 332.939386 h623.600000" class="guide line"/><text x="-5" y="336.43938621808275" class="">10</text><title>10</title></g><g class="guides"><path d="M0.000000 237.493413 h623.600000" class="guide line"/><text x="-5" y="240.99341289602222" class="">20</text><title>20</title></g><g class="guides"><path d="M0.000000 142.047440 h623.600000" class="guide line"/><text x="-5" y="145.5474395739617" class="">30</text><title>30</title></g><g class="guides"><path d="M0.000000 46.601466 h623.600000" class="guide line"/><text x="-5" y="50.10146625190106" class="">40</text><title>40</title></g></g><g class="axis x"><g class="guides"><path d="M11.992308 0.000000 v438.000000" class="line"/><text x="11.992307692307692" y="453.0" class="" transform="rotate(90 11.992308 453.000000)">28-02-2020</text></g><g class="guides"><path d="M78.616239 0.000000 v438.000000" class="guide line"/><text x="78.61623931623932" y="453.0" class="" transform="rotate(90 78.616239 453.000000)">04-03-2020</text></g><g class="guides"><path d="M145.240171 0.000000 v438.000000" class="guide line"/><text x="145.2401709401709" y="453.0" class="" transform="rotate(90 145.240171 453.000000)">09-03-2020</text></g><g class="guides"><path d="M211.864103 0.000000 v438.000000" class="guide line"/><text x="211.86410256410258" y="453.0" class="" transform="rotate(90 211.864103 453.000000)">12-03-2020</text></g><g class="guides"><path d="M278.488034 0.000000 v438.000000" class="guide line"/><text x="278.4880341880342" y="453.0" class="" transform="rotate(90 278.488034 453.000000)">15-03-2020</text></g><g class="guides"><path d="M345.111966 0.000000 v438.000000" class="guide line"/><text x="345.11196581196583" y="453.0" class="" transform="rotate(90 345.111966 453.000000)">18-03-2020</text></g><g class="guides"><path d="M411.735897 0.000000 v438.000000" class="guide line"/><text x="411.7358974358974" y="453.0" class="" transform="rotate(90 411.735897 453.000000)">21-03-2020</text></g><g class="guides"><path d="M478.359829 0.000000 v438.000000" class="guide line"/><text x="478.3598290598291" y="453.0" class="" transform="rotate(90 478.359829 453.000000)">24-03-2020</text></g><g class="guides"><path d="M544.983761 0.000000 v438.000000" class="guide line"/><text x="544.9837606837607" y="453.0" class="" transform="rotate(90 544.983761 453.000000)">27-03-2020</text></g><g class="guides"><path d="M611.607692 0.000000 v438.000000" class="guide line"/><text x="611.6076923076923" y="453.0" class="" transform="rotate(90 611.607692 453.000000)">30-03-2020</text></g></g><g class="series serie-0 color-0"><path d="M11.992308 428.385360 L12.258803 428.386437 12.525299 428.387514 12.791795 428.388591 13.058291 428.389667 13.324786 428.390744 13.591282 428.391819 13.857778 428.392894 14.124274 428.393969 14.390769 428.395042 14.657265 428.396115 14.923761 428.397186 15.190256 428.398256 15.456752 428.399326 15.723248 428.400393 15.989744 428.401460 16.256239 428.402525 16.522735 428.403588 16.789231 428.404649 17.055726 428.405709 17.322222 428.406766 17.588718 428.407822 17.855214 428.408875 18.121709 428.409926 18.388205 428.410975 18.654701 428.412021 18.921197 428.413064 19.187692 428.414105 19.454188 428.415143 19.720684 428.416179 19.987179 428.417211 20.253675 428.418240 20.520171 428.419266 20.786667 428.420289 21.053162 428.421308 21.319658 428.422323 21.586154 428.423335 21.852650 428.424344 22.119145 428.425348 22.385641 428.426349 22.652137 428.427345 22.918632 428.428338 23.185128 428.429326 23.451624 428.430310 23.718120 428.431289 23.984615 428.432264 24.251111 428.433234 24.517607 428.434200 24.784103 428.435160 25.050598 428.436116 25.317094 428.437066 25.583590 428.438012 25.850085 428.438952 26.116581 428.439886 26.383077 428.440816 26.649573 428.441739 26.916068 428.442657 27.182564 428.443569 27.449060 428.444476 27.715556 428.445376 27.982051 428.446270 28.248547 428.447158 28.515043 428.448040 28.781538 428.448915 29.048034 428.449784 29.314530 428.450646 29.581026 428.451501 29.847521 428.452350 30.114017 428.453191 30.380513 428.454026 30.647009 428.454853 30.913504 428.455674 31.180000 428.456487 31.446496 428.457292 31.712991 428.458090 31.979487 428.458880 32.245983 428.459663 32.512479 428.460437 32.778974 428.461204 33.045470 428.461962 33.311966 428.462713 33.578462 428.463455 33.844957 428.464189 34.111453 428.464914 34.377949 428.465631 34.644444 428.466339 34.910940 428.467038 35.177436 428.467728 35.443932 428.468410 35.710427 428.469082 35.976923 428.469745 36.243419 428.470399 36.509915 428.471043 36.776410 428.471678 37.042906 428.472303 37.309402 428.472919 37.575897 428.473524 37.842393 428.474120 38.108889 428.474706 38.375385 428.475281 38.641880 428.475846 38.908376 428.476401 39.174872 428.476946 39.441368 428.477480 39.707863 428.478003 39.974359 428.478516 40.240855 428.479017 40.507350 428.479508 40.773846 428.479988 41.040342 428.480456 41.306838 428.480914 41.573333 428.481360 41.839829 428.481794 42.106325 428.482217 42.372821 428.482628 42.639316 428.483027 42.905812 428.483415 43.172308 428.483790 43.438803 428.484153 43.705299 428.484505 43.971795 428.484843 44.238291 428.485170 44.504786 428.485484 44.771282 428.485785 45.037778 428.486074 45.304274 428.486349 45.570769 428.486612 45.837265 428.486862 46.103761 428.487099 46.370256 428.487322 46.636752 428.487532 46.903248 428.487729 47.169744 428.487912 47.436239 428.488081 47.702735 428.488237 47.969231 428.488379 48.235726 428.488507 48.502222 428.488621 48.768718 428.488720 49.035214 428.488806 49.301709 428.488877 49.568205 428.488933 49.834701 428.488975 50.101197 428.489002 50.367692 428.489015 50.634188 428.489012 50.900684 428.488995 51.167179 428.488962 51.433675 428.488915 51.700171 428.488852 51.966667 428.488773 52.233162 428.488679 52.499658 428.488570 52.766154 428.488444 53.032650 428.488303 53.299145 428.488146 53.565641 428.487973 53.832137 428.487784 54.098632 428.487578 54.365128 428.487357 54.631624 428.487118 54.898120 428.486864 55.164615 428.486592 55.431111 428.486304 55.697607 428.485999 55.964103 428.485677 56.230598 428.485338 56.497094 428.484982 56.763590 428.484608 57.030085 428.484218 57.296581 428.483809 57.563077 428.483383 57.829573 428.482940 58.096068 428.482478 58.362564 428.481999 58.629060 428.481502 58.895556 428.480986 59.162051 428.480453 59.428547 428.479901 59.695043 428.479331 59.961538 428.478742 60.228034 428.478135 60.494530 428.477508 60.761026 428.476864 61.027521 428.476200 61.294017 428.475517 61.560513 428.474815 61.827009 428.474094 62.093504 428.473353 62.360000 428.472593 62.626496 428.471813 62.892991 428.471014 63.159487 428.470195 63.425983 428.469356 63.692479 428.468497 63.958974 428.467619 64.225470 428.466720 64.491966 428.465800 64.758462 428.464861 65.024957 428.463900 65.291453 428.462920 65.557949 428.461918 65.824444 428.460896 66.090940 428.459853 66.357436 428.458789 66.623932 428.457704 66.890427 428.456597 67.156923 428.455470 67.423419 428.454321 67.689915 428.453150 67.956410 428.451958 68.222906 428.450744 68.489402 428.449508 68.755897 428.448251 69.022393 428.446971 69.288889 428.445669 69.555385 428.444345 69.821880 428.442999 70.088376 428.441630 70.354872 428.440238 70.621368 428.438824 70.887863 428.437388 71.154359 428.435928 71.420855 428.434445 71.687350 428.432940 71.953846 428.431411 72.220342 428.429859 72.486838 428.428283 72.753333 428.426684 73.019829 428.425062 73.286325 428.423416 73.552821 428.421746 73.819316 428.420052 74.085812 428.418334 74.352308 428.416592 74.618803 428.414826 74.885299 428.413035 75.151795 428.411221 75.418291 428.409381 75.684786 428.407517 75.951282 428.405629 76.217778 428.403715 76.484274 428.401777 76.750769 428.399813 77.017265 428.397825 77.283761 428.395811 77.550256 428.393772 77.816752 428.391707 78.083248 428.389617 78.349744 428.387501 78.616239 428.385360 78.882735 428.383192 79.149231 428.381000 79.415726 428.378782 79.682222 428.376540 79.948718 428.374275 80.215214 428.371986 80.481709 428.369675 80.748205 428.367341 81.014701 428.364985 81.281197 428.362609 81.547692 428.360211 81.814188 428.357794 82.080684 428.355356 82.347179 428.352900 82.613675 428.350425 82.880171 428.347932 83.146667 428.345421 83.413162 428.342894 83.679658 428.340350 83.946154 428.337789 84.212650 428.335214 84.479145 428.332623 84.745641 428.330018 85.012137 428.327398 85.278632 428.324766 85.545128 428.322120 85.811624 428.319462 86.078120 428.316792 86.344615 428.314111 86.611111 428.311419 86.877607 428.308716 87.144103 428.306004 87.410598 428.303283 87.677094 428.300552 87.943590 428.297813 88.210085 428.295067 88.476581 428.292313 88.743077 428.289553 89.009573 428.286786 89.276068 428.284014 89.542564 428.281237 89.809060 428.278455 90.075556 428.275669 90.342051 428.272879 90.608547 428.270086 90.875043 428.267290 91.141538 428.264493 91.408034 428.261693 91.674530 428.258893 91.941026 428.256093 92.207521 428.253292 92.474017 428.250492 92.740513 428.247693 93.007009 428.244895 93.273504 428.242099 93.540000 428.239306 93.806496 428.236517 94.072991 428.233730 94.339487 428.230948 94.605983 428.228171 94.872479 428.225399 95.138974 428.222632 95.405470 428.219872 95.671966 428.217118 95.938462 428.214372 96.204957 428.211633 96.471453 428.208903 96.737949 428.206181 97.004444 428.203469 97.270940 428.200766 97.537436 428.198074 97.803932 428.195393 98.070427 428.192723 98.336923 428.190065 98.603419 428.187419 98.869915 428.184787 99.136410 428.182168 99.402906 428.179562 99.669402 428.176972 99.935897 428.174396 100.202393 428.171836 100.468889 428.169291 100.735385 428.166764 101.001880 428.164253 101.268376 428.161760 101.534872 428.159285 101.801368 428.156829 102.067863 428.154392 102.334359 428.151974 102.600855 428.149577 102.867350 428.147200 103.133846 428.144844 103.400342 428.142511 103.666838 428.140199 103.933333 428.137910 104.199829 428.135645 104.466325 428.133403 104.732821 428.131186 104.999316 428.128993 105.265812 428.126826 105.532308 428.124684 105.798803 428.122569 106.065299 428.120481 106.331795 428.118420 106.598291 428.116387 106.864786 428.114383 107.131282 428.112407 107.397778 428.110461 107.664274 428.108545 107.930769 428.106660 108.197265 428.104805 108.463761 428.102983 108.730256 428.101192 108.996752 428.099433 109.263248 428.097708 109.529744 428.096017 109.796239 428.094359 110.062735 428.092736 110.329231 428.091149 110.595726 428.089597 110.862222 428.088081 111.128718 428.086602 111.395214 428.085160 111.661709 428.083756 111.928205 428.082390 112.194701 428.081063 112.461197 428.079775 112.727692 428.078527 112.994188 428.077320 113.260684 428.076153 113.527179 428.075028 113.793675 428.073944 114.060171 428.072903 114.326667 428.071905 114.593162 428.070950 114.859658 428.070039 115.126154 428.069173 115.392650 428.068351 115.659145 428.067576 115.925641 428.066846 116.192137 428.066162 116.458632 428.065526 116.725128 428.064937 116.991624 428.064397 117.258120 428.063905 117.524615 428.063462 117.791111 428.063069 118.057607 428.062726 118.324103 428.062433 118.590598 428.062192 118.857094 428.062003 119.123590 428.061865 119.390085 428.061781 119.656581 428.061750 119.923077 428.061772 120.189573 428.061849 120.456068 428.061980 120.722564 428.062167 120.989060 428.062410 121.255556 428.062709 121.522051 428.063065 121.788547 428.063479 122.055043 428.063950 122.321538 428.064480 122.588034 428.065068 122.854530 428.065716 123.121026 428.066425 123.387521 428.067193 123.654017 428.068023 123.920513 428.068914 124.187009 428.069867 124.453504 428.070883 124.720000 428.071962 124.986496 428.073104 125.252991 428.074311 125.519487 428.075582 125.785983 428.076918 126.052479 428.078320 126.318974 428.079789 126.585470 428.081324 126.851966 428.082926 127.118462 428.084596 127.384957 428.086334 127.651453 428.088141 127.917949 428.090017 128.184444 428.091963 128.450940 428.093979 128.717436 428.096066 128.983932 428.098225 129.250427 428.100455 129.516923 428.102758 129.783419 428.105134 130.049915 428.107583 130.316410 428.110106 130.582906 428.112703 130.849402 428.115376 131.115897 428.118124 131.382393 428.120948 131.648889 428.123848 131.915385 428.126826 132.181880 428.129881 132.448376 428.133014 132.714872 428.136226 132.981368 428.139517 133.247863 428.142887 133.514359 428.146338 133.780855 428.149869 134.047350 428.153481 134.313846 428.157176 134.580342 428.160952 134.846838 428.164811 135.113333 428.168754 135.379829 428.172780 135.646325 428.176890 135.912821 428.181085 136.179316 428.185366 136.445812 428.189732 136.712308 428.194185 136.978803 428.198725 137.245299 428.203352 137.511795 428.208067 137.778291 428.212870 138.044786 428.217762 138.311282 428.222744 138.577778 428.227815 138.844274 428.232978 139.110769 428.238231 139.377265 428.243575 139.643761 428.249012 139.910256 428.254541 140.176752 428.260164 140.443248 428.265880 140.709744 428.271690 140.976239 428.277594 141.242735 428.283594 141.509231 428.289690 141.775726 428.295881 142.042222 428.302170 142.308718 428.308555 142.575214 428.315038 142.841709 428.321620 143.108205 428.328300 143.374701 428.335080 143.641197 428.341959 143.907692 428.348939 144.174188 428.356019 144.440684 428.363201 144.707179 428.370485 144.973675 428.377871 145.240171 428.385360 145.506667 428.392951 145.773162 428.400645 146.039658 428.408438 146.306154 428.416328 146.572650 428.424314 146.839145 428.432394 147.105641 428.440565 147.372137 428.448826 147.638632 428.457174 147.905128 428.465608 148.171624 428.474126 148.438120 428.482726 148.704615 428.491406 148.971111 428.500164 149.237607 428.508997 149.504103 428.517904 149.770598 428.526884 150.037094 428.535933 150.303590 428.545050 150.570085 428.554234 150.836581 428.563482 151.103077 428.572791 151.369573 428.582161 151.636068 428.591589 151.902564 428.601074 152.169060 428.610613 152.435556 428.620204 152.702051 428.629845 152.968547 428.639535 153.235043 428.649271 153.501538 428.659052 153.768034 428.668875 154.034530 428.678739 154.301026 428.688641 154.567521 428.698580 154.834017 428.708553 155.100513 428.718560 155.367009 428.728597 155.633504 428.738662 155.900000 428.748755 156.166496 428.758872 156.432991 428.769012 156.699487 428.779173 156.965983 428.789353 157.232479 428.799550 157.498974 428.809762 157.765470 428.819987 158.031966 428.830223 158.298462 428.840468 158.564957 428.850721 158.831453 428.860978 159.097949 428.871239 159.364444 428.881501 159.630940 428.891762 159.897436 428.902020 160.163932 428.912274 160.430427 428.922521 160.696923 428.932760 160.963419 428.942988 161.229915 428.953203 161.496410 428.963405 161.762906 428.973589 162.029402 428.983755 162.295897 428.993901 162.562393 429.004025 162.828889 429.014124 163.095385 429.024197 163.361880 429.034242 163.628376 429.044256 163.894872 429.054239 164.161368 429.064187 164.427863 429.074099 164.694359 429.083973 164.960855 429.093807 165.227350 429.103599 165.493846 429.113347 165.760342 429.123049 166.026838 429.132704 166.293333 429.142308 166.559829 429.151861 166.826325 429.161360 167.092821 429.170803 167.359316 429.180188 167.625812 429.189514 167.892308 429.198778 168.158803 429.207979 168.425299 429.217114 168.691795 429.226181 168.958291 429.235179 169.224786 429.244106 169.491282 429.252959 169.757778 429.261737 170.024274 429.270437 170.290769 429.279058 170.557265 429.287598 170.823761 429.296054 171.090256 429.304426 171.356752 429.312710 171.623248 429.320905 171.889744 429.329008 172.156239 429.337019 172.422735 429.344935 172.689231 429.352754 172.955726 429.360473 173.222222 429.368092 173.488718 429.375608 173.755214 429.383019 174.021709 429.390324 174.288205 429.397519 174.554701 429.404604 174.821197 429.411576 175.087692 429.418433 175.354188 429.425174 175.620684 429.431796 175.887179 429.438297 176.153675 429.444676 176.420171 429.450930 176.686667 429.457058 176.953162 429.463058 177.219658 429.468927 177.486154 429.474664 177.752650 429.480266 178.019145 429.485732 178.285641 429.491060 178.552137 429.496248 178.818632 429.501293 179.085128 429.506194 179.351624 429.510949 179.618120 429.515556 179.884615 429.520013 180.151111 429.524318 180.417607 429.528469 180.684103 429.532464 180.950598 429.536301 181.217094 429.539979 181.483590 429.543494 181.750085 429.546846 182.016581 429.550031 182.283077 429.553049 182.549573 429.555898 182.816068 429.558575 183.082564 429.561078 183.349060 429.563405 183.615556 429.565555 183.882051 429.567525 184.148547 429.569314 184.415043 429.570920 184.681538 429.572340 184.948034 429.573572 185.214530 429.574616 185.481026 429.575468 185.747521 429.576126 186.014017 429.576590 186.280513 429.576856 186.547009 429.576923 186.813504 429.576789 187.080000 429.576452 187.346496 429.575910 187.612991 429.575160 187.879487 429.574202 188.145983 429.573033 188.412479 429.571651 188.678974 429.570054 188.945470 429.568240 189.211966 429.566207 189.478462 429.563953 189.744957 429.561477 190.011453 429.558776 190.277949 429.555848 190.544444 429.552692 190.810940 429.549305 191.077436 429.545686 191.343932 429.541831 191.610427 429.537741 191.876923 429.533412 192.143419 429.528842 192.409915 429.524030 192.676410 429.518974 192.942906 429.513672 193.209402 429.508121 193.475897 429.502320 193.742393 429.496266 194.008889 429.489959 194.275385 429.483395 194.541880 429.476573 194.808376 429.469491 195.074872 429.462147 195.341368 429.454539 195.607863 429.446665 195.874359 429.438523 196.140855 429.430112 196.407350 429.421428 196.673846 429.412470 196.940342 429.403237 197.206838 429.393726 197.473333 429.383935 197.739829 429.373863 198.006325 429.363506 198.272821 429.352865 198.539316 429.341935 198.805812 429.330716 199.072308 429.319206 199.338803 429.307402 199.605299 429.295302 199.871795 429.282905 200.138291 429.270209 200.404786 429.257212 200.671282 429.243911 200.937778 429.230304 201.204274 429.216391 201.470769 429.202168 201.737265 429.187635 202.003761 429.172788 202.270256 429.157626 202.536752 429.142147 202.803248 429.126348 203.069744 429.110229 203.336239 429.093787 203.602735 429.077020 203.869231 429.059926 204.135726 429.042504 204.402222 429.024750 204.668718 429.006664 204.935214 428.988242 205.201709 428.969485 205.468205 428.950388 205.734701 428.930951 206.001197 428.911171 206.267692 428.891047 206.534188 428.870576 206.800684 428.849757 207.067179 428.828587 207.333675 428.807065 207.600171 428.785188 207.866667 428.762955 208.133162 428.740363 208.399658 428.717412 208.666154 428.694098 208.932650 428.670420 209.199145 428.646375 209.465641 428.621963 209.732137 428.597180 209.998632 428.572026 210.265128 428.546497 210.531624 428.520592 210.798120 428.494309 211.064615 428.467647 211.331111 428.440602 211.597607 428.413174 211.864103 428.385360 212.130598 428.357158 212.397094 428.328568 212.663590 428.299591 212.930085 428.270226 213.196581 428.240473 213.463077 428.210332 213.729573 428.179804 213.996068 428.148888 214.262564 428.117584 214.529060 428.085893 214.795556 428.053814 215.062051 428.021347 215.328547 427.988493 215.595043 427.955251 215.861538 427.921621 216.128034 427.887604 216.394530 427.853199 216.661026 427.818406 216.927521 427.783226 217.194017 427.747659 217.460513 427.711703 217.727009 427.675361 217.993504 427.638630 218.260000 427.601513 218.526496 427.564007 218.792991 427.526114 219.059487 427.487834 219.325983 427.449166 219.592479 427.410111 219.858974 427.370668 220.125470 427.330838 220.391966 427.290621 220.658462 427.250016 220.924957 427.209023 221.191453 427.167644 221.457949 427.125876 221.724444 427.083722 221.990940 427.041180 222.257436 426.998251 222.523932 426.954934 222.790427 426.911230 223.056923 426.867139 223.323419 426.822661 223.589915 426.777795 223.856410 426.732542 224.122906 426.686902 224.389402 426.640874 224.655897 426.594460 224.922393 426.547658 225.188889 426.500469 225.455385 426.452892 225.721880 426.404929 225.988376 426.356578 226.254872 426.307840 226.521368 426.258715 226.787863 426.209203 227.054359 426.159304 227.320855 426.109017 227.587350 426.058344 227.853846 426.007283 228.120342 425.955836 228.386838 425.904001 228.653333 425.851779 228.919829 425.799171 229.186325 425.746175 229.452821 425.692792 229.719316 425.639022 229.985812 425.584865 230.252308 425.530321 230.518803 425.475391 230.785299 425.420073 231.051795 425.364368 231.318291 425.308277 231.584786 425.251798 231.851282 425.194933 232.117778 425.137681 232.384274 425.080041 232.650769 425.022015 232.917265 424.963603 233.183761 424.904803 233.450256 424.845616 233.716752 424.786043 233.983248 424.726083 234.249744 424.665736 234.516239 424.605002 234.782735 424.543881 235.049231 424.482374 235.315726 424.420480 235.582222 424.358199 235.848718 424.295532 236.115214 424.232477 236.381709 424.169037 236.648205 424.105209 236.914701 424.040995 237.181197 423.976394 237.447692 423.911406 237.714188 423.846032 237.980684 423.780271 238.247179 423.714124 238.513675 423.647590 238.780171 423.580669 239.046667 423.513362 239.313162 423.445668 239.579658 423.377587 239.846154 423.309121 240.112650 423.240267 240.379145 423.171027 240.645641 423.101401 240.912137 423.031388 241.178632 422.960988 241.445128 422.890202 241.711624 422.819030 241.978120 422.747471 242.244615 422.675526 242.511111 422.603194 242.777607 422.530476 243.044103 422.457372 243.310598 422.383881 243.577094 422.310004 243.843590 422.235740 244.110085 422.161090 244.376581 422.086054 244.643077 422.010632 244.909573 421.934823 245.176068 421.858628 245.442564 421.782046 245.709060 421.705078 245.975556 421.627724 246.242051 421.549984 246.508547 421.471858 246.775043 421.393345 247.041538 421.314446 247.308034 421.235161 247.574530 421.155490 247.841026 421.075432 248.107521 420.994988 248.374017 420.914159 248.640513 420.832943 248.907009 420.751340 249.173504 420.669352 249.440000 420.586978 249.706496 420.504218 249.972991 420.421071 250.239487 420.337539 250.505983 420.253620 250.772479 420.169315 251.038974 420.084625 251.305470 419.999548 251.571966 419.914085 251.838462 419.828236 252.104957 419.742002 252.371453 419.655381 252.637949 419.568374 252.904444 419.480982 253.170940 419.393203 253.437436 419.305039 253.703932 419.216489 253.970427 419.127552 254.236923 419.038230 254.503419 418.948522 254.769915 418.858428 255.036410 418.767949 255.302906 418.677083 255.569402 418.585832 255.835897 418.494194 256.102393 418.402171 256.368889 418.309763 256.635385 418.216968 256.901880 418.123788 257.168376 418.030222 257.434872 417.936270 257.701368 417.841932 257.967863 417.747209 258.234359 417.652100 258.500855 417.556605 258.767350 417.460725 259.033846 417.364459 259.300342 417.267807 259.566838 417.170770 259.833333 417.073347 260.099829 416.975538 260.366325 416.877344 260.632821 416.778764 260.899316 416.679799 261.165812 416.580448 261.432308 416.480712 261.698803 416.380590 261.965299 416.280082 262.231795 416.179189 262.498291 416.077910 262.764786 415.976246 263.031282 415.874196 263.297778 415.771761 263.564274 415.668941 263.830769 415.565735 264.097265 415.462143 264.363761 415.358167 264.630256 415.253804 264.896752 415.149057 265.163248 415.043924 265.429744 414.938405 265.696239 414.832501 265.962735 414.726212 266.229231 414.619538 266.495726 414.512478 266.762222 414.405033 267.028718 414.297202 267.295214 414.188986 267.561709 414.080385 267.828205 413.971399 268.094701 413.862027 268.361197 413.752271 268.627692 413.642129 268.894188 413.531601 269.160684 413.420689 269.427179 413.309391 269.693675 413.197708 269.960171 413.085640 270.226667 412.973187 270.493162 412.860349 270.759658 412.747125 271.026154 412.633517 271.292650 412.519523 271.559145 412.405144 271.825641 412.290380 272.092137 412.175231 272.358632 412.059697 272.625128 411.943778 272.891624 411.827474 273.158120 411.710785 273.424615 411.593711 273.691111 411.476252 273.957607 411.358407 274.224103 411.240178 274.490598 411.121564 274.757094 411.002565 275.023590 410.883181 275.290085 410.763412 275.556581 410.643258 275.823077 410.522720 276.089573 410.401796 276.356068 410.280487 276.622564 410.158794 276.889060 410.036716 277.155556 409.914253 277.422051 409.791405 277.688547 409.668172 277.955043 409.544554 278.221538 409.420552 278.488034 409.296165 278.754530 409.171393 279.021026 409.046234 279.287521 408.920687 279.554017 408.794750 279.820513 408.668421 280.087009 408.541699 280.353504 408.414581 280.620000 408.287067 280.886496 408.159153 281.152991 408.030839 281.419487 407.902123 281.685983 407.773003 281.952479 407.643477 282.218974 407.513544 282.485470 407.383201 282.751966 407.252448 283.018462 407.121281 283.284957 406.989700 283.551453 406.857703 283.817949 406.725288 284.084444 406.592453 284.350940 406.459197 284.617436 406.325517 284.883932 406.191412 285.150427 406.056881 285.416923 405.921921 285.683419 405.786531 285.949915 405.650709 286.216410 405.514453 286.482906 405.377762 286.749402 405.240633 287.015897 405.103066 287.282393 404.965058 287.548889 404.826607 287.815385 404.687712 288.081880 404.548371 288.348376 404.408582 288.614872 404.268344 288.881368 404.127655 289.147863 403.986512 289.414359 403.844915 289.680855 403.702862 289.947350 403.560350 290.213846 403.417378 290.480342 403.273945 290.746838 403.130048 291.013333 402.985686 291.279829 402.840857 291.546325 402.695559 291.812821 402.549791 292.079316 402.403550 292.345812 402.256836 292.612308 402.109646 292.878803 401.961978 293.145299 401.813831 293.411795 401.665204 293.678291 401.516093 293.944786 401.366498 294.211282 401.216417 294.477778 401.065848 294.744274 400.914789 295.010769 400.763239 295.277265 400.611196 295.543761 400.458658 295.810256 400.305623 296.076752 400.152089 296.343248 399.998055 296.609744 399.843520 296.876239 399.688481 297.142735 399.532936 297.409231 399.376884 297.675726 399.220323 297.942222 399.063252 298.208718 398.905668 298.475214 398.747570 298.741709 398.588956 299.008205 398.429824 299.274701 398.270173 299.541197 398.110001 299.807692 397.949306 300.074188 397.788086 300.340684 397.626339 300.607179 397.464065 300.873675 397.301261 301.140171 397.137924 301.406667 396.974055 301.673162 396.809650 301.939658 396.644709 302.206154 396.479229 302.472650 396.313208 302.739145 396.146645 303.005641 395.979539 303.272137 395.811886 303.538632 395.643687 303.805128 395.474938 304.071624 395.305638 304.338120 395.135786 304.604615 394.965379 304.871111 394.794416 305.137607 394.622895 305.404103 394.450814 305.670598 394.278172 305.937094 394.104967 306.203590 393.931197 306.470085 393.756861 306.736581 393.581956 307.003077 393.406481 307.269573 393.230434 307.536068 393.053813 307.802564 392.876617 308.069060 392.698844 308.335556 392.520492 308.602051 392.341559 308.868547 392.162044 309.135043 391.981945 309.401538 391.801260 309.668034 391.619988 309.934530 391.438126 310.201026 391.255672 310.467521 391.072626 310.734017 390.888986 311.000513 390.704749 311.267009 390.519914 311.533504 390.334479 311.800000 390.148442 312.066496 389.961802 312.332991 389.774557 312.599487 389.586705 312.865983 389.398245 313.132479 389.209174 313.398974 389.019491 313.665470 388.829194 313.931966 388.638281 314.198462 388.446751 314.464957 388.254603 314.731453 388.061833 314.997949 387.868440 315.264444 387.674424 315.530940 387.479781 315.797436 387.284510 316.063932 387.088610 316.330427 386.892078 316.596923 386.694914 316.863419 386.497114 317.129915 386.298678 317.396410 386.099604 317.662906 385.899889 317.929402 385.699533 318.195897 385.498533 318.462393 385.296888 318.728889 385.094595 318.995385 384.891654 319.261880 384.688062 319.528376 384.483818 319.794872 384.278920 320.061368 384.073366 320.327863 383.867154 320.594359 383.660283 320.860855 383.452752 321.127350 383.244557 321.393846 383.035697 321.660342 382.826172 321.926838 382.615978 322.193333 382.405114 322.459829 382.193579 322.726325 381.981371 322.992821 381.768487 323.259316 381.554927 323.525812 381.340688 323.792308 381.125769 324.058803 380.910168 324.325299 380.693883 324.591795 380.476912 324.858291 380.259255 325.124786 380.040908 325.391282 379.821870 325.657778 379.602140 325.924274 379.381715 326.190769 379.160595 326.457265 378.938776 326.723761 378.716258 326.990256 378.493039 327.256752 378.269117 327.523248 378.044490 327.789744 377.819156 328.056239 377.593114 328.322735 377.366362 328.589231 377.138899 328.855726 376.910721 329.122222 376.681829 329.388718 376.452219 329.655214 376.221891 329.921709 375.990842 330.188205 375.759071 330.454701 375.526576 330.721197 375.293355 330.987692 375.059407 331.254188 374.824729 331.520684 374.589320 331.787179 374.353179 332.053675 374.116303 332.320171 373.878690 332.586667 373.640340 332.853162 373.401250 333.119658 373.161418 333.386154 372.920844 333.652650 372.679524 333.919145 372.437457 334.185641 372.194642 334.452137 371.951077 334.718632 371.706759 334.985128 371.461688 335.251624 371.215862 335.518120 370.969278 335.784615 370.721935 336.051111 370.473831 336.317607 370.224965 336.584103 369.975335 336.850598 369.724939 337.117094 369.473774 337.383590 369.221841 337.650085 368.969136 337.916581 368.715658 338.183077 368.461406 338.449573 368.206377 338.716068 367.950569 338.982564 367.693982 339.249060 367.436613 339.515556 367.178461 339.782051 366.919523 340.048547 366.659798 340.315043 366.399285 340.581538 366.137981 340.848034 365.875885 341.114530 365.612995 341.381026 365.349309 341.647521 365.084826 341.914017 364.819544 342.180513 364.553460 342.447009 364.286574 342.713504 364.018883 342.980000 363.750386 343.246496 363.481082 343.512991 363.210967 343.779487 362.940041 344.045983 362.668302 344.312479 362.395748 344.578974 362.122377 344.845470 361.848188 345.111966 361.573178 345.378462 361.297348 345.644957 361.020698 345.911453 360.743234 346.177949 360.464957 346.444444 360.185872 346.710940 359.905981 346.977436 359.625289 347.243932 359.343797 347.510427 359.061511 347.776923 358.778432 348.043419 358.494564 348.309915 358.209911 348.576410 357.924476 348.842906 357.638261 349.109402 357.351272 349.375897 357.063510 349.642393 356.774979 349.908889 356.485683 350.175385 356.195625 350.441880 355.904807 350.708376 355.613234 350.974872 355.320909 351.241368 355.027835 351.507863 354.734015 351.774359 354.439453 352.040855 354.144152 352.307350 353.848115 352.573846 353.551346 352.840342 353.253847 353.106838 352.955623 353.373333 352.656677 353.639829 352.357011 353.906325 352.056630 354.172821 351.755536 354.439316 351.453733 354.705812 351.151224 354.972308 350.848013 355.238803 350.544102 355.505299 350.239496 355.771795 349.934197 356.038291 349.628208 356.304786 349.321534 356.571282 349.014177 356.837778 348.706141 357.104274 348.397429 357.370769 348.088045 357.637265 347.777991 357.903761 347.467270 358.170256 347.155888 358.436752 346.843845 358.703248 346.531147 358.969744 346.217796 359.236239 345.903796 359.502735 345.589149 359.769231 345.273860 360.035726 344.957931 360.302222 344.641366 360.568718 344.324168 360.835214 344.006341 361.101709 343.687887 361.368205 343.368811 361.634701 343.049115 361.901197 342.728802 362.167692 342.407877 362.434188 342.086342 362.700684 341.764201 362.967179 341.441457 363.233675 341.118113 363.500171 340.794173 363.766667 340.469639 364.033162 340.144516 364.299658 339.818807 364.566154 339.492515 364.832650 339.165642 365.099145 338.838194 365.365641 338.510172 365.632137 338.181580 365.898632 337.852422 366.165128 337.522701 366.431624 337.192420 366.698120 336.861582 366.964615 336.530191 367.231111 336.198251 367.497607 335.865763 367.764103 335.532733 368.030598 335.199162 368.297094 334.865055 368.563590 334.530414 368.830085 334.195244 369.096581 333.859546 369.363077 333.523326 369.629573 333.186585 369.896068 332.849328 370.162564 332.511557 370.429060 332.173276 370.695556 331.834488 370.962051 331.495197 371.228547 331.155406 371.495043 330.815118 371.761538 330.474336 372.028034 330.133065 372.294530 329.791306 372.561026 329.449064 372.827521 329.106341 373.094017 328.763142 373.360513 328.419469 373.627009 328.075326 373.893504 327.730715 374.160000 327.385642 374.426496 327.040107 374.692991 326.694116 374.959487 326.347671 375.225983 326.000776 375.492479 325.653434 375.758974 325.305648 376.025470 324.957421 376.291966 324.608757 376.558462 324.259660 376.824957 323.910132 377.091453 323.560177 377.357949 323.209798 377.624444 322.858999 377.890940 322.507782 378.157436 322.156152 378.423932 321.804111 378.690427 321.451663 378.956923 321.098810 379.223419 320.745558 379.489915 320.391908 379.756410 320.037863 380.022906 319.683429 380.289402 319.328607 380.555897 318.973401 380.822393 318.617814 381.088889 318.261850 381.355385 317.905511 381.621880 317.548802 381.888376 317.191726 382.154872 316.834285 382.421368 316.476484 382.687863 316.118325 382.954359 315.759812 383.220855 315.400948 383.487350 315.041737 383.753846 314.682181 384.020342 314.322285 384.286838 313.962050 384.553333 313.601482 384.819829 313.240583 385.086325 312.879356 385.352821 312.517805 385.619316 312.155933 385.885812 311.793743 386.152308 311.431238 386.418803 311.068423 386.685299 310.705300 386.951795 310.341873 387.218291 309.978144 387.484786 309.614118 387.751282 309.249797 388.017778 308.885186 388.284274 308.520286 388.550769 308.155102 388.817265 307.789637 389.083761 307.423893 389.350256 307.057876 389.616752 306.691587 389.883248 306.325030 390.149744 305.958208 390.416239 305.591126 390.682735 305.223785 390.949231 304.856190 391.215726 304.488343 391.482222 304.120249 391.748718 303.751909 392.015214 303.383329 392.281709 303.014510 392.548205 302.645457 392.814701 302.276172 393.081197 301.906659 393.347692 301.536921 393.614188 301.166962 393.880684 300.796785 394.147179 300.426393 394.413675 300.055789 394.680171 299.684977 394.946667 299.313960 395.213162 298.942742 395.479658 298.571326 395.746154 298.199714 396.012650 297.827911 396.279145 297.455920 396.545641 297.083744 396.812137 296.711386 397.078632 296.338850 397.345128 295.966138 397.611624 295.593255 397.878120 295.220204 398.144615 294.846988 398.411111 294.473610 398.677607 294.100073 398.944103 293.726381 399.210598 293.352538 399.477094 292.978546 399.743590 292.604409 400.010085 292.230130 400.276581 291.855713 400.543077 291.481160 400.809573 291.106475 401.076068 290.731662 401.342564 290.356724 401.609060 289.981664 401.875556 289.606485 402.142051 289.231191 402.408547 288.855785 402.675043 288.480270 402.941538 288.104650 403.208034 287.728928 403.474530 287.353107 403.741026 286.977190 404.007521 286.601182 404.274017 286.225085 404.540513 285.848902 404.807009 285.472638 405.073504 285.096294 405.340000 284.719875 405.606496 284.343384 405.872991 283.966824 406.139487 283.590199 406.405983 283.213511 406.672479 282.836765 406.938974 282.459963 407.205470 282.083108 407.471966 281.706205 407.738462 281.329256 408.004957 280.952265 408.271453 280.575234 408.537949 280.198168 408.804444 279.821070 409.070940 279.443943 409.337436 279.066790 409.603932 278.689614 409.870427 278.312420 410.136923 277.935209 410.403419 277.557987 410.669915 277.180755 410.936410 276.803517 411.202906 276.426277 411.469402 276.049037 411.735897 275.671802 412.002393 275.294575 412.268889 274.917362 412.535385 274.540170 412.801880 274.163006 413.068376 273.785877 413.334872 273.408789 413.601368 273.031750 413.867863 272.654765 414.134359 272.277842 414.400855 271.900989 414.667350 271.524210 414.933846 271.147514 415.200342 270.770907 415.466838 270.394396 415.733333 270.017988 415.999829 269.641689 416.266325 269.265506 416.532821 268.889447 416.799316 268.513517 417.065812 268.137724 417.332308 267.762075 417.598803 267.386576 417.865299 267.011234 418.131795 266.636057 418.398291 266.261050 418.664786 265.886220 418.931282 265.511575 419.197778 265.137121 419.464274 264.762865 419.730769 264.388814 419.997265 264.014974 420.263761 263.641353 420.530256 263.267956 420.796752 262.894792 421.063248 262.521867 421.329744 262.149187 421.596239 261.776760 421.862735 261.404591 422.129231 261.032689 422.395726 260.661060 422.662222 260.289710 422.928718 259.918647 423.195214 259.547877 423.461709 259.177406 423.728205 258.807243 423.994701 258.437393 424.261197 258.067864 424.527692 257.698662 424.794188 257.329794 425.060684 256.961267 425.327179 256.593088 425.593675 256.225263 425.860171 255.857799 426.126667 255.490703 426.393162 255.123982 426.659658 254.757643 426.926154 254.391692 427.192650 254.026137 427.459145 253.660984 427.725641 253.296239 427.992137 252.931910 428.258632 252.568004 428.525128 252.204527 428.791624 251.841486 429.058120 251.478888 429.324615 251.116740 429.591111 250.755048 429.857607 250.393819 430.124103 250.033061 430.390598 249.672779 430.657094 249.312982 430.923590 248.953674 431.190085 248.594864 431.456581 248.236559 431.723077 247.878764 431.989573 247.521487 432.256068 247.164734 432.522564 246.808513 432.789060 246.452830 433.055556 246.097692 433.322051 245.743106 433.588547 245.389078 433.855043 245.035615 434.121538 244.682725 434.388034 244.330414 434.654530 243.978689 434.921026 243.627556 435.187521 243.277022 435.454017 242.927095 435.720513 242.577781 435.987009 242.229086 436.253504 241.881018 436.520000 241.533584 436.786496 241.186789 437.052991 240.840642 437.319487 240.495149 437.585983 240.150316 437.852479 239.806150 438.118974 239.462659 438.385470 239.119849 438.651966 238.777727 438.918462 238.436299 439.184957 238.095573 439.451453 237.755555 439.717949 237.416252 439.984444 237.077671 440.250940 236.739818 440.517436 236.402701 440.783932 236.066327 441.050427 235.730701 441.316923 235.395831 441.583419 235.061724 441.849915 234.728387 442.116410 234.395825 442.382906 234.064047 442.649402 233.733059 442.915897 233.402867 443.182393 233.073479 443.448889 232.744901 443.715385 232.417140 443.981880 232.090204 444.248376 231.764097 444.514872 231.438829 444.781368 231.114405 445.047863 230.790832 445.314359 230.468116 445.580855 230.146266 445.847350 229.825287 446.113846 229.505186 446.380342 229.185971 446.646838 228.867647 446.913333 228.550223 447.179829 228.233704 447.446325 227.918097 447.712821 227.603409 447.979316 227.289647 448.245812 226.976818 448.512308 226.664929 448.778803 226.353986 449.045299 226.043996 449.311795 225.734967 449.578291 225.426904 449.844786 225.119814 450.111282 224.813705 450.377778 224.508583 450.644274 224.204456 450.910769 223.901329 451.177265 223.599209 451.443761 223.298104 451.710256 222.998021 451.976752 222.698965 452.243248 222.400944 452.509744 222.103965 452.776239 221.808034 453.042735 221.513158 453.309231 221.219345 453.575726 220.926600 453.842222 220.634931 454.108718 220.344345 454.375214 220.054847 454.641709 219.766446 454.908205 219.479148 455.174701 219.192959 455.441197 218.907887 455.707692 218.623938 455.974188 218.341119 456.240684 218.059437 456.507179 217.778899 456.773675 217.499511 457.040171 217.221280 457.306667 216.944214 457.573162 216.668318 457.839658 216.393600 458.106154 216.120067 458.372650 215.847725 458.639145 215.576581 458.905641 215.306642 459.172137 215.037915 459.438632 214.770407 459.705128 214.504123 459.971624 214.239072 460.238120 213.975260 460.504615 213.712693 460.771111 213.451379 461.037607 213.191325 461.304103 212.932536 461.570598 212.675021 461.837094 212.418785 462.103590 212.163836 462.370085 211.910180 462.636581 211.657824 462.903077 211.406776 463.169573 211.157041 463.436068 210.908627 463.702564 210.661540 463.969060 210.415787 464.235556 210.171376 464.502051 209.928312 464.768547 209.686602 465.035043 209.446255 465.301538 209.207275 465.568034 208.969670 465.834530 208.733447 466.101026 208.498613 466.367521 208.265175 466.634017 208.033138 466.900513 207.802511 467.167009 207.573299 467.433504 207.345510 467.700000 207.119150 467.966496 206.894227 468.232991 206.670747 468.499487 206.448716 468.765983 206.228143 469.032479 206.009033 469.298974 205.791393 469.565470 205.575230 469.831966 205.360551 470.098462 205.147362 470.364957 204.935671 470.631453 204.725485 470.897949 204.516809 471.164444 204.309652 471.430940 204.104019 471.697436 203.899918 471.963932 203.697355 472.230427 203.496337 472.496923 203.296871 472.763419 203.098963 473.029915 202.902621 473.296410 202.707852 473.562906 202.514662 473.829402 202.323057 474.095897 202.133046 474.362393 201.944634 474.628889 201.757828 474.895385 201.572635 475.161880 201.389063 475.428376 201.207117 475.694872 201.026804 475.961368 200.848132 476.227863 200.671107 476.494359 200.495737 476.760855 200.322027 477.027350 200.149984 477.293846 199.979616 477.560342 199.810929 477.826838 199.643930 478.093333 199.478626 478.359829 199.315024 478.626325 199.153125 478.892821 198.992915 479.159316 198.834375 479.425812 198.677485 479.692308 198.522224 479.958803 198.368575 480.225299 198.216516 480.491795 198.066030 480.758291 197.917095 481.024786 197.769693 481.291282 197.623804 481.557778 197.479408 481.824274 197.336487 482.090769 197.195020 482.357265 197.054987 482.623761 196.916370 482.890256 196.779149 483.156752 196.643304 483.423248 196.508816 483.689744 196.375665 483.956239 196.243832 484.222735 196.113297 484.489231 195.984040 484.755726 195.856043 485.022222 195.729285 485.288718 195.603747 485.555214 195.479409 485.821709 195.356252 486.088205 195.234257 486.354701 195.113403 486.621197 194.993672 486.887692 194.875043 487.154188 194.757498 487.420684 194.641016 487.687179 194.525579 487.953675 194.411166 488.220171 194.297758 488.486667 194.185336 488.753162 194.073879 489.019658 193.963369 489.286154 193.853786 489.552650 193.745111 489.819145 193.637323 490.085641 193.530403 490.352137 193.424332 490.618632 193.319091 490.885128 193.214659 491.151624 193.111017 491.418120 193.008146 491.684615 192.906026 491.951111 192.804637 492.217607 192.703961 492.484103 192.603977 492.750598 192.504666 493.017094 192.406008 493.283590 192.307984 493.550085 192.210574 493.816581 192.113760 494.083077 192.017520 494.349573 191.921836 494.616068 191.826688 494.882564 191.732057 495.149060 191.637923 495.415556 191.544267 495.682051 191.451068 495.948547 191.358308 496.215043 191.265967 496.481538 191.174025 496.748034 191.082464 497.014530 190.991262 497.281026 190.900401 497.547521 190.809862 497.814017 190.719624 498.080513 190.629669 498.347009 190.539976 498.613504 190.450526 498.880000 190.361300 499.146496 190.272277 499.412991 190.183440 499.679487 190.094767 499.945983 190.006239 500.212479 189.917838 500.478974 189.829543 500.745470 189.741334 501.011966 189.653193 501.278462 189.565100 501.544957 189.477035 501.811453 189.388978 502.077949 189.300910 502.344444 189.212813 502.610940 189.124665 502.877436 189.036447 503.143932 188.948141 503.410427 188.859726 503.676923 188.771183 503.943419 188.682492 504.209915 188.593634 504.476410 188.504590 504.742906 188.415339 505.009402 188.325862 505.275897 188.236140 505.542393 188.146153 505.808889 188.055882 506.075385 187.965307 506.341880 187.874408 506.608376 187.783166 506.874872 187.691562 507.141368 187.599575 507.407863 187.507187 507.674359 187.414378 507.940855 187.321128 508.207350 187.227418 508.473846 187.133228 508.740342 187.038539 509.006838 186.943331 509.273333 186.847584 509.539829 186.751280 509.806325 186.654398 510.072821 186.556919 510.339316 186.458823 510.605812 186.360092 510.872308 186.260704 511.138803 186.160642 511.405299 186.059885 511.671795 185.958414 511.938291 185.856209 512.204786 185.753250 512.471282 185.649519 512.737778 185.544995 513.004274 185.439660 513.270769 185.333493 513.537265 185.226475 513.803761 185.118586 514.070256 185.009808 514.336752 184.900120 514.603248 184.789502 514.869744 184.677936 515.136239 184.565402 515.402735 184.451880 515.669231 184.337351 515.935726 184.221795 516.202222 184.105192 516.468718 183.987524 516.735214 183.868770 517.001709 183.748911 517.268205 183.627928 517.534701 183.505800 517.801197 183.382509 518.067692 183.258035 518.334188 183.132358 518.600684 183.005459 518.867179 182.877319 519.133675 182.747917 519.400171 182.617234 519.666667 182.485251 519.933162 182.351947 520.199658 182.217305 520.466154 182.081303 520.732650 181.943923 520.999145 181.805145 521.265641 181.664950 521.532137 181.523317 521.798632 181.380228 522.065128 181.235662 522.331624 181.089601 522.598120 180.942024 522.864615 180.792913 523.131111 180.642247 523.397607 180.490008 523.664103 180.336175 523.930598 180.180729 524.197094 180.023650 524.463590 179.864920 524.730085 179.704518 524.996581 179.542424 525.263077 179.378621 525.529573 179.213087 525.796068 179.045803 526.062564 178.876750 526.329060 178.705908 526.595556 178.533258 526.862051 178.358780 527.128547 178.182455 527.395043 178.004263 527.661538 177.824184 527.928034 177.642199 528.194530 177.458289 528.461026 177.272434 528.727521 177.084614 528.994017 176.894809 529.260513 176.703001 529.527009 176.509170 529.793504 176.313296 530.060000 176.115360 530.326496 175.915342 530.592991 175.713223 530.859487 175.508982 531.125983 175.302602 531.392479 175.094061 531.658974 174.883340 531.925470 174.670421 532.191966 174.455283 532.458462 174.237907 532.724957 174.018273 532.991453 173.796362 533.257949 173.572154 533.524444 173.345629 533.790940 173.116769 534.057436 172.885554 534.323932 172.651964 534.590427 172.415979 534.856923 172.177580 535.123419 171.936748 535.389915 171.693463 535.656410 171.447705 535.922906 171.199455 536.189402 170.948693 536.455897 170.695400 536.722393 170.439556 536.988889 170.181142 537.255385 169.920138 537.521880 169.656525 537.788376 169.390283 538.054872 169.121393 538.321368 168.849834 538.587863 168.575588 538.854359 168.298635 539.120855 168.018956 539.387350 167.736530 539.653846 167.451338 539.920342 167.163362 540.186838 166.872580 540.453333 166.578975 540.719829 166.282525 540.986325 165.983213 541.252821 165.681017 541.519316 165.375919 541.785812 165.067899 542.052308 164.756937 542.318803 164.443015 542.585299 164.126112 542.851795 163.806208 543.118291 163.483286 543.384786 163.157324 543.651282 162.828303 543.917778 162.496204 544.184274 162.161007 544.450769 161.822693 544.717265 161.481242 544.983761 161.136634 545.250256 160.788856 545.516752 160.437915 545.783248 160.083823 546.049744 159.726594 546.316239 159.366239 546.582735 159.002772 546.849231 158.636205 547.115726 158.266551 547.382222 157.893823 547.648718 157.518033 547.915214 157.139194 548.181709 156.757319 548.448205 156.372421 548.714701 155.984511 548.981197 155.593604 549.247692 155.199711 549.514188 154.802846 549.780684 154.403020 550.047179 154.000248 550.313675 153.594540 550.580171 153.185911 550.846667 152.774373 551.113162 152.359938 551.379658 151.942620 551.646154 151.522430 551.912650 151.099382 552.179145 150.673489 552.445641 150.244762 552.712137 149.813216 552.978632 149.378861 553.245128 148.941712 553.511624 148.501781 553.778120 148.059080 554.044615 147.613623 554.311111 147.165421 554.577607 146.714489 554.844103 146.260837 555.110598 145.804480 555.377094 145.345430 555.643590 144.883699 555.910085 144.419300 556.176581 143.952246 556.443077 143.482550 556.709573 143.010224 556.976068 142.535281 557.242564 142.057734 557.509060 141.577596 557.775556 141.094878 558.042051 140.609594 558.308547 140.121757 558.575043 139.631379 558.841538 139.138473 559.108034 138.643052 559.374530 138.145128 559.641026 137.644714 559.907521 137.141823 560.174017 136.636467 560.440513 136.128660 560.707009 135.618413 560.973504 135.105740 561.240000 134.590653 561.506496 134.073165 561.772991 133.553289 562.039487 133.031038 562.305983 132.506423 562.572479 131.979458 562.838974 131.450156 563.105470 130.918529 563.371966 130.384589 563.638462 129.848351 563.904957 129.309826 564.171453 128.769026 564.437949 128.225966 564.704444 127.680657 564.970940 127.133112 565.237436 126.583344 565.503932 126.031365 565.770427 125.477189 566.036923 124.920827 566.303419 124.362294 566.569915 123.801600 566.836410 123.238760 567.102906 122.673786 567.369402 122.106689 567.635897 121.537485 567.902393 120.966184 568.168889 120.392799 568.435385 119.817344 568.701880 119.239831 568.968376 118.660272 569.234872 118.078681 569.501368 117.495070 569.767863 116.909452 570.034359 116.321839 570.300855 115.732245 570.567350 115.140682 570.833846 114.547162 571.100342 113.951698 571.366838 113.354303 571.633333 112.754991 571.899829 112.153772 572.166325 111.550661 572.432821 110.945669 572.699316 110.338811 572.965812 109.730097 573.232308 109.119541 573.498803 108.507156 573.765299 107.892955 574.031795 107.276949 574.298291 106.659152 574.564786 106.039577 574.831282 105.418235 575.097778 104.795141 575.364274 104.170306 575.630769 103.543744 575.897265 102.915466 576.163761 102.285487 576.430256 101.653817 576.696752 101.020471 576.963248 100.385461 577.229744 99.748799 577.496239 99.110498 577.762735 98.470571 578.029231 97.829031 578.295726 97.185890 578.562222 96.541161 578.828718 95.894857 579.095214 95.246990 579.361709 94.597574 579.628205 93.946620 579.894701 93.294142 580.161197 92.640152 580.427692 91.984663 580.694188 91.327688 580.960684 90.669239 581.227179 90.009329 581.493675 89.347971 581.760171 88.685177 582.026667 88.020961 582.293162 87.355334 582.559658 86.688310 582.826154 86.019901 583.092650 85.350121 583.359145 84.678981 583.625641 84.006494 583.892137 83.332674 584.158632 82.657532 584.425128 81.981082 584.691624 81.303336 584.958120 80.624307 585.224615 79.944007 585.491111 79.262450 585.757607 78.579648 586.024103 77.895614 586.290598 77.210360 586.557094 76.523899 586.823590 75.836244 587.090085 75.147408 587.356581 74.457403 587.623077 73.766241 587.889573 73.073937 588.156068 72.380502 588.422564 71.685949 588.689060 70.990290 588.955556 70.293540 589.222051 69.595709 589.488547 68.896811 589.755043 68.196859 590.021538 67.495865 590.288034 66.793842 590.554530 66.090803 590.821026 65.386760 591.087521 64.681726 591.354017 63.975715 591.620513 63.268737 591.887009 62.560807 592.153504 61.851937 592.420000 61.142139 592.686496 60.431427 592.952991 59.719813 593.219487 59.007309 593.485983 58.293929 593.752479 57.579685 594.018974 56.864590 594.285470 56.148656 594.551966 55.431897 594.818462 54.714325 595.084957 53.995952 595.351453 53.276792 595.617949 52.556857 595.884444 51.836159 596.150940 51.114712 596.417436 50.392528 596.683932 49.669621 596.950427 48.946001 597.216923 48.221683 597.483419 47.496679 597.749915 46.771002 598.016410 46.044664 598.282906 45.317678 598.549402 44.590057 598.815897 43.861813 599.082393 43.132960 599.348889 42.403510 599.615385 41.673475 599.881880 40.942869 600.148376 40.211703 600.414872 39.479992 600.681368 38.747747 600.947863 38.014980 601.214359 37.281706 601.480855 36.547937 601.747350 35.813684 602.013846 35.078962 602.280342 34.343782 602.546838 33.608158 602.813333 32.872101 603.079829 32.135626 603.346325 31.398744 603.612821 30.661468 603.879316 29.923811 604.145812 29.185785 604.412308 28.447404 604.678803 27.708680 604.945299 26.969626 605.211795 26.230254 605.478291 25.490577 605.744786 24.750608 606.011282 24.010359 606.277778 23.269844 606.544274 22.529074 606.810769 21.788064 607.077265 21.046824 607.343761 20.305369 607.610256 19.563710 607.876752 18.821861 608.143248 18.079834 608.409744 17.337641 608.676239 16.595297 608.942735 15.852812 609.209231 15.110201 609.475726 14.367475 609.742222 13.624648 610.008718 12.881731 610.275214 12.138739 610.541709 11.395682 610.808205 10.652576 611.074701 9.909431 611.341197 9.166260 611.607692 8.423077" class="line reactive nofill"/></g></g><g class="titles"><text x="400.0" y="26" class="title plot_title">COVID-19 | Mato Grosso do Sul</text><text x="400.0" y="52" class="title plot_title"> Fonte: jhoonb.github.io/corona</text></g><g transform="translate(156, 72)" class="plot overlay"><g class="series serie-0 color-0"><g class="dots"><circle cx="11.992307692307692" cy="428.3853595401433" r="2.5" class="dot reactive tooltip-trigger"/><desc class="value">0</desc><desc class="x top">11.992307692307692</desc><desc class="y top">428.3853595401433</desc><desc class="x_label">28-02-2020</desc></g><g class="dots"><circle cx="78.61623931623932" cy="428.3853595401433" r="2.5" class="dot reactive tooltip-trigger"/><desc class="value">0</desc><desc class="x top">78.61623931623932</desc><desc class="y top">428.3853595401433</desc><desc class="x_label">04-03-2020</desc></g><g class="dots"><circle cx="145.2401709401709" cy="428.3853595401433" r="2.5" class="dot reactive tooltip-trigger"/><desc class="value">0</desc><desc class="x top">145.2401709401709</desc><desc class="y top">428.3853595401433</desc><desc class="x_label">09-03-2020</desc></g><g class="dots"><circle cx="211.86410256410258" cy="428.3853595401433" r="2.5" class="dot reactive tooltip-trigger"/><desc class="value">0</desc><desc class="x top">211.86410256410258</desc><desc class="y top">428.3853595401433</desc><desc class="x_label">12-03-2020</desc></g><g class="dots"><circle cx="278.4880341880342" cy="409.2961648757312" r="2.5" class="dot reactive tooltip-trigger"/><desc class="value">2</desc><desc class="x top">278.4880341880342</desc><desc class="y top">409.2961648757312</desc><desc class="x_label">15-03-2020</desc></g><g class="dots"><circle cx="345.11196581196583" cy="361.57317821470093" r="2.5" class="dot reactive tooltip-trigger"/><desc class="value">7</desc><desc class="x left top">345.11196581196583</desc><desc class="y left top">361.57317821470093</desc><desc class="x_label">18-03-2020</desc></g><g class="dots"><circle cx="411.7358974358974" cy="275.67180222484643" r="2.5" class="dot reactive tooltip-trigger"/><desc class="value">16</desc><desc class="x left top">411.7358974358974</desc><desc class="y left top">275.67180222484643</desc><desc class="x_label">21-03-2020</desc></g><g class="dots"><circle cx="478.3598290598291" cy="199.315023567198" r="2.5" class="dot reactive tooltip-trigger"/><desc class="value">24</desc><desc class="x left">478.3598290598291</desc><desc class="y left">199.315023567198</desc><desc class="x_label">24-03-2020</desc></g><g class="dots"><circle cx="544.9837606837607" cy="161.1366342383738" r="2.5" class="dot reactive tooltip-trigger"/><desc class="value">28</desc><desc class="x left">544.9837606837607</desc><desc class="y left">161.1366342383738</desc><desc class="x_label">27-03-2020</desc></g><g class="dots"><circle cx="611.6076923076923" cy="8.423076923076792" r="2.5" class="dot reactive tooltip-trigger"/><desc class="value">44</desc><desc class="x left">611.6076923076923</desc><desc class="y left">8.423076923076792</desc><desc class="x_label">30-03-2020</desc></g></g></g><g transform="translate(156, 72)" class="plot text-overlay"><g class="series serie-0 color-0"><text text-anchor="left" x="27.99230769230769" y="449.71869287347664" class="value">0</text><text text-anchor="left" x="94.61623931623932" y="449.71869287347664" class="value">0</text><text text-anchor="left" x="161.2401709401709" y="449.71869287347664" class="value">0</text><text text-anchor="left" x="227.86410256410258" y="449.71869287347664" class="value">0</text><text text-anchor="left" x="294.4880341880342" y="430.62949820906454" class="value">2</text><text text-anchor="left" x="361.11196581196583" y="382.90651154803425" class="value">7</text><text text-anchor="left" x="427.7358974358974" y="297.00513555817975" class="value">16</text><text text-anchor="left" x="494.3598290598291" y="220.64835690053135" class="value">24</text><text text-anchor="left" x="560.9837606837607" y="182.46996757170714" class="value">28</text><text text-anchor="left" x="627.6076923076923" y="29.756410256410124" class="value">44</text></g></g><g transform="translate(156, 72)" class="plot tooltip-overlay"><g transform="translate(0 0)" style="opacity: 0" class="tooltip"><rect rx="0" ry="0" width="0" height="0" class="tooltip-box"/><g class="text"/></g></g><g transform="translate(10, 82)" class="legends"><g id="activate-serie-0" class="legend reactive activate-serie"><rect x="0.0" y="1.0" width="12" height="12" class="color-0 reactive"/><text x="17.0" y="11.2">Confirmados</text></g></g><g transform="translate(790, 82)" class="legends"/></g></svg>