<?xml version='1.0' encoding='utf-8'?>
<svg xmlns="http://www.w3.org/2000/svg" xmlns:xlink="http://www.w3.org/1999/xlink" id="chart-67e29dfd-6011-47ad-92fc-ee4a975133b6" class="pygal-chart" viewBox="0 0 800 600"><!--Generated with pygal 2.4.0 (lxml) ©Kozea 2012-2016 on 2020-05-11--><!--http://pygal.org--><!--http://github.com/Kozea/pygal--><defs><style type="text/css">#chart-67e29dfd-6011-47ad-92fc-ee4a975133b6{-webkit-user-select:none;-webkit-font-smoothing:antialiased;font-family:Consolas,"Liberation Mono",Menlo,Courier,monospace}#chart-67e29dfd-6011-47ad-92fc-ee4a975133b6 .title{font-family:Consolas,"Liberation Mono",Menlo,Courier,monospace;font-size:16px}#chart-67e29dfd-6011-47ad-92fc-ee4a975133b6 .legends .legend text{font-family:Consolas,"Liberation Mono",Menlo,Courier,monospace;font-size:14px}#chart-67e29dfd-6011-47ad-92fc-ee4a975133b6 .axis text{font-family:Consolas,"Liberation Mono",Menlo,Courier,monospace;font-size:10px}#chart-67e29dfd-6011-47ad-92fc-ee4a975133b6 .axis text.major{font-family:Consolas,"Liberation Mono",Menlo,Courier,monospace;font-size:10px}#chart-67e29dfd-6011-47ad-92fc-ee4a975133b6 .text-overlay text.value{font-family:Consolas,"Liberation Mono",Menlo,Courier,monospace;font-size:16px}#chart-67e29dfd-6011-47ad-92fc-ee4a975133b6 .text-overlay text.label{font-family:Consolas,"Liberation Mono",Menlo,Courier,monospace;font-size:10px}#chart-67e29dfd-6011-47ad-92fc-ee4a975133b6 .tooltip{font-family:Consolas,"Liberation Mono",Menlo,Courier,monospace;font-size:14px}#chart-67e29dfd-6011-47ad-92fc-ee4a975133b6 text.no_data{font-family:Consolas,"Liberation Mono",Menlo,Courier,monospace;font-size:64px}
#chart-67e29dfd-6011-47ad-92fc-ee4a975133b6{background-color:rgba(249,249,249,1)}#chart-67e29dfd-6011-47ad-92fc-ee4a975133b6 path,#chart-67e29dfd-6011-47ad-92fc-ee4a975133b6 line,#chart-67e29dfd-6011-47ad-92fc-ee4a975133b6 rect,#chart-67e29dfd-6011-47ad-92fc-ee4a975133b6 circle{-webkit-transition:150ms;-moz-transition:150ms;transition:150ms}#chart-67e29dfd-6011-47ad-92fc-ee4a975133b6 .graph &gt; .background{fill:rgba(249,249,249,1)}#chart-67e29dfd-6011-47ad-92fc-ee4a975133b6 .plot &gt; .background{fill:rgba(255,255,255,1)}#chart-67e29dfd-6011-47ad-92fc-ee4a975133b6 .graph{fill:rgba(0,0,0,.87)}#chart-67e29dfd-6011-47ad-92fc-ee4a975133b6 text.no_data{fill:rgba(0,0,0,1)}#chart-67e29dfd-6011-47ad-92fc-ee4a975133b6 .title{fill:rgba(0,0,0,1)}#chart-67e29dfd-6011-47ad-92fc-ee4a975133b6 .legends .legend text{fill:rgba(0,0,0,.87)}#chart-67e29dfd-6011-47ad-92fc-ee4a975133b6 .legends .legend:hover text{fill:rgba(0,0,0,1)}#chart-67e29dfd-6011-47ad-92fc-ee4a975133b6 .axis .line{stroke:rgba(0,0,0,1)}#chart-67e29dfd-6011-47ad-92fc-ee4a975133b6 .axis .guide.line{stroke:rgba(0,0,0,.54)}#chart-67e29dfd-6011-47ad-92fc-ee4a975133b6 .axis .major.line{stroke:rgba(0,0,0,.87)}#chart-67e29dfd-6011-47ad-92fc-ee4a975133b6 .axis text.major{fill:rgba(0,0,0,1)}#chart-67e29dfd-6011-47ad-92fc-ee4a975133b6 .axis.y .guides:hover .guide.line,#chart-67e29dfd-6011-47ad-92fc-ee4a975133b6 .line-graph .axis.x .guides:hover .guide.line,#chart-67e29dfd-6011-47ad-92fc-ee4a975133b6 .stackedline-graph .axis.x .guides:hover .guide.line,#chart-67e29dfd-6011-47ad-92fc-ee4a975133b6 .xy-graph .axis.x .guides:hover .guide.line{stroke:rgba(0,0,0,1)}#chart-67e29dfd-6011-47ad-92fc-ee4a975133b6 .axis .guides:hover text{fill:rgba(0,0,0,1)}#chart-67e29dfd-6011-47ad-92fc-ee4a975133b6 .reactive{fill-opacity:.7;stroke-opacity:.8}#chart-67e29dfd-6011-47ad-92fc-ee4a975133b6 .ci{stroke:rgba(0,0,0,.87)}#chart-67e29dfd-6011-47ad-92fc-ee4a975133b6 .reactive.active,#chart-67e29dfd-6011-47ad-92fc-ee4a975133b6 .active .reactive{fill-opacity:.8;stroke-opacity:.9;stroke-width:4}#chart-67e29dfd-6011-47ad-92fc-ee4a975133b6 .ci .reactive.active{stroke-width:1.5}#chart-67e29dfd-6011-47ad-92fc-ee4a975133b6 .series text{fill:rgba(0,0,0,1)}#chart-67e29dfd-6011-47ad-92fc-ee4a975133b6 .tooltip rect{fill:rgba(255,255,255,1);stroke:rgba(0,0,0,1);-webkit-transition:opacity 150ms;-moz-transition:opacity 150ms;transition:opacity 150ms}#chart-67e29dfd-6011-47ad-92fc-ee4a975133b6 .tooltip .label{fill:rgba(0,0,0,.87)}#chart-67e29dfd-6011-47ad-92fc-ee4a975133b6 .tooltip .label{fill:rgba(0,0,0,.87)}#chart-67e29dfd-6011-47ad-92fc-ee4a975133b6 .tooltip .legend{font-size:.8em;fill:rgba(0,0,0,.54)}#chart-67e29dfd-6011-47ad-92fc-ee4a975133b6 .tooltip .x_label{font-size:.6em;fill:rgba(0,0,0,1)}#chart-67e29dfd-6011-47ad-92fc-ee4a975133b6 .tooltip .xlink{font-size:.5em;text-decoration:underline}#chart-67e29dfd-6011-47ad-92fc-ee4a975133b6 .tooltip .value{font-size:1.5em}#chart-67e29dfd-6011-47ad-92fc-ee4a975133b6 .bound{font-size:.5em}#chart-67e29dfd-6011-47ad-92fc-ee4a975133b6 .max-value{font-size:.75em;fill:rgba(0,0,0,.54)}#chart-67e29dfd-6011-47ad-92fc-ee4a975133b6 .map-element{fill:rgba(255,255,255,1);stroke:rgba(0,0,0,.54) !important}#chart-67e29dfd-6011-47ad-92fc-ee4a975133b6 .map-element .reactive{fill-opacity:inherit;stroke-opacity:inherit}#chart-67e29dfd-6011-47ad-92fc-ee4a975133b6 .color-0,#chart-67e29dfd-6011-47ad-92fc-ee4a975133b6 .color-0 a:visited{stroke:#F44336;fill:#F44336}#chart-67e29dfd-6011-47ad-92fc-ee4a975133b6 .text-overlay .color-0 text{fill:black}
#chart-67e29dfd-6011-47ad-92fc-ee4a975133b6 text.no_data{text-anchor:middle}#chart-67e29dfd-6011-47ad-92fc-ee4a975133b6 .guide.line{fill:none}#chart-67e29dfd-6011-47ad-92fc-ee4a975133b6 .centered{text-anchor:middle}#chart-67e29dfd-6011-47ad-92fc-ee4a975133b6 .title{text-anchor:middle}#chart-67e29dfd-6011-47ad-92fc-ee4a975133b6 .legends .legend text{fill-opacity:1}#chart-67e29dfd-6011-47ad-92fc-ee4a975133b6 .axis.x text{text-anchor:middle}#chart-67e29dfd-6011-47ad-92fc-ee4a975133b6 .axis.x:not(.web) text[transform]{text-anchor:start}#chart-67e29dfd-6011-47ad-92fc-ee4a975133b6 .axis.x:not(.web) text[transform].backwards{text-anchor:end}#chart-67e29dfd-6011-47ad-92fc-ee4a975133b6 .axis.y text{text-anchor:end}#chart-67e29dfd-6011-47ad-92fc-ee4a975133b6 .axis.y text[transform].backwards{text-anchor:start}#chart-67e29dfd-6011-47ad-92fc-ee4a975133b6 .axis.y2 text{text-anchor:start}#chart-67e29dfd-6011-47ad-92fc-ee4a975133b6 .axis.y2 text[transform].backwards{text-anchor:end}#chart-67e29dfd-6011-47ad-92fc-ee4a975133b6 .axis .guide.line{stroke-dasharray:4,4}#chart-67e29dfd-6011-47ad-92fc-ee4a975133b6 .axis .major.guide.line{stroke-dasharray:6,6}#chart-67e29dfd-6011-47ad-92fc-ee4a975133b6 .horizontal .axis.y .guide.line,#chart-67e29dfd-6011-47ad-92fc-ee4a975133b6 .horizontal .axis.y2 .guide.line,#chart-67e29dfd-6011-47ad-92fc-ee4a975133b6 .vertical .axis.x .guide.line{opacity:0}#chart-67e29dfd-6011-47ad-92fc-ee4a975133b6 .horizontal .axis.always_show .guide.line,#chart-67e29dfd-6011-47ad-92fc-ee4a975133b6 .vertical .axis.always_show .guide.line{opacity:1 !important}#chart-67e29dfd-6011-47ad-92fc-ee4a975133b6 .axis.y .guides:hover .guide.line,#chart-67e29dfd-6011-47ad-92fc-ee4a975133b6 .axis.y2 .guides:hover .guide.line,#chart-67e29dfd-6011-47ad-92fc-ee4a975133b6 .axis.x .guides:hover .guide.line{opacity:1}#chart-67e29dfd-6011-47ad-92fc-ee4a975133b6 .axis .guides:hover text{opacity:1}#chart-67e29dfd-6011-47ad-92fc-ee4a975133b6 .nofill{fill:none}#chart-67e29dfd-6011-47ad-92fc-ee4a975133b6 .subtle-fill{fill-opacity:.2}#chart-67e29dfd-6011-47ad-92fc-ee4a975133b6 .dot{stroke-width:1px;fill-opacity:1}#chart-67e29dfd-6011-47ad-92fc-ee4a975133b6 .dot.active{stroke-width:5px}#chart-67e29dfd-6011-47ad-92fc-ee4a975133b6 .dot.negative{fill:transparent}#chart-67e29dfd-6011-47ad-92fc-ee4a975133b6 text,#chart-67e29dfd-6011-47ad-92fc-ee4a975133b6 tspan{stroke:none !important}#chart-67e29dfd-6011-47ad-92fc-ee4a975133b6 .series text.active{opacity:1}#chart-67e29dfd-6011-47ad-92fc-ee4a975133b6 .tooltip rect{fill-opacity:.95;stroke-width:.5}#chart-67e29dfd-6011-47ad-92fc-ee4a975133b6 .tooltip text{fill-opacity:1}#chart-67e29dfd-6011-47ad-92fc-ee4a975133b6 .showable{visibility:hidden}#chart-67e29dfd-6011-47ad-92fc-ee4a975133b6 .showable.shown{visibility:visible}#chart-67e29dfd-6011-47ad-92fc-ee4a975133b6 .gauge-background{fill:rgba(229,229,229,1);stroke:none}#chart-67e29dfd-6011-47ad-92fc-ee4a975133b6 .bg-lines{stroke:rgba(249,249,249,1);stroke-width:2px}</style><script type="text/javascript">window.pygal = window.pygal || {};window.pygal.config = window.pygal.config || {};window.pygal.config['67e29dfd-6011-47ad-92fc-ee4a975133b6'] = {"allow_interruptions": false, "box_mode": "extremes", "classes": ["pygal-chart"], "css": ["file://style.css", "file://graph.css"], "defs": [], "disable_xml_declaration": false, "dots_size": 2.5, "dynamic_print_values": false, "explicit_size": false, "fill": false, "force_uri_protocol": "https", "formatter": null, "half_pie": false, "height": 600, "include_x_axis": false, "inner_radius": 0, "interpolate": "cubic", "interpolation_parameters": {}, "interpolation_precision": 250, "inverse_y_axis": false, "js": ["//kozea.github.io/pygal.js/2.0.x/pygal-tooltips.min.js"], "legend_at_bottom": false, "legend_at_bottom_columns": null, "legend_box_size": 12, "logarithmic": false, "margin": 20, "margin_bottom": null, "margin_left": null, "margin_right": null, "margin_top": null, "max_scale": 16, "min_scale": 4, "missing_value_fill_truncation": "x", "no_data_text": "No data", "no_prefix": false, "order_min": null, "pretty_print": false, "print_labels": false, "print_values": true, "print_values_position": "center", "print_zeroes": true, "range": null, "rounded_bars": null, "secondary_range": null, "show_dots": true, "show_legend": true, "show_minor_x_labels": true, "show_minor_y_labels": true, "show_only_major_dots": false, "show_x_guides": false, "show_x_labels": true, "show_y_guides": true, "show_y_labels": true, "spacing": 10, "stack_from_top": false, "strict": false, "stroke": true, "stroke_style": null, "style": {"background": "rgba(249, 249, 249, 1)", "ci_colors": [], "colors": ["#F44336", "#3F51B5", "#009688", "#FFC107", "#FF5722", "#9C27B0", "#03A9F4", "#8BC34A", "#FF9800", "#E91E63", "#2196F3", "#4CAF50", "#FFEB3B", "#673AB7", "#00BCD4", "#CDDC39", "#9E9E9E", "#607D8B"], "font_family": "Consolas, \"Liberation Mono\", Menlo, Courier, monospace", "foreground": "rgba(0, 0, 0, .87)", "foreground_strong": "rgba(0, 0, 0, 1)", "foreground_subtle": "rgba(0, 0, 0, .54)", "guide_stroke_dasharray": "4,4", "label_font_family": "Consolas, \"Liberation Mono\", Menlo, Courier, monospace", "label_font_size": 10, "legend_font_family": "Consolas, \"Liberation Mono\", Menlo, Courier, monospace", "legend_font_size": 14, "major_guide_stroke_dasharray": "6,6", "major_label_font_family": "Consolas, \"Liberation Mono\", Menlo, Courier, monospace", "major_label_font_size": 10, "no_data_font_family": "Consolas, \"Liberation Mono\", Menlo, Courier, monospace", "no_data_font_size": 64, "opacity": ".7", "opacity_hover": ".8", "plot_background": "rgba(255, 255, 255, 1)", "stroke_opacity": ".8", "stroke_opacity_hover": ".9", "title_font_family": "Consolas, \"Liberation Mono\", Menlo, Courier, monospace", "title_font_size": 16, "tooltip_font_family": "Consolas, \"Liberation Mono\", Menlo, Courier, monospace", "tooltip_font_size": 14, "transition": "150ms", "value_background": "rgba(229, 229, 229, 1)", "value_colors": [], "value_font_family": "Consolas, \"Liberation Mono\", Menlo, Courier, monospace", "value_font_size": 16, "value_label_font_family": "Consolas, \"Liberation Mono\", Menlo, Courier, monospace", "value_label_font_size": 10}, "title": "COVID-19 | Mato Grosso do Sul\n Fonte: jhoonb.github.io/corona", "tooltip_border_radius": 0, "tooltip_fancy_mode": true, "truncate_label": null, "truncate_legend": null, "width": 800, "x_label_rotation": 90, "x_labels": ["28-02-2020", "10-03-2020", "17-03-2020", "24-03-2020", "31-03-2020", "07-04-2020", "14-04-2020", "21-04-2020", "28-04-2020", "05-05-2020"], "x_labels_major": null, "x_labels_major_count": null, "x_labels_major_every": null, "x_title": null, "xrange": null, "y_label_rotation": 0, "y_labels": null, "y_labels_major": null, "y_labels_major_count": null, "y_labels_major_every": null, "y_title": null, "zero": 0, "legends": ["\u00d3bito"]}</script><script type="text/javascript" xlink:href="https://kozea.github.io/pygal.js/2.0.x/pygal-tooltips.min.js"/></defs><title>COVID-19 | Mato Grosso do Sul
 Fonte: jhoonb.github.io/corona</title><g class="graph line-graph vertical"><rect x="0" y="0" width="800" height="600" class="background"/><g transform="translate(106, 72)" class="plot"><rect x="0" y="0" width="674.0" height="438.0" class="background"/><g class="axis y always_show"><g class="guides"><path d="M0.000000 425.742376 h674.000000" class="axis major line"/><text x="-5" y="429.242375509413" class="major">0</text><title>0</title></g><g class="guides"><path d="M0.000000 384.010446 h674.000000" class="guide line"/><text x="-5" y="387.5104456507794" class="">1</text><title>1</title></g><g class="guides"><path d="M0.000000 342.278516 h674.000000" class="guide line"/><text x="-5" y="345.7785157921458" class="">2</text><title>2</title></g><g class="guides"><path d="M0.000000 300.546586 h674.000000" class="guide line"/><text x="-5" y="304.04658593351223" class="">3</text><title>3</title></g><g class="guides"><path d="M0.000000 258.814656 h674.000000" class="guide line"/><text x="-5" y="262.3146560748786" class="">4</text><title>4</title></g><g class="guides"><path d="M0.000000 217.082726 h674.000000" class="major guide line"/><text x="-5" y="220.582726216245" class="major">5</text><title>5</title></g><g class="guides"><path d="M0.000000 175.350796 h674.000000" class="guide line"/><text x="-5" y="178.8507963576114" class="">6</text><title>6</title></g><g class="guides"><path d="M0.000000 133.618866 h674.000000" class="guide line"/><text x="-5" y="137.11886649897775" class="">7</text><title>7</title></g><g class="guides"><path d="M0.000000 91.886937 h674.000000" class="guide line"/><text x="-5" y="95.38693664034412" class="">8</text><title>8</title></g><g class="guides"><path d="M0.000000 50.155007 h674.000000" class="guide line"/><text x="-5" y="53.65500678171054" class="">9</text><title>9</title></g><g class="guides"><path d="M0.000000 8.423077 h674.000000" class="major guide line"/><text x="-5" y="11.923076923076906" class="major">10</text><title>10</title></g></g><g class="axis x"><g class="guides"><path d="M12.961538 0.000000 v438.000000" class="line"/><text x="12.961538461538462" y="453.0" class="" transform="rotate(90 12.961538 453.000000)">28-02-2020</text></g><g class="guides"><path d="M84.970085 0.000000 v438.000000" class="guide line"/><text x="84.97008547008545" y="453.0" class="" transform="rotate(90 84.970085 453.000000)">10-03-2020</text></g><g class="guides"><path d="M156.978632 0.000000 v438.000000" class="guide line"/><text x="156.97863247863245" y="453.0" class="" transform="rotate(90 156.978632 453.000000)">17-03-2020</text></g><g class="guides"><path d="M228.987179 0.000000 v438.000000" class="guide line"/><text x="228.98717948717947" y="453.0" class="" transform="rotate(90 228.987179 453.000000)">24-03-2020</text></g><g class="guides"><path d="M300.995726 0.000000 v438.000000" class="guide line"/><text x="300.9957264957265" y="453.0" class="" transform="rotate(90 300.995726 453.000000)">31-03-2020</text></g><g class="guides"><path d="M373.004274 0.000000 v438.000000" class="guide line"/><text x="373.0042735042735" y="453.0" class="" transform="rotate(90 373.004274 453.000000)">07-04-2020</text></g><g class="guides"><path d="M445.012821 0.000000 v438.000000" class="guide line"/><text x="445.0128205128205" y="453.0" class="" transform="rotate(90 445.012821 453.000000)">14-04-2020</text></g><g class="guides"><path d="M517.021368 0.000000 v438.000000" class="guide line"/><text x="517.0213675213674" y="453.0" class="" transform="rotate(90 517.021368 453.000000)">21-04-2020</text></g><g class="guides"><path d="M589.029915 0.000000 v438.000000" class="guide line"/><text x="589.0299145299145" y="453.0" class="" transform="rotate(90 589.029915 453.000000)">28-04-2020</text></g><g class="guides"><path d="M661.038462 0.000000 v438.000000" class="guide line"/><text x="661.0384615384615" y="453.0" class="" transform="rotate(90 661.038462 453.000000)">05-05-2020</text></g></g><g class="series serie-0 color-0"><path d="M12.961538 425.742376 L13.249573 425.745842 13.537607 425.749308 13.825641 425.752774 14.113675 425.756238 14.401709 425.759702 14.689744 425.763163 14.977778 425.766623 15.265812 425.770080 15.553846 425.773534 15.841880 425.776986 16.129915 425.780434 16.417949 425.783879 16.705983 425.787319 16.994017 425.790756 17.282051 425.794187 17.570085 425.797614 17.858120 425.801035 18.146154 425.804451 18.434188 425.807860 18.722222 425.811264 19.010256 425.814660 19.298291 425.818050 19.586325 425.821432 19.874359 425.824807 20.162393 425.828174 20.450427 425.831532 20.738462 425.834882 21.026496 425.838223 21.314530 425.841554 21.602564 425.844876 21.890598 425.848188 22.178632 425.851489 22.466667 425.854780 22.754701 425.858060 23.042735 425.861328 23.330769 425.864585 23.618803 425.867830 23.906838 425.871063 24.194872 425.874283 24.482906 425.877490 24.770940 425.880683 25.058974 425.883863 25.347009 425.887029 25.635043 425.890181 25.923077 425.893318 26.211111 425.896440 26.499145 425.899547 26.787179 425.902638 27.075214 425.905713 27.363248 425.908772 27.651282 425.911814 27.939316 425.914840 28.227350 425.917848 28.515385 425.920838 28.803419 425.923810 29.091453 425.926764 29.379487 425.929700 29.667521 425.932616 29.955556 425.935513 30.243590 425.938391 30.531624 425.941248 30.819658 425.944085 31.107692 425.946902 31.395726 425.949698 31.683761 425.952472 31.971795 425.955225 32.259829 425.957955 32.547863 425.960664 32.835897 425.963350 33.123932 425.966013 33.411966 425.968652 33.700000 425.971268 33.988034 425.973860 34.276068 425.976428 34.564103 425.978971 34.852137 425.981489 35.140171 425.983982 35.428205 425.986449 35.716239 425.988890 36.004274 425.991305 36.292308 425.993693 36.580342 425.996054 36.868376 425.998389 37.156410 426.000695 37.444444 426.002973 37.732479 426.005224 38.020513 426.007445 38.308547 426.009638 38.596581 426.011801 38.884615 426.013935 39.172650 426.016039 39.460684 426.018112 39.748718 426.020155 40.036752 426.022167 40.324786 426.024147 40.612821 426.026096 40.900855 426.028013 41.188889 426.029898 41.476923 426.031750 41.764957 426.033570 42.052991 426.035356 42.341026 426.037108 42.629060 426.038826 42.917094 426.040510 43.205128 426.042160 43.493162 426.043774 43.781197 426.045354 44.069231 426.046897 44.357265 426.048405 44.645299 426.049876 44.933333 426.051311 45.221368 426.052709 45.509402 426.054070 45.797436 426.055393 46.085470 426.056678 46.373504 426.057925 46.661538 426.059133 46.949573 426.060302 47.237607 426.061432 47.525641 426.062523 47.813675 426.063573 48.101709 426.064583 48.389744 426.065553 48.677778 426.066482 48.965812 426.067369 49.253846 426.068215 49.541880 426.069019 49.829915 426.069780 50.117949 426.070499 50.405983 426.071175 50.694017 426.071808 50.982051 426.072397 51.270085 426.072943 51.558120 426.073444 51.846154 426.073900 52.134188 426.074311 52.422222 426.074678 52.710256 426.074998 52.998291 426.075273 53.286325 426.075502 53.574359 426.075683 53.862393 426.075818 54.150427 426.075906 54.438462 426.075946 54.726496 426.075938 55.014530 426.075882 55.302564 426.075778 55.590598 426.075624 55.878632 426.075421 56.166667 426.075169 56.454701 426.074866 56.742735 426.074514 57.030769 426.074111 57.318803 426.073657 57.606838 426.073151 57.894872 426.072594 58.182906 426.071985 58.470940 426.071324 58.758974 426.070611 59.047009 426.069844 59.335043 426.069024 59.623077 426.068151 59.911111 426.067223 60.199145 426.066242 60.487179 426.065206 60.775214 426.064115 61.063248 426.062968 61.351282 426.061766 61.639316 426.060509 61.927350 426.059195 62.215385 426.057824 62.503419 426.056397 62.791453 426.054912 63.079487 426.053369 63.367521 426.051769 63.655556 426.050111 63.943590 426.048394 64.231624 426.046618 64.519658 426.044783 64.807692 426.042888 65.095726 426.040933 65.383761 426.038918 65.671795 426.036843 65.959829 426.034706 66.247863 426.032509 66.535897 426.030250 66.823932 426.027929 67.111966 426.025545 67.400000 426.023099 67.688034 426.020591 67.976068 426.018019 68.264103 426.015383 68.552137 426.012684 68.840171 426.009920 69.128205 426.007092 69.416239 426.004199 69.704274 426.001240 69.992308 425.998216 70.280342 425.995126 70.568376 425.991970 70.856410 425.988748 71.144444 425.985458 71.432479 425.982102 71.720513 425.978677 72.008547 425.975185 72.296581 425.971625 72.584615 425.967996 72.872650 425.964298 73.160684 425.960531 73.448718 425.956694 73.736752 425.952788 74.024786 425.948811 74.312821 425.944764 74.600855 425.940646 74.888889 425.936456 75.176923 425.932195 75.464957 425.927863 75.752991 425.923458 76.041026 425.918980 76.329060 425.914430 76.617094 425.909806 76.905128 425.905109 77.193162 425.900338 77.481197 425.895492 77.769231 425.890572 78.057265 425.885578 78.345299 425.880508 78.633333 425.875362 78.921368 425.870141 79.209402 425.864843 79.497436 425.859469 79.785470 425.854018 80.073504 425.848490 80.361538 425.842884 80.649573 425.837201 80.937607 425.831439 81.225641 425.825599 81.513675 425.819679 81.801709 425.813681 82.089744 425.807603 82.377778 425.801445 82.665812 425.795207 82.953846 425.788889 83.241880 425.782489 83.529915 425.776008 83.817949 425.769446 84.105983 425.762802 84.394017 425.756076 84.682051 425.749267 84.970085 425.742376 85.258120 425.735401 85.546154 425.728345 85.834188 425.721209 86.122222 425.713995 86.410256 425.706704 86.698291 425.699339 86.986325 425.691900 87.274359 425.684390 87.562393 425.676809 87.850427 425.669161 88.138462 425.661446 88.426496 425.653666 88.714530 425.645823 89.002564 425.637918 89.290598 425.629954 89.578632 425.621931 89.866667 425.613852 90.154701 425.605717 90.442735 425.597530 90.730769 425.589291 91.018803 425.581002 91.306838 425.572664 91.594872 425.564280 91.882906 425.555852 92.170940 425.547379 92.458974 425.538866 92.747009 425.530312 93.035043 425.521720 93.323077 425.513092 93.611111 425.504428 93.899145 425.495732 94.187179 425.487003 94.475214 425.478245 94.763248 425.469458 95.051282 425.460645 95.339316 425.451807 95.627350 425.442946 95.915385 425.434063 96.203419 425.425160 96.491453 425.416238 96.779487 425.407300 97.067521 425.398347 97.355556 425.389381 97.643590 425.380403 97.931624 425.371415 98.219658 425.362419 98.507692 425.353416 98.795726 425.344408 99.083761 425.335397 99.371795 425.326384 99.659829 425.317371 99.947863 425.308360 100.235897 425.299352 100.523932 425.290349 100.811966 425.281353 101.100000 425.272365 101.388034 425.263387 101.676068 425.254421 101.964103 425.245468 102.252137 425.236530 102.540171 425.227608 102.828205 425.218705 103.116239 425.209822 103.404274 425.200961 103.692308 425.192123 103.980342 425.183310 104.268376 425.174523 104.556410 425.165765 104.844444 425.157036 105.132479 425.148340 105.420513 425.139676 105.708547 425.131048 105.996581 425.122456 106.284615 425.113902 106.572650 425.105388 106.860684 425.096916 107.148718 425.088488 107.436752 425.080104 107.724786 425.071766 108.012821 425.063477 108.300855 425.055238 108.588889 425.047051 108.876923 425.038916 109.164957 425.030837 109.452991 425.022814 109.741026 425.014850 110.029060 425.006945 110.317094 424.999102 110.605128 424.991322 110.893162 424.983607 111.181197 424.975959 111.469231 424.968378 111.757265 424.960868 112.045299 424.953429 112.333333 424.946064 112.621368 424.938773 112.909402 424.931559 113.197436 424.924423 113.485470 424.917367 113.773504 424.910392 114.061538 424.903501 114.349573 424.896695 114.637607 424.889975 114.925641 424.883343 115.213675 424.876801 115.501709 424.870351 115.789744 424.863994 116.077778 424.857731 116.365812 424.851565 116.653846 424.845498 116.941880 424.839530 117.229915 424.833664 117.517949 424.827900 117.805983 424.822242 118.094017 424.816690 118.382051 424.811247 118.670085 424.805913 118.958120 424.800690 119.246154 424.795581 119.534188 424.790587 119.822222 424.785709 120.110256 424.780949 120.398291 424.776309 120.686325 424.771791 120.974359 424.767395 121.262393 424.763125 121.550427 424.758981 121.838462 424.754965 122.126496 424.751078 122.414530 424.747324 122.702564 424.743702 122.990598 424.740215 123.278632 424.736865 123.566667 424.733653 123.854701 424.730580 124.142735 424.727649 124.430769 424.724861 124.718803 424.722218 125.006838 424.719721 125.294872 424.717372 125.582906 424.715173 125.870940 424.713126 126.158974 424.711232 126.447009 424.709492 126.735043 424.707909 127.023077 424.706483 127.311111 424.705218 127.599145 424.704114 127.887179 424.703173 128.175214 424.702397 128.463248 424.701787 128.751282 424.701345 129.039316 424.701073 129.327350 424.700972 129.615385 424.701045 129.903419 424.701292 130.191453 424.701715 130.479487 424.702317 130.767521 424.703098 131.055556 424.704061 131.343590 424.705206 131.631624 424.706537 131.919658 424.708053 132.207692 424.709758 132.495726 424.711652 132.783761 424.713738 133.071795 424.716017 133.359829 424.718491 133.647863 424.721160 133.935897 424.724028 134.223932 424.727096 134.511966 424.730365 134.800000 424.733836 135.088034 424.737513 135.376068 424.741396 135.664103 424.745487 135.952137 424.749787 136.240171 424.754299 136.528205 424.759024 136.816239 424.763963 137.104274 424.769119 137.392308 424.774493 137.680342 424.780086 137.968376 424.785901 138.256410 424.791939 138.544444 424.798201 138.832479 424.804690 139.120513 424.811406 139.408547 424.818353 139.696581 424.825530 139.984615 424.832941 140.272650 424.840586 140.560684 424.848467 140.848718 424.856586 141.136752 424.864945 141.424786 424.873546 141.712821 424.882389 142.000855 424.891476 142.288889 424.900810 142.576923 424.910392 142.864957 424.920224 143.152991 424.930307 143.441026 424.940643 143.729060 424.951233 144.017094 424.962079 144.305128 424.973184 144.593162 424.984548 144.881197 424.996173 145.169231 425.008061 145.457265 425.020214 145.745299 425.032633 146.033333 425.045320 146.321368 425.058277 146.609402 425.071504 146.897436 425.085005 147.185470 425.098780 147.473504 425.112831 147.761538 425.127161 148.049573 425.141769 148.337607 425.156659 148.625641 425.171832 148.913675 425.187290 149.201709 425.203033 149.489744 425.219065 149.777778 425.235386 150.065812 425.251998 150.353846 425.268903 150.641880 425.286103 150.929915 425.303598 151.217949 425.321392 151.505983 425.339485 151.794017 425.357880 152.082051 425.376577 152.370085 425.395578 152.658120 425.414886 152.946154 425.434502 153.234188 425.454427 153.522222 425.474663 153.810256 425.495212 154.098291 425.516076 154.386325 425.537256 154.674359 425.558754 154.962393 425.580571 155.250427 425.602709 155.538462 425.625170 155.826496 425.647955 156.114530 425.671067 156.402564 425.694507 156.690598 425.718275 156.978632 425.742376 157.266667 425.766807 157.554701 425.791565 157.842735 425.816643 158.130769 425.842035 158.418803 425.867735 158.706838 425.893735 158.994872 425.920031 159.282906 425.946615 159.570940 425.973481 159.858974 426.000623 160.147009 426.028035 160.435043 426.055710 160.723077 426.083641 161.011111 426.111824 161.299145 426.140251 161.587179 426.168915 161.875214 426.197812 162.163248 426.226933 162.451282 426.256274 162.739316 426.285827 163.027350 426.315586 163.315385 426.345546 163.603419 426.375699 163.891453 426.406040 164.179487 426.436561 164.467521 426.467258 164.755556 426.498122 165.043590 426.529149 165.331624 426.560332 165.619658 426.591664 165.907692 426.623139 166.195726 426.654751 166.483761 426.686493 166.771795 426.718360 167.059829 426.750344 167.347863 426.782440 167.635897 426.814640 167.923932 426.846940 168.211966 426.879332 168.500000 426.911811 168.788034 426.944369 169.076068 426.977001 169.364103 427.009700 169.652137 427.042460 169.940171 427.075275 170.228205 427.108138 170.516239 427.141042 170.804274 427.173983 171.092308 427.206952 171.380342 427.239945 171.668376 427.272954 171.956410 427.305974 172.244444 427.338997 172.532479 427.372019 172.820513 427.405031 173.108547 427.438029 173.396581 427.471005 173.684615 427.503954 173.972650 427.536869 174.260684 427.569743 174.548718 427.602571 174.836752 427.635346 175.124786 427.668062 175.412821 427.700712 175.700855 427.733290 175.988889 427.765790 176.276923 427.798206 176.564957 427.830531 176.852991 427.862758 177.141026 427.894882 177.429060 427.926896 177.717094 427.958794 178.005128 427.990570 178.293162 428.022217 178.581197 428.053728 178.869231 428.085099 179.157265 428.116321 179.445299 428.147390 179.733333 428.178298 180.021368 428.209039 180.309402 428.239607 180.597436 428.269996 180.885470 428.300199 181.173504 428.330210 181.461538 428.360023 181.749573 428.389631 182.037607 428.419028 182.325641 428.448208 182.613675 428.477164 182.901709 428.505890 183.189744 428.534380 183.477778 428.562628 183.765812 428.590626 184.053846 428.618369 184.341880 428.645851 184.629915 428.673064 184.917949 428.700004 185.205983 428.726663 185.494017 428.753035 185.782051 428.779114 186.070085 428.804893 186.358120 428.830367 186.646154 428.855528 186.934188 428.880371 187.222222 428.904889 187.510256 428.929076 187.798291 428.952925 188.086325 428.976431 188.374359 428.999586 188.662393 429.022386 188.950427 429.044822 189.238462 429.066889 189.526496 429.088581 189.814530 429.109892 190.102564 429.130814 190.390598 429.151342 190.678632 429.171469 190.966667 429.191189 191.254701 429.210496 191.542735 429.229383 191.830769 429.247844 192.118803 429.265873 192.406838 429.283463 192.694872 429.300609 192.982906 429.317303 193.270940 429.333539 193.558974 429.349312 193.847009 429.364614 194.135043 429.379440 194.423077 429.393783 194.711111 429.407636 194.999145 429.420995 195.287179 429.433851 195.575214 429.446199 195.863248 429.458033 196.151282 429.469346 196.439316 429.480131 196.727350 429.490383 197.015385 429.500096 197.303419 429.509262 197.591453 429.517876 197.879487 429.525931 198.167521 429.533421 198.455556 429.540340 198.743590 429.546680 199.031624 429.552437 199.319658 429.557604 199.607692 429.562174 199.895726 429.566140 200.183761 429.569498 200.471795 429.572239 200.759829 429.574359 201.047863 429.575850 201.335897 429.576707 201.623932 429.576923 201.911966 429.576492 202.200000 429.575407 202.488034 429.573662 202.776068 429.571250 203.064103 429.568166 203.352137 429.564404 203.640171 429.559956 203.928205 429.554816 204.216239 429.548979 204.504274 429.542437 204.792308 429.535185 205.080342 429.527216 205.368376 429.518524 205.656410 429.509103 205.944444 429.498945 206.232479 429.488046 206.520513 429.476398 206.808547 429.463995 207.096581 429.450832 207.384615 429.436900 207.672650 429.422195 207.960684 429.406710 208.248718 429.390439 208.536752 429.373375 208.824786 429.355512 209.112821 429.336843 209.400855 429.317363 209.688889 429.297065 209.976923 429.275942 210.264957 429.253989 210.552991 429.231199 210.841026 429.207565 211.129060 429.183082 211.417094 429.157743 211.705128 429.131542 211.993162 429.104472 212.281197 429.076527 212.569231 429.047701 212.857265 429.017987 213.145299 428.987380 213.433333 428.955872 213.721368 428.923458 214.009402 428.890131 214.297436 428.855885 214.585470 428.820713 214.873504 428.784609 215.161538 428.747568 215.449573 428.709581 215.737607 428.670644 216.025641 428.630750 216.313675 428.589893 216.601709 428.548066 216.889744 428.505262 217.177778 428.461476 217.465812 428.416702 217.753846 428.370932 218.041880 428.324161 218.329915 428.276383 218.617949 428.227590 218.905983 428.177777 219.194017 428.126937 219.482051 428.075065 219.770085 428.022153 220.058120 427.968195 220.346154 427.913186 220.634188 427.857118 220.922222 427.799985 221.210256 427.741782 221.498291 427.682501 221.786325 427.622137 222.074359 427.560683 222.362393 427.498133 222.650427 427.434480 222.938462 427.369718 223.226496 427.303841 223.514530 427.236843 223.802564 427.168717 224.090598 427.099456 224.378632 427.029055 224.666667 426.957508 224.954701 426.884807 225.242735 426.810946 225.530769 426.735920 225.818803 426.659722 226.106838 426.582346 226.394872 426.503784 226.682906 426.424032 226.970940 426.343082 227.258974 426.260929 227.547009 426.177565 227.835043 426.092985 228.123077 426.007183 228.411111 425.920151 228.699145 425.831884 228.987179 425.742376 229.275214 425.651621 229.563248 425.559627 229.851282 425.466399 230.139316 425.371947 230.427350 425.276277 230.715385 425.179397 231.003419 425.081314 231.291453 424.982037 231.579487 424.881573 231.867521 424.779929 232.155556 424.677113 232.443590 424.573133 232.731624 424.467996 233.019658 424.361710 233.307692 424.254283 233.595726 424.145721 233.883761 424.036033 234.171795 423.925227 234.459829 423.813309 234.747863 423.700288 235.035897 423.586171 235.323932 423.470966 235.611966 423.354680 235.900000 423.237321 236.188034 423.118896 236.476068 422.999414 236.764103 422.878881 237.052137 422.757305 237.340171 422.634695 237.628205 422.511057 237.916239 422.386399 238.204274 422.260728 238.492308 422.134054 238.780342 422.006382 239.068376 421.877720 239.356410 421.748077 239.644444 421.617459 239.932479 421.485875 240.220513 421.353332 240.508547 421.219837 240.796581 421.085399 241.084615 420.950024 241.372650 420.813721 241.660684 420.676496 241.948718 420.538358 242.236752 420.399315 242.524786 420.259373 242.812821 420.118540 243.100855 419.976824 243.388889 419.834234 243.676923 419.690775 243.964957 419.546456 244.252991 419.401284 244.541026 419.255267 244.829060 419.108413 245.117094 418.960730 245.405128 418.812224 245.693162 418.662903 245.981197 418.512776 246.269231 418.361849 246.557265 418.210130 246.845299 418.057627 247.133333 417.904347 247.421368 417.750299 247.709402 417.595489 247.997436 417.439926 248.285470 417.283616 248.573504 417.126568 248.861538 416.968788 249.149573 416.810286 249.437607 416.651067 249.725641 416.491141 250.013675 416.330514 250.301709 416.169194 250.589744 416.007189 250.877778 415.844506 251.165812 415.681152 251.453846 415.517137 251.741880 415.352466 252.029915 415.187148 252.317949 415.021191 252.605983 414.854601 252.894017 414.687387 253.182051 414.519555 253.470085 414.351115 253.758120 414.182073 254.046154 414.012437 254.334188 413.842214 254.622222 413.671412 254.910256 413.500039 255.198291 413.328103 255.486325 413.155610 255.774359 412.982569 256.062393 412.808987 256.350427 412.634872 256.638462 412.460231 256.926496 412.285072 257.214530 412.109402 257.502564 411.933230 257.790598 411.756562 258.078632 411.579407 258.366667 411.401772 258.654701 411.223664 258.942735 411.045091 259.230769 410.866062 259.518803 410.686582 259.806838 410.506661 260.094872 410.326305 260.382906 410.145522 260.670940 409.964320 260.958974 409.782707 261.247009 409.600689 261.535043 409.418275 261.823077 409.235473 262.111111 409.052289 262.399145 408.868731 262.687179 408.684807 262.975214 408.500525 263.263248 408.315893 263.551282 408.130917 263.839316 407.945605 264.127350 407.759966 264.415385 407.574006 264.703419 407.387733 264.991453 407.201155 265.279487 407.014280 265.567521 406.827115 265.855556 406.639667 266.143590 406.451945 266.431624 406.263955 266.719658 406.075706 267.007692 405.887205 267.295726 405.698459 267.583761 405.509477 267.871795 405.320266 268.159829 405.130833 268.447863 404.941186 268.735897 404.751333 269.023932 404.561281 269.311966 404.371038 269.600000 404.180611 269.888034 403.990009 270.176068 403.799238 270.464103 403.608307 270.752137 403.417222 271.040171 403.225992 271.328205 403.034624 271.616239 402.843126 271.904274 402.651505 272.192308 402.459769 272.480342 402.267926 272.768376 402.075982 273.056410 401.883946 273.344444 401.691826 273.632479 401.499629 273.920513 401.307362 274.208547 401.115033 274.496581 400.922650 274.784615 400.730220 275.072650 400.537752 275.360684 400.345251 275.648718 400.152727 275.936752 399.960187 276.224786 399.767638 276.512821 399.575088 276.800855 399.382545 277.088889 399.190015 277.376923 398.997508 277.664957 398.805030 277.952991 398.612589 278.241026 398.420192 278.529060 398.227848 278.817094 398.035563 279.105128 397.843346 279.393162 397.651204 279.681197 397.459144 279.969231 397.267175 280.257265 397.075303 280.545299 396.883537 280.833333 396.691884 281.121368 396.500351 281.409402 396.308947 281.697436 396.117678 281.985470 395.926553 282.273504 395.735579 282.561538 395.544764 282.849573 395.354115 283.137607 395.163639 283.425641 394.973345 283.713675 394.783240 284.001709 394.593332 284.289744 394.403628 284.577778 394.214136 284.865812 394.024863 285.153846 393.835817 285.441880 393.647006 285.729915 393.458438 286.017949 393.270119 286.305983 393.082057 286.594017 392.894261 286.882051 392.706737 287.170085 392.519494 287.458120 392.332539 287.746154 392.145879 288.034188 391.959522 288.322222 391.773475 288.610256 391.587748 288.898291 391.402345 289.186325 391.217277 289.474359 391.032550 289.762393 390.848171 290.050427 390.664148 290.338462 390.480490 290.626496 390.297203 290.914530 390.114295 291.202564 389.931774 291.490598 389.749647 291.778632 389.567922 292.066667 389.386607 292.354701 389.205709 292.642735 389.025236 292.930769 388.845194 293.218803 388.665593 293.506838 388.486440 293.794872 388.307741 294.082906 388.129506 294.370940 387.951740 294.658974 387.774453 294.947009 387.597651 295.235043 387.421343 295.523077 387.245535 295.811111 387.070235 296.099145 386.895452 296.387179 386.721192 296.675214 386.547463 296.963248 386.374273 297.251282 386.201630 297.539316 386.029540 297.827350 385.858012 298.115385 385.687054 298.403419 385.516672 298.691453 385.346874 298.979487 385.177669 299.267521 385.009063 299.555556 384.841064 299.843590 384.673681 300.131624 384.506919 300.419658 384.340788 300.707692 384.175294 300.995726 384.010446 301.283761 383.846247 301.571795 383.682694 301.859829 383.519777 302.147863 383.357489 302.435897 383.195821 302.723932 383.034766 303.011966 382.874316 303.300000 382.714462 303.588034 382.555196 303.876068 382.396510 304.164103 382.238397 304.452137 382.080847 304.740171 381.923854 305.028205 381.767409 305.316239 381.611504 305.604274 381.456130 305.892308 381.301281 306.180342 381.146947 306.468376 380.993120 306.756410 380.839794 307.044444 380.686959 307.332479 380.534607 307.620513 380.382731 307.908547 380.231322 308.196581 380.080372 308.484615 379.929874 308.772650 379.779819 309.060684 379.630199 309.348718 379.481006 309.636752 379.332232 309.924786 379.183868 310.212821 379.035908 310.500855 378.888342 310.788889 378.741163 311.076923 378.594363 311.364957 378.447933 311.652991 378.301866 311.941026 378.156153 312.229060 378.010787 312.517094 377.865759 312.805128 377.721061 313.093162 377.576685 313.381197 377.432623 313.669231 377.288868 313.957265 377.145410 314.245299 377.002243 314.533333 376.859357 314.821368 376.716745 315.109402 376.574399 315.397436 376.432310 315.685470 376.290471 315.973504 376.148874 316.261538 376.007510 316.549573 375.866371 316.837607 375.725450 317.125641 375.584738 317.413675 375.444227 317.701709 375.303909 317.989744 375.163777 318.277778 375.023821 318.565812 374.884034 318.853846 374.744409 319.141880 374.604936 319.429915 374.465608 319.717949 374.326416 320.005983 374.187353 320.294017 374.048411 320.582051 373.909581 320.870085 373.770856 321.158120 373.632227 321.446154 373.493686 321.734188 373.355225 322.022222 373.216837 322.310256 373.078513 322.598291 372.940245 322.886325 372.802024 323.174359 372.663844 323.462393 372.525696 323.750427 372.387571 324.038462 372.249462 324.326496 372.111360 324.614530 371.973259 324.902564 371.835149 325.190598 371.697022 325.478632 371.558870 325.766667 371.420686 326.054701 371.282461 326.342735 371.144188 326.630769 371.005857 326.918803 370.867462 327.206838 370.728993 327.494872 370.590444 327.782906 370.451805 328.070940 370.313069 328.358974 370.174228 328.647009 370.035274 328.935043 369.896198 329.223077 369.756993 329.511111 369.617650 329.799145 369.478162 330.087179 369.338520 330.375214 369.198716 330.663248 369.058743 330.951282 368.918591 331.239316 368.778254 331.527350 368.637723 331.815385 368.496989 332.103419 368.356046 332.391453 368.214885 332.679487 368.073497 332.967521 367.931875 333.255556 367.790010 333.543590 367.647895 333.831624 367.505522 334.119658 367.362882 334.407692 367.219967 334.695726 367.076770 334.983761 366.933282 335.271795 366.789495 335.559829 366.645402 335.847863 366.500993 336.135897 366.356261 336.423932 366.211199 336.711966 366.065797 337.000000 365.920048 337.288034 365.773943 337.576068 365.627476 337.864103 365.480637 338.152137 365.333418 338.440171 365.185812 338.728205 365.037810 339.016239 364.889405 339.304274 364.740588 339.592308 364.591351 339.880342 364.441686 340.168376 364.291586 340.456410 364.141041 340.744444 363.990044 341.032479 363.838587 341.320513 363.686662 341.608547 363.534261 341.896581 363.381376 342.184615 363.227998 342.472650 363.074119 342.760684 362.919733 343.048718 362.764829 343.336752 362.609401 343.624786 362.453440 343.912821 362.296939 344.200855 362.139888 344.488889 361.982281 344.776923 361.824109 345.064957 361.665364 345.352991 361.506037 345.641026 361.346122 345.929060 361.185609 346.217094 361.024491 346.505128 360.862760 346.793162 360.700407 347.081197 360.537425 347.369231 360.373805 347.657265 360.209540 347.945299 360.044620 348.233333 359.879040 348.521368 359.712789 348.809402 359.545861 349.097436 359.378246 349.385470 359.209938 349.673504 359.040927 349.961538 358.871207 350.249573 358.700768 350.537607 358.529603 350.825641 358.357703 351.113675 358.185062 351.401709 358.011669 351.689744 357.837519 351.977778 357.662601 352.265812 357.486909 352.553846 357.310435 352.841880 357.133169 353.129915 356.955105 353.417949 356.776234 353.705983 356.596548 353.994017 356.416038 354.282051 356.234698 354.570085 356.052519 354.858120 355.869492 355.146154 355.685610 355.434188 355.500865 355.722222 355.315248 356.010256 355.128752 356.298291 354.941368 356.586325 354.753088 356.874359 354.563905 357.162393 354.373810 357.450427 354.182795 357.738462 353.990853 358.026496 353.797974 358.314530 353.604152 358.602564 353.409377 358.890598 353.213642 359.178632 353.016939 359.466667 352.819260 359.754701 352.620597 360.042735 352.420941 360.330769 352.220284 360.618803 352.018619 360.906838 351.815938 361.194872 351.612231 361.482906 351.407493 361.770940 351.201713 362.058974 350.994884 362.347009 350.786999 362.635043 350.578048 362.923077 350.368025 363.211111 350.156920 363.499145 349.944726 363.787179 349.731435 364.075214 349.517039 364.363248 349.301529 364.651282 349.084898 364.939316 348.867137 365.227350 348.648239 365.515385 348.428195 365.803419 348.206997 366.091453 347.984638 366.379487 347.761109 366.667521 347.536402 366.955556 347.310509 367.243590 347.083422 367.531624 346.855132 367.819658 346.625633 368.107692 346.394916 368.395726 346.162972 368.683761 345.929794 368.971795 345.695373 369.259829 345.459702 369.547863 345.222773 369.835897 344.984576 370.123932 344.745105 370.411966 344.504352 370.700000 344.262308 370.988034 344.018964 371.276068 343.774314 371.564103 343.528349 371.852137 343.281061 372.140171 343.032441 372.428205 342.782483 372.716239 342.531177 373.004274 342.278516 373.292308 342.024494 373.580342 341.769118 373.868376 341.512395 374.156410 341.254335 374.444444 340.994946 374.732479 340.734237 375.020513 340.472216 375.308547 340.208892 375.596581 339.944274 375.884615 339.678370 376.172650 339.411189 376.460684 339.142740 376.748718 338.873031 377.036752 338.602071 377.324786 338.329868 377.612821 338.056431 377.900855 337.781769 378.188889 337.505890 378.476923 337.228804 378.764957 336.950518 379.052991 336.671041 379.341026 336.390382 379.629060 336.108549 379.917094 335.825552 380.205128 335.541398 380.493162 335.256097 380.781197 334.969657 381.069231 334.682086 381.357265 334.393394 381.645299 334.103589 381.933333 333.812679 382.221368 333.520674 382.509402 333.227581 382.797436 332.933410 383.085470 332.638168 383.373504 332.341866 383.661538 332.044511 383.949573 331.746111 384.237607 331.446677 384.525641 331.146216 384.813675 330.844736 385.101709 330.542247 385.389744 330.238757 385.677778 329.934275 385.965812 329.628809 386.253846 329.322369 386.541880 329.014962 386.829915 328.706597 387.117949 328.397283 387.405983 328.087029 387.694017 327.775843 387.982051 327.463733 388.270085 327.150710 388.558120 326.836780 388.846154 326.521953 389.134188 326.206237 389.422222 325.889641 389.710256 325.572174 389.998291 325.253844 390.286325 324.934660 390.574359 324.614630 390.862393 324.293764 391.150427 323.972069 391.438462 323.649555 391.726496 323.326230 392.014530 323.002102 392.302564 322.677181 392.590598 322.351474 392.878632 322.024991 393.166667 321.697740 393.454701 321.369730 393.742735 321.040970 394.030769 320.711467 394.318803 320.381232 394.606838 320.050271 394.894872 319.718595 395.182906 319.386211 395.470940 319.053128 395.758974 318.719355 396.047009 318.384901 396.335043 318.049774 396.623077 317.713983 396.911111 317.377535 397.199145 317.040441 397.487179 316.702709 397.775214 316.364347 398.063248 316.025364 398.351282 315.685768 398.639316 315.345568 398.927350 315.004774 399.215385 314.663392 399.503419 314.321433 399.791453 313.978905 400.079487 313.635815 400.367521 313.292174 400.655556 312.947989 400.943590 312.603270 401.231624 312.258024 401.519658 311.912261 401.807692 311.565989 402.095726 311.219217 402.383761 310.871953 402.671795 310.524206 402.959829 310.175985 403.247863 309.827298 403.535897 309.478154 403.823932 309.128561 404.111966 308.778529 404.400000 308.428065 404.688034 308.077179 404.976068 307.725879 405.264103 307.374174 405.552137 307.022071 405.840171 306.669581 406.128205 306.316712 406.416239 305.963471 406.704274 305.609869 406.992308 305.255913 407.280342 304.901612 407.568376 304.546975 407.856410 304.192010 408.144444 303.836726 408.432479 303.481132 408.720513 303.125236 409.008547 302.769047 409.296581 302.412573 409.584615 302.055824 409.872650 301.698807 410.160684 301.341532 410.448718 300.984007 410.736752 300.626240 411.024786 300.268241 411.312821 299.910018 411.600855 299.551580 411.888889 299.192934 412.176923 298.834091 412.464957 298.475057 412.752991 298.115843 413.041026 297.756457 413.329060 297.396907 413.617094 297.037202 413.905128 296.677351 414.193162 296.317362 414.481197 295.957244 414.769231 295.597005 415.057265 295.236655 415.345299 294.876201 415.633333 294.515653 415.921368 294.155019 416.209402 293.794307 416.497436 293.433527 416.785470 293.072687 417.073504 292.711795 417.361538 292.350860 417.649573 291.989892 417.937607 291.628897 418.225641 291.267886 418.513675 290.906867 418.801709 290.545848 419.089744 290.184838 419.377778 289.823845 419.665812 289.462879 419.953846 289.101948 420.241880 288.741060 420.529915 288.380224 420.817949 288.019449 421.105983 287.658744 421.394017 287.298117 421.682051 286.937576 421.970085 286.577130 422.258120 286.216789 422.546154 285.856560 422.834188 285.496452 423.122222 285.136474 423.410256 284.776635 423.698291 284.416942 423.986325 284.057406 424.274359 283.698033 424.562393 283.338834 424.850427 282.979816 425.138462 282.620989 425.426496 282.262360 425.714530 281.903939 426.002564 281.545734 426.290598 281.187754 426.578632 280.830007 426.866667 280.472502 427.154701 280.115248 427.442735 279.758253 427.730769 279.401527 428.018803 279.045076 428.306838 278.688911 428.594872 278.333040 428.882906 277.977471 429.170940 277.622213 429.458974 277.267275 429.747009 276.912665 430.035043 276.558393 430.323077 276.204466 430.611111 275.850893 430.899145 275.497683 431.187179 275.144844 431.475214 274.792386 431.763248 274.440316 432.051282 274.088644 432.339316 273.737378 432.627350 273.386526 432.915385 273.036098 433.203419 272.686102 433.491453 272.336546 433.779487 271.987440 434.067521 271.638791 434.355556 271.290608 434.643590 270.942901 434.931624 270.595678 435.219658 270.248946 435.507692 269.902716 435.795726 269.556996 436.083761 269.211793 436.371795 268.867118 436.659829 268.522978 436.947863 268.179382 437.235897 267.836339 437.523932 267.493857 437.811966 267.151945 438.100000 266.810612 438.388034 266.469866 438.676068 266.129717 438.964103 265.790171 439.252137 265.451239 439.540171 265.112929 439.828205 264.775249 440.116239 264.438208 440.404274 264.101815 440.692308 263.766078 440.980342 263.431006 441.268376 263.096608 441.556410 262.762892 441.844444 262.429867 442.132479 262.097542 442.420513 261.765924 442.708547 261.435023 442.996581 261.104848 443.284615 260.775407 443.572650 260.446708 443.860684 260.118760 444.148718 259.791573 444.436752 259.465154 444.724786 259.139512 445.012821 258.814656 445.300855 258.490591 445.588889 258.167311 445.876923 257.844803 446.164957 257.523059 446.452991 257.202068 446.741026 256.881819 447.029060 256.562302 447.317094 256.243506 447.605128 255.925421 447.893162 255.608036 448.181197 255.291342 448.469231 254.975327 448.757265 254.659982 449.045299 254.345295 449.333333 254.031257 449.621368 253.717856 449.909402 253.405084 450.197436 253.092928 450.485470 252.781378 450.773504 252.470425 451.061538 252.160058 451.349573 251.850266 451.637607 251.541038 451.925641 251.232365 452.213675 250.924237 452.501709 250.616641 452.789744 250.309569 453.077778 250.003010 453.365812 249.696952 453.653846 249.391387 453.941880 249.086303 454.229915 248.781690 454.517949 248.477537 454.805983 248.173835 455.094017 247.870572 455.382051 247.567738 455.670085 247.265323 455.958120 246.963317 456.246154 246.661708 456.534188 246.360487 456.822222 246.059643 457.110256 245.759165 457.398291 245.459044 457.686325 245.159268 457.974359 244.859828 458.262393 244.560712 458.550427 244.261911 458.838462 243.963414 459.126496 243.665210 459.414530 243.367290 459.702564 243.069642 459.990598 242.772256 460.278632 242.475122 460.566667 242.178230 460.854701 241.881569 461.142735 241.585128 461.430769 241.288897 461.718803 240.992866 462.006838 240.697023 462.294872 240.401360 462.582906 240.105865 462.870940 239.810528 463.158974 239.515338 463.447009 239.220286 463.735043 238.925360 464.023077 238.630550 464.311111 238.335846 464.599145 238.041237 464.887179 237.746713 465.175214 237.452263 465.463248 237.157877 465.751282 236.863545 466.039316 236.569256 466.327350 236.275000 466.615385 235.980766 466.903419 235.686544 467.191453 235.392323 467.479487 235.098093 467.767521 234.803843 468.055556 234.509564 468.343590 234.215244 468.631624 233.920873 468.919658 233.626441 469.207692 233.331937 469.495726 233.037352 469.783761 232.742673 470.071795 232.447892 470.359829 232.152998 470.647863 231.857979 470.935897 231.562826 471.223932 231.267529 471.511966 230.972076 471.800000 230.676457 472.088034 230.380663 472.376068 230.084682 472.664103 229.788505 472.952137 229.492119 473.240171 229.195517 473.528205 228.898686 473.816239 228.601616 474.104274 228.304297 474.392308 228.006719 474.680342 227.708870 474.968376 227.410742 475.256410 227.112322 475.544444 226.813602 475.832479 226.514569 476.120513 226.215215 476.408547 225.915527 476.696581 225.615497 476.984615 225.315114 477.272650 225.014366 477.560684 224.713245 477.848718 224.411738 478.136752 224.109837 478.424786 223.807529 478.712821 223.504806 479.000855 223.201656 479.288889 222.898070 479.576923 222.594036 479.864957 222.289544 480.152991 221.984584 480.441026 221.679145 480.729060 221.373217 481.017094 221.066790 481.305128 220.759853 481.593162 220.452395 481.881197 220.144407 482.169231 219.835877 482.457265 219.526795 482.745299 219.217152 483.033333 218.906936 483.321368 218.596137 483.609402 218.284744 483.897436 217.972747 484.185470 217.660137 484.473504 217.346901 484.761538 217.033030 485.049573 216.718514 485.337607 216.403342 485.625641 216.087503 485.913675 215.770987 486.201709 215.453784 486.489744 215.135883 486.777778 214.817274 487.065812 214.497946 487.353846 214.177889 487.641880 213.857092 487.929915 213.535546 488.217949 213.213239 488.505983 212.890161 488.794017 212.566303 489.082051 212.241652 489.370085 211.916199 489.658120 211.589934 489.946154 211.262845 490.234188 210.934923 490.522222 210.606158 490.810256 210.276538 491.098291 209.946053 491.386325 209.614693 491.674359 209.282447 491.962393 208.949305 492.250427 208.615257 492.538462 208.280292 492.826496 207.944400 493.114530 207.607569 493.402564 207.269791 493.690598 206.931054 493.978632 206.591347 494.266667 206.250661 494.554701 205.908985 494.842735 205.566309 495.130769 205.222622 495.418803 204.877914 495.706838 204.532174 495.994872 204.185391 496.282906 203.837557 496.570940 203.488659 496.858974 203.138687 497.147009 202.787632 497.435043 202.435483 497.723077 202.082228 498.011111 201.727859 498.299145 201.372364 498.587179 201.015732 498.875214 200.657955 499.163248 200.299020 499.451282 199.938918 499.739316 199.577638 500.027350 199.215170 500.315385 198.851503 500.603419 198.486627 500.891453 198.120532 501.179487 197.753207 501.467521 197.384641 501.755556 197.014824 502.043590 196.643746 502.331624 196.271396 502.619658 195.897764 502.907692 195.522840 503.195726 195.146612 503.483761 194.769071 503.771795 194.390207 504.059829 194.010007 504.347863 193.628463 504.635897 193.245564 504.923932 192.861299 505.211966 192.475658 505.500000 192.088631 505.788034 191.700207 506.076068 191.310375 506.364103 190.919125 506.652137 190.526447 506.940171 190.132331 507.228205 189.736765 507.516239 189.339740 507.804274 188.941245 508.092308 188.541269 508.380342 188.139803 508.668376 187.736835 508.956410 187.332355 509.244444 186.926353 509.532479 186.518819 509.820513 186.109742 510.108547 185.699111 510.396581 185.286916 510.684615 184.873147 510.972650 184.457793 511.260684 184.040844 511.548718 183.622289 511.836752 183.202119 512.124786 182.780321 512.412821 182.356887 512.700855 181.931805 512.988889 181.505066 513.276923 181.076658 513.564957 180.646571 513.852991 180.214796 514.141026 179.781320 514.429060 179.346135 514.717094 178.909230 515.005128 178.470593 515.293162 178.030215 515.581197 177.588086 515.869231 177.144194 516.157265 176.698530 516.445299 176.251082 516.733333 175.801841 517.021368 175.350796 517.309402 174.897942 517.597436 174.443290 517.885470 173.986858 518.173504 173.528663 518.461538 173.068722 518.749573 172.607051 519.037607 172.143669 519.325641 171.678593 519.613675 171.211838 519.901709 170.743423 520.189744 170.273365 520.477778 169.801680 520.765812 169.328386 521.053846 168.853499 521.341880 168.377037 521.629915 167.899018 521.917949 167.419457 522.205983 166.938372 522.494017 166.455780 522.782051 165.971699 523.070085 165.486145 523.358120 164.999135 523.646154 164.510687 523.934188 164.020818 524.222222 163.529544 524.510256 163.036883 524.798291 162.542852 525.086325 162.047467 525.374359 161.550747 525.662393 161.052708 525.950427 160.553367 526.238462 160.052741 526.526496 159.550848 526.814530 159.047704 527.102564 158.543326 527.390598 158.037732 527.678632 157.530939 527.966667 157.022963 528.254701 156.513823 528.542735 156.003534 528.830769 155.492114 529.118803 154.979581 529.406838 154.465950 529.694872 153.951240 529.982906 153.435467 530.270940 152.918649 530.558974 152.400802 530.847009 151.881944 531.135043 151.362092 531.423077 150.841262 531.711111 150.319472 531.999145 149.796739 532.287179 149.273080 532.575214 148.748512 532.863248 148.223053 533.151282 147.696718 533.439316 147.169527 533.727350 146.641494 534.015385 146.112638 534.303419 145.582976 534.591453 145.052524 534.879487 144.521300 535.167521 143.989321 535.455556 143.456604 535.743590 142.923166 536.031624 142.389024 536.319658 141.854196 536.607692 141.318697 536.895726 140.782546 537.183761 140.245760 537.471795 139.708355 537.759829 139.170349 538.047863 138.631758 538.335897 138.092600 538.623932 137.552892 538.911966 137.012651 539.200000 136.471894 539.488034 135.930638 539.776068 135.388901 540.064103 134.846699 540.352137 134.304049 540.640171 133.760968 540.928205 133.217474 541.216239 132.673584 541.504274 132.129315 541.792308 131.584683 542.080342 131.039706 542.368376 130.494402 542.656410 129.948786 542.944444 129.402876 543.232479 128.856690 543.520513 128.310244 543.808547 127.763555 544.096581 127.216641 544.384615 126.669519 544.672650 126.122205 544.960684 125.574716 545.248718 125.027071 545.536752 124.479286 545.824786 123.931377 546.112821 123.383363 546.400855 122.835260 546.688889 122.287085 546.976923 121.738855 547.264957 121.190588 547.552991 120.642300 547.841026 120.094009 548.129060 119.545731 548.417094 118.997485 548.705128 118.449286 548.993162 117.901152 549.281197 117.353100 549.569231 116.805147 549.857265 116.257310 550.145299 115.709606 550.433333 115.162053 550.721368 114.614668 551.009402 114.067466 551.297436 113.520467 551.585470 112.973686 551.873504 112.427141 552.161538 111.880848 552.449573 111.334826 552.737607 110.789091 553.025641 110.243659 553.313675 109.698549 553.601709 109.153777 553.889744 108.609361 554.177778 108.065317 554.465812 107.521662 554.753846 106.978414 555.041880 106.435590 555.329915 105.893207 555.617949 105.351281 555.905983 104.809830 556.194017 104.268872 556.482051 103.728422 556.770085 103.188499 557.058120 102.649119 557.346154 102.110299 557.634188 101.572057 557.922222 101.034409 558.210256 100.497373 558.498291 99.960966 558.786325 99.425204 559.074359 98.890105 559.362393 98.355687 559.650427 97.821965 559.938462 97.288957 560.226496 96.756681 560.514530 96.225153 560.802564 95.694390 561.090598 95.164410 561.378632 94.635229 561.666667 94.106865 561.954701 93.579334 562.242735 93.052655 562.530769 92.526843 562.818803 92.001916 563.106838 91.477891 563.394872 90.954786 563.682906 90.432617 563.970940 89.911400 564.258974 89.391155 564.547009 88.871897 564.835043 88.353643 565.123077 87.836411 565.411111 87.320218 565.699145 86.805080 565.987179 86.291016 566.275214 85.778041 566.563248 85.266173 566.851282 84.755430 567.139316 84.245828 567.427350 83.737384 567.715385 83.230115 568.003419 82.724040 568.291453 82.219173 568.579487 81.715533 568.867521 81.213137 569.155556 80.712002 569.443590 80.212145 569.731624 79.713583 570.019658 79.216332 570.307692 78.720411 570.595726 78.225836 570.883761 77.732625 571.171795 77.240794 571.459829 76.750360 571.747863 76.261341 572.035897 75.773754 572.323932 75.287615 572.611966 74.802942 572.900000 74.319752 573.188034 73.838063 573.476068 73.357890 573.764103 72.879251 574.052137 72.402164 574.340171 71.926645 574.628205 71.452711 574.916239 70.980380 575.204274 70.509669 575.492308 70.040594 575.780342 69.573173 576.068376 69.107422 576.356410 68.643360 576.644444 68.181003 576.932479 67.720368 577.220513 67.261472 577.508547 66.804332 577.796581 66.348965 578.084615 65.895389 578.372650 65.443621 578.660684 64.993677 578.948718 64.545575 579.236752 64.099332 579.524786 63.654964 579.812821 63.212489 580.100855 62.771925 580.388889 62.333287 580.676923 61.896594 580.964957 61.461862 581.252991 61.029109 581.541026 60.598350 581.829060 60.169605 582.117094 59.742889 582.405128 59.318219 582.693162 58.895614 582.981197 58.475089 583.269231 58.056662 583.557265 57.640351 583.845299 57.226171 584.133333 56.814141 584.421368 56.404276 584.709402 55.996596 584.997436 55.591115 585.285470 55.187853 585.573504 54.786825 585.861538 54.388048 586.149573 53.991541 586.437607 53.597319 586.725641 53.205400 587.013675 52.815801 587.301709 52.428540 587.589744 52.043632 587.877778 51.661096 588.165812 51.280949 588.453846 50.903206 588.741880 50.527887 589.029915 50.155007 589.317949 49.784579 589.605983 49.416598 589.894017 49.051054 590.182051 48.687938 590.470085 48.327239 590.758120 47.968947 591.046154 47.613053 591.334188 47.259547 591.622222 46.908419 591.910256 46.559660 592.198291 46.213259 592.486325 45.869206 592.774359 45.527493 593.062393 45.188108 593.350427 44.851043 593.638462 44.516286 593.926496 44.183830 594.214530 43.853663 594.502564 43.525776 594.790598 43.200158 595.078632 42.876801 595.366667 42.555695 595.654701 42.236829 595.942735 41.920193 596.230769 41.605779 596.518803 41.293575 596.806838 40.983573 597.094872 40.675762 597.382906 40.370133 597.670940 40.066675 597.958974 39.765379 598.247009 39.466236 598.535043 39.169235 598.823077 38.874366 599.111111 38.581620 599.399145 38.290986 599.687179 38.002456 599.975214 37.716018 600.263248 37.431664 600.551282 37.149383 600.839316 36.869166 601.127350 36.591003 601.415385 36.314884 601.703419 36.040799 601.991453 35.768738 602.279487 35.498692 602.567521 35.230651 602.855556 34.964604 603.143590 34.700543 603.431624 34.438456 603.719658 34.178335 604.007692 33.920170 604.295726 33.663950 604.583761 33.409666 604.871795 33.157309 605.159829 32.906867 605.447863 32.658332 605.735897 32.411693 606.023932 32.166942 606.311966 31.924067 606.600000 31.683059 606.888034 31.443909 607.176068 31.206606 607.464103 30.971140 607.752137 30.737503 608.040171 30.505683 608.328205 30.275672 608.616239 30.047459 608.904274 29.821034 609.192308 29.596388 609.480342 29.373511 609.768376 29.152393 610.056410 28.933024 610.344444 28.715395 610.632479 28.499495 610.920513 28.285314 611.208547 28.072844 611.496581 27.862074 611.784615 27.652993 612.072650 27.445594 612.360684 27.239865 612.648718 27.035796 612.936752 26.833379 613.224786 26.632602 613.512821 26.433457 613.800855 26.235933 614.088889 26.040021 614.376923 25.845711 614.664957 25.652992 614.952991 25.461856 615.241026 25.272292 615.529060 25.084291 615.817094 24.897842 616.105128 24.712936 616.393162 24.529563 616.681197 24.347713 616.969231 24.167377 617.257265 23.988544 617.545299 23.811204 617.833333 23.635349 618.121368 23.460967 618.409402 23.288050 618.697436 23.116587 618.985470 22.946569 619.273504 22.777986 619.561538 22.610827 619.849573 22.445083 620.137607 22.280745 620.425641 22.117802 620.713675 21.956245 621.001709 21.796063 621.289744 21.637248 621.577778 21.479788 621.865812 21.323675 622.153846 21.168898 622.441880 21.015448 622.729915 20.863315 623.017949 20.712488 623.305983 20.562959 623.594017 20.414717 623.882051 20.267753 624.170085 20.122056 624.458120 19.977617 624.746154 19.834426 625.034188 19.692473 625.322222 19.551749 625.610256 19.412243 625.898291 19.273946 626.186325 19.136848 626.474359 19.000939 626.762393 18.866209 627.050427 18.732648 627.338462 18.600248 627.626496 18.468996 627.914530 18.338885 628.202564 18.209904 628.490598 18.082043 628.778632 17.955292 629.066667 17.829642 629.354701 17.705083 629.642735 17.581605 629.930769 17.459198 630.218803 17.337853 630.506838 17.217558 630.794872 17.098306 631.082906 16.980085 631.370940 16.862886 631.658974 16.746700 631.947009 16.631515 632.235043 16.517324 632.523077 16.404115 632.811111 16.291878 633.099145 16.180605 633.387179 16.070285 633.675214 15.960909 633.963248 15.852466 634.251282 15.744946 634.539316 15.638341 634.827350 15.532640 635.115385 15.427833 635.403419 15.323910 635.691453 15.220862 635.979487 15.118679 636.267521 15.017350 636.555556 14.916867 636.843590 14.817219 637.131624 14.718397 637.419658 14.620390 637.707692 14.523189 637.995726 14.426784 638.283761 14.331165 638.571795 14.236322 638.859829 14.142246 639.147863 14.048927 639.435897 13.956354 639.723932 13.864519 640.011966 13.773410 640.300000 13.683019 640.588034 13.593336 640.876068 13.504350 641.164103 13.416052 641.452137 13.328432 641.740171 13.241481 642.028205 13.155187 642.316239 13.069543 642.604274 12.984537 642.892308 12.900160 643.180342 12.816402 643.468376 12.733253 643.756410 12.650704 644.044444 12.568745 644.332479 12.487365 644.620513 12.406555 644.908547 12.326305 645.196581 12.246606 645.484615 12.167447 645.772650 12.088819 646.060684 12.010712 646.348718 11.933115 646.636752 11.856020 646.924786 11.779416 647.212821 11.703294 647.500855 11.627643 647.788889 11.552454 648.076923 11.477717 648.364957 11.403423 648.652991 11.329561 648.941026 11.256121 649.229060 11.183094 649.517094 11.110470 649.805128 11.038239 650.093162 10.966391 650.381197 10.894917 650.669231 10.823806 650.957265 10.753050 651.245299 10.682637 651.533333 10.612558 651.821368 10.542803 652.109402 10.473363 652.397436 10.404228 652.685470 10.335387 652.973504 10.266831 653.261538 10.198551 653.549573 10.130536 653.837607 10.062776 654.125641 9.995262 654.413675 9.927984 654.701709 9.860931 654.989744 9.794096 655.277778 9.727466 655.565812 9.661033 655.853846 9.594786 656.141880 9.528717 656.429915 9.462815 656.717949 9.397069 657.005983 9.331472 657.294017 9.266011 657.582051 9.200679 657.870085 9.135464 658.158120 9.070358 658.446154 9.005350 658.734188 8.940430 659.022222 8.875589 659.310256 8.810817 659.598291 8.746103 659.886325 8.681439 660.174359 8.616814 660.462393 8.552219 660.750427 8.487643 661.038462 8.423077" class="line reactive nofill"/></g></g><g class="titles"><text x="400.0" y="26" class="title plot_title">COVID-19 | Mato Grosso do Sul</text><text x="400.0" y="52" class="title plot_title"> Fonte: jhoonb.github.io/corona</text></g><g transform="translate(106, 72)" class="plot overlay"><g class="series serie-0 color-0"><g class="dots"><circle cx="12.961538461538462" cy="425.742375509413" r="2.5" class="dot reactive tooltip-trigger"/><desc class="value">0</desc><desc class="x top">12.961538461538462</desc><desc class="y top">425.742375509413</desc><desc class="x_label">28-02-2020</desc></g><g class="dots"><circle cx="84.97008547008545" cy="425.742375509413" r="2.5" class="dot reactive tooltip-trigger"/><desc class="value">0</desc><desc class="x top">84.97008547008545</desc><desc class="y top">425.742375509413</desc><desc class="x_label">10-03-2020</desc></g><g class="dots"><circle cx="156.97863247863245" cy="425.742375509413" r="2.5" class="dot reactive tooltip-trigger"/><desc class="value">0</desc><desc class="x top">156.97863247863245</desc><desc class="y top">425.742375509413</desc><desc class="x_label">17-03-2020</desc></g><g class="dots"><circle cx="228.98717948717947" cy="425.742375509413" r="2.5" class="dot reactive tooltip-trigger"/><desc class="value">0</desc><desc class="x top">228.98717948717947</desc><desc class="y top">425.742375509413</desc><desc class="x_label">24-03-2020</desc></g><g class="dots"><circle cx="300.9957264957265" cy="384.0104456507794" r="2.5" class="dot reactive tooltip-trigger"/><desc class="value">1</desc><desc class="x top">300.9957264957265</desc><desc class="y top">384.0104456507794</desc><desc class="x_label">31-03-2020</desc></g><g class="dots"><circle cx="373.0042735042735" cy="342.2785157921458" r="2.5" class="dot reactive tooltip-trigger"/><desc class="value">2</desc><desc class="x left top">373.0042735042735</desc><desc class="y left top">342.2785157921458</desc><desc class="x_label">07-04-2020</desc></g><g class="dots"><circle cx="445.0128205128205" cy="258.8146560748786" r="2.5" class="dot reactive tooltip-trigger"/><desc class="value">4</desc><desc class="x left top">445.0128205128205</desc><desc class="y left top">258.8146560748786</desc><desc class="x_label">14-04-2020</desc></g><g class="dots"><circle cx="517.0213675213674" cy="175.3507963576114" r="2.5" class="dot reactive tooltip-trigger"/><desc class="value">6</desc><desc class="x left">517.0213675213674</desc><desc class="y left">175.3507963576114</desc><desc class="x_label">21-04-2020</desc></g><g class="dots"><circle cx="589.0299145299145" cy="50.15500678171054" r="2.5" class="dot reactive tooltip-trigger"/><desc class="value">9</desc><desc class="x left">589.0299145299145</desc><desc class="y left">50.15500678171054</desc><desc class="x_label">28-04-2020</desc></g><g class="dots"><circle cx="661.0384615384615" cy="8.423076923076906" r="2.5" class="dot reactive tooltip-trigger"/><desc class="value">10</desc><desc class="x left">661.0384615384615</desc><desc class="y left">8.423076923076906</desc><desc class="x_label">05-05-2020</desc></g></g></g><g transform="translate(106, 72)" class="plot text-overlay"><g class="series serie-0 color-0"><text text-anchor="left" x="28.96153846153846" y="447.07570884274634" class="value">0</text><text text-anchor="left" x="100.97008547008545" y="447.07570884274634" class="value">0</text><text text-anchor="left" x="172.97863247863245" y="447.07570884274634" class="value">0</text><text text-anchor="left" x="244.98717948717947" y="447.07570884274634" class="value">0</text><text text-anchor="left" x="316.9957264957265" y="405.3437789841127" class="value">1</text><text text-anchor="left" x="389.0042735042735" y="363.6118491254791" class="value">2</text><text text-anchor="left" x="461.0128205128205" y="280.1479894082119" class="value">4</text><text text-anchor="left" x="533.0213675213674" y="196.68412969094473" class="value">6</text><text text-anchor="left" x="605.0299145299145" y="71.48834011504387" class="value">9</text><text text-anchor="left" x="677.0384615384615" y="29.756410256410238" class="value">10</text></g></g><g transform="translate(106, 72)" class="plot tooltip-overlay"><g transform="translate(0 0)" style="opacity: 0" class="tooltip"><rect rx="0" ry="0" width="0" height="0" class="tooltip-box"/><g class="text"/></g></g><g transform="translate(10, 82)" class="legends"><g id="activate-serie-0" class="legend reactive activate-serie"><rect x="0.0" y="1.0" width="12" height="12" class="color-0 reactive"/><text x="17.0" y="11.2">Óbito</text></g></g><g transform="translate(790, 82)" class="legends"/></g></svg>