<?xml version='1.0' encoding='utf-8'?>
<svg xmlns="http://www.w3.org/2000/svg" xmlns:xlink="http://www.w3.org/1999/xlink" id="chart-cc6c8f66-20fe-420f-a7cc-0e1f6453da07" class="pygal-chart" viewBox="0 0 800 600"><!--Generated with pygal 2.4.0 (lxml) ©Kozea 2012-2016 on 2020-04-02--><!--http://pygal.org--><!--http://github.com/Kozea/pygal--><defs><style type="text/css">#chart-cc6c8f66-20fe-420f-a7cc-0e1f6453da07{-webkit-user-select:none;-webkit-font-smoothing:antialiased;font-family:Consolas,"Liberation Mono",Menlo,Courier,monospace}#chart-cc6c8f66-20fe-420f-a7cc-0e1f6453da07 .title{font-family:Consolas,"Liberation Mono",Menlo,Courier,monospace;font-size:16px}#chart-cc6c8f66-20fe-420f-a7cc-0e1f6453da07 .legends .legend text{font-family:Consolas,"Liberation Mono",Menlo,Courier,monospace;font-size:14px}#chart-cc6c8f66-20fe-420f-a7cc-0e1f6453da07 .axis text{font-family:Consolas,"Liberation Mono",Menlo,Courier,monospace;font-size:10px}#chart-cc6c8f66-20fe-420f-a7cc-0e1f6453da07 .axis text.major{font-family:Consolas,"Liberation Mono",Menlo,Courier,monospace;font-size:10px}#chart-cc6c8f66-20fe-420f-a7cc-0e1f6453da07 .text-overlay text.value{font-family:Consolas,"Liberation Mono",Menlo,Courier,monospace;font-size:16px}#chart-cc6c8f66-20fe-420f-a7cc-0e1f6453da07 .text-overlay text.label{font-family:Consolas,"Liberation Mono",Menlo,Courier,monospace;font-size:10px}#chart-cc6c8f66-20fe-420f-a7cc-0e1f6453da07 .tooltip{font-family:Consolas,"Liberation Mono",Menlo,Courier,monospace;font-size:14px}#chart-cc6c8f66-20fe-420f-a7cc-0e1f6453da07 text.no_data{font-family:Consolas,"Liberation Mono",Menlo,Courier,monospace;font-size:64px}
#chart-cc6c8f66-20fe-420f-a7cc-0e1f6453da07{background-color:rgba(249,249,249,1)}#chart-cc6c8f66-20fe-420f-a7cc-0e1f6453da07 path,#chart-cc6c8f66-20fe-420f-a7cc-0e1f6453da07 line,#chart-cc6c8f66-20fe-420f-a7cc-0e1f6453da07 rect,#chart-cc6c8f66-20fe-420f-a7cc-0e1f6453da07 circle{-webkit-transition:150ms;-moz-transition:150ms;transition:150ms}#chart-cc6c8f66-20fe-420f-a7cc-0e1f6453da07 .graph &gt; .background{fill:rgba(249,249,249,1)}#chart-cc6c8f66-20fe-420f-a7cc-0e1f6453da07 .plot &gt; .background{fill:rgba(255,255,255,1)}#chart-cc6c8f66-20fe-420f-a7cc-0e1f6453da07 .graph{fill:rgba(0,0,0,.87)}#chart-cc6c8f66-20fe-420f-a7cc-0e1f6453da07 text.no_data{fill:rgba(0,0,0,1)}#chart-cc6c8f66-20fe-420f-a7cc-0e1f6453da07 .title{fill:rgba(0,0,0,1)}#chart-cc6c8f66-20fe-420f-a7cc-0e1f6453da07 .legends .legend text{fill:rgba(0,0,0,.87)}#chart-cc6c8f66-20fe-420f-a7cc-0e1f6453da07 .legends .legend:hover text{fill:rgba(0,0,0,1)}#chart-cc6c8f66-20fe-420f-a7cc-0e1f6453da07 .axis .line{stroke:rgba(0,0,0,1)}#chart-cc6c8f66-20fe-420f-a7cc-0e1f6453da07 .axis .guide.line{stroke:rgba(0,0,0,.54)}#chart-cc6c8f66-20fe-420f-a7cc-0e1f6453da07 .axis .major.line{stroke:rgba(0,0,0,.87)}#chart-cc6c8f66-20fe-420f-a7cc-0e1f6453da07 .axis text.major{fill:rgba(0,0,0,1)}#chart-cc6c8f66-20fe-420f-a7cc-0e1f6453da07 .axis.y .guides:hover .guide.line,#chart-cc6c8f66-20fe-420f-a7cc-0e1f6453da07 .line-graph .axis.x .guides:hover .guide.line,#chart-cc6c8f66-20fe-420f-a7cc-0e1f6453da07 .stackedline-graph .axis.x .guides:hover .guide.line,#chart-cc6c8f66-20fe-420f-a7cc-0e1f6453da07 .xy-graph .axis.x .guides:hover .guide.line{stroke:rgba(0,0,0,1)}#chart-cc6c8f66-20fe-420f-a7cc-0e1f6453da07 .axis .guides:hover text{fill:rgba(0,0,0,1)}#chart-cc6c8f66-20fe-420f-a7cc-0e1f6453da07 .reactive{fill-opacity:.7;stroke-opacity:.8}#chart-cc6c8f66-20fe-420f-a7cc-0e1f6453da07 .ci{stroke:rgba(0,0,0,.87)}#chart-cc6c8f66-20fe-420f-a7cc-0e1f6453da07 .reactive.active,#chart-cc6c8f66-20fe-420f-a7cc-0e1f6453da07 .active .reactive{fill-opacity:.8;stroke-opacity:.9;stroke-width:4}#chart-cc6c8f66-20fe-420f-a7cc-0e1f6453da07 .ci .reactive.active{stroke-width:1.5}#chart-cc6c8f66-20fe-420f-a7cc-0e1f6453da07 .series text{fill:rgba(0,0,0,1)}#chart-cc6c8f66-20fe-420f-a7cc-0e1f6453da07 .tooltip rect{fill:rgba(255,255,255,1);stroke:rgba(0,0,0,1);-webkit-transition:opacity 150ms;-moz-transition:opacity 150ms;transition:opacity 150ms}#chart-cc6c8f66-20fe-420f-a7cc-0e1f6453da07 .tooltip .label{fill:rgba(0,0,0,.87)}#chart-cc6c8f66-20fe-420f-a7cc-0e1f6453da07 .tooltip .label{fill:rgba(0,0,0,.87)}#chart-cc6c8f66-20fe-420f-a7cc-0e1f6453da07 .tooltip .legend{font-size:.8em;fill:rgba(0,0,0,.54)}#chart-cc6c8f66-20fe-420f-a7cc-0e1f6453da07 .tooltip .x_label{font-size:.6em;fill:rgba(0,0,0,1)}#chart-cc6c8f66-20fe-420f-a7cc-0e1f6453da07 .tooltip .xlink{font-size:.5em;text-decoration:underline}#chart-cc6c8f66-20fe-420f-a7cc-0e1f6453da07 .tooltip .value{font-size:1.5em}#chart-cc6c8f66-20fe-420f-a7cc-0e1f6453da07 .bound{font-size:.5em}#chart-cc6c8f66-20fe-420f-a7cc-0e1f6453da07 .max-value{font-size:.75em;fill:rgba(0,0,0,.54)}#chart-cc6c8f66-20fe-420f-a7cc-0e1f6453da07 .map-element{fill:rgba(255,255,255,1);stroke:rgba(0,0,0,.54) !important}#chart-cc6c8f66-20fe-420f-a7cc-0e1f6453da07 .map-element .reactive{fill-opacity:inherit;stroke-opacity:inherit}#chart-cc6c8f66-20fe-420f-a7cc-0e1f6453da07 .color-0,#chart-cc6c8f66-20fe-420f-a7cc-0e1f6453da07 .color-0 a:visited{stroke:#F44336;fill:#F44336}#chart-cc6c8f66-20fe-420f-a7cc-0e1f6453da07 .text-overlay .color-0 text{fill:black}
#chart-cc6c8f66-20fe-420f-a7cc-0e1f6453da07 text.no_data{text-anchor:middle}#chart-cc6c8f66-20fe-420f-a7cc-0e1f6453da07 .guide.line{fill:none}#chart-cc6c8f66-20fe-420f-a7cc-0e1f6453da07 .centered{text-anchor:middle}#chart-cc6c8f66-20fe-420f-a7cc-0e1f6453da07 .title{text-anchor:middle}#chart-cc6c8f66-20fe-420f-a7cc-0e1f6453da07 .legends .legend text{fill-opacity:1}#chart-cc6c8f66-20fe-420f-a7cc-0e1f6453da07 .axis.x text{text-anchor:middle}#chart-cc6c8f66-20fe-420f-a7cc-0e1f6453da07 .axis.x:not(.web) text[transform]{text-anchor:start}#chart-cc6c8f66-20fe-420f-a7cc-0e1f6453da07 .axis.x:not(.web) text[transform].backwards{text-anchor:end}#chart-cc6c8f66-20fe-420f-a7cc-0e1f6453da07 .axis.y text{text-anchor:end}#chart-cc6c8f66-20fe-420f-a7cc-0e1f6453da07 .axis.y text[transform].backwards{text-anchor:start}#chart-cc6c8f66-20fe-420f-a7cc-0e1f6453da07 .axis.y2 text{text-anchor:start}#chart-cc6c8f66-20fe-420f-a7cc-0e1f6453da07 .axis.y2 text[transform].backwards{text-anchor:end}#chart-cc6c8f66-20fe-420f-a7cc-0e1f6453da07 .axis .guide.line{stroke-dasharray:4,4}#chart-cc6c8f66-20fe-420f-a7cc-0e1f6453da07 .axis .major.guide.line{stroke-dasharray:6,6}#chart-cc6c8f66-20fe-420f-a7cc-0e1f6453da07 .horizontal .axis.y .guide.line,#chart-cc6c8f66-20fe-420f-a7cc-0e1f6453da07 .horizontal .axis.y2 .guide.line,#chart-cc6c8f66-20fe-420f-a7cc-0e1f6453da07 .vertical .axis.x .guide.line{opacity:0}#chart-cc6c8f66-20fe-420f-a7cc-0e1f6453da07 .horizontal .axis.always_show .guide.line,#chart-cc6c8f66-20fe-420f-a7cc-0e1f6453da07 .vertical .axis.always_show .guide.line{opacity:1 !important}#chart-cc6c8f66-20fe-420f-a7cc-0e1f6453da07 .axis.y .guides:hover .guide.line,#chart-cc6c8f66-20fe-420f-a7cc-0e1f6453da07 .axis.y2 .guides:hover .guide.line,#chart-cc6c8f66-20fe-420f-a7cc-0e1f6453da07 .axis.x .guides:hover .guide.line{opacity:1}#chart-cc6c8f66-20fe-420f-a7cc-0e1f6453da07 .axis .guides:hover text{opacity:1}#chart-cc6c8f66-20fe-420f-a7cc-0e1f6453da07 .nofill{fill:none}#chart-cc6c8f66-20fe-420f-a7cc-0e1f6453da07 .subtle-fill{fill-opacity:.2}#chart-cc6c8f66-20fe-420f-a7cc-0e1f6453da07 .dot{stroke-width:1px;fill-opacity:1}#chart-cc6c8f66-20fe-420f-a7cc-0e1f6453da07 .dot.active{stroke-width:5px}#chart-cc6c8f66-20fe-420f-a7cc-0e1f6453da07 .dot.negative{fill:transparent}#chart-cc6c8f66-20fe-420f-a7cc-0e1f6453da07 text,#chart-cc6c8f66-20fe-420f-a7cc-0e1f6453da07 tspan{stroke:none !important}#chart-cc6c8f66-20fe-420f-a7cc-0e1f6453da07 .series text.active{opacity:1}#chart-cc6c8f66-20fe-420f-a7cc-0e1f6453da07 .tooltip rect{fill-opacity:.95;stroke-width:.5}#chart-cc6c8f66-20fe-420f-a7cc-0e1f6453da07 .tooltip text{fill-opacity:1}#chart-cc6c8f66-20fe-420f-a7cc-0e1f6453da07 .showable{visibility:hidden}#chart-cc6c8f66-20fe-420f-a7cc-0e1f6453da07 .showable.shown{visibility:visible}#chart-cc6c8f66-20fe-420f-a7cc-0e1f6453da07 .gauge-background{fill:rgba(229,229,229,1);stroke:none}#chart-cc6c8f66-20fe-420f-a7cc-0e1f6453da07 .bg-lines{stroke:rgba(249,249,249,1);stroke-width:2px}</style><script type="text/javascript">window.pygal = window.pygal || {};window.pygal.config = window.pygal.config || {};window.pygal.config['cc6c8f66-20fe-420f-a7cc-0e1f6453da07'] = {"allow_interruptions": false, "box_mode": "extremes", "classes": ["pygal-chart"], "css": ["file://style.css", "file://graph.css"], "defs": [], "disable_xml_declaration": false, "dots_size": 2.5, "dynamic_print_values": false, "explicit_size": false, "fill": false, "force_uri_protocol": "https", "formatter": null, "half_pie": false, "height": 600, "include_x_axis": false, "inner_radius": 0, "interpolate": "cubic", "interpolation_parameters": {}, "interpolation_precision": 250, "inverse_y_axis": false, "js": ["//kozea.github.io/pygal.js/2.0.x/pygal-tooltips.min.js"], "legend_at_bottom": false, "legend_at_bottom_columns": null, "legend_box_size": 12, "logarithmic": false, "margin": 20, "margin_bottom": null, "margin_left": null, "margin_right": null, "margin_top": null, "max_scale": 16, "min_scale": 4, "missing_value_fill_truncation": "x", "no_data_text": "No data", "no_prefix": false, "order_min": null, "pretty_print": false, "print_labels": false, "print_values": true, "print_values_position": "center", "print_zeroes": true, "range": null, "rounded_bars": null, "secondary_range": null, "show_dots": true, "show_legend": true, "show_minor_x_labels": true, "show_minor_y_labels": true, "show_only_major_dots": false, "show_x_guides": false, "show_x_labels": true, "show_y_guides": true, "show_y_labels": true, "spacing": 10, "stack_from_top": false, "strict": false, "stroke": true, "stroke_style": null, "style": {"background": "rgba(249, 249, 249, 1)", "ci_colors": [], "colors": ["#F44336", "#3F51B5", "#009688", "#FFC107", "#FF5722", "#9C27B0", "#03A9F4", "#8BC34A", "#FF9800", "#E91E63", "#2196F3", "#4CAF50", "#FFEB3B", "#673AB7", "#00BCD4", "#CDDC39", "#9E9E9E", "#607D8B"], "font_family": "Consolas, \"Liberation Mono\", Menlo, Courier, monospace", "foreground": "rgba(0, 0, 0, .87)", "foreground_strong": "rgba(0, 0, 0, 1)", "foreground_subtle": "rgba(0, 0, 0, .54)", "guide_stroke_dasharray": "4,4", "label_font_family": "Consolas, \"Liberation Mono\", Menlo, Courier, monospace", "label_font_size": 10, "legend_font_family": "Consolas, \"Liberation Mono\", Menlo, Courier, monospace", "legend_font_size": 14, "major_guide_stroke_dasharray": "6,6", "major_label_font_family": "Consolas, \"Liberation Mono\", Menlo, Courier, monospace", "major_label_font_size": 10, "no_data_font_family": "Consolas, \"Liberation Mono\", Menlo, Courier, monospace", "no_data_font_size": 64, "opacity": ".7", "opacity_hover": ".8", "plot_background": "rgba(255, 255, 255, 1)", "stroke_opacity": ".8", "stroke_opacity_hover": ".9", "title_font_family": "Consolas, \"Liberation Mono\", Menlo, Courier, monospace", "title_font_size": 16, "tooltip_font_family": "Consolas, \"Liberation Mono\", Menlo, Courier, monospace", "tooltip_font_size": 14, "transition": "150ms", "value_background": "rgba(229, 229, 229, 1)", "value_colors": [], "value_font_family": "Consolas, \"Liberation Mono\", Menlo, Courier, monospace", "value_font_size": 16, "value_label_font_family": "Consolas, \"Liberation Mono\", Menlo, Courier, monospace", "value_label_font_size": 10}, "title": "COVID-19 | Mato Grosso do Sul\n Fonte: jhoonb.github.io/corona", "tooltip_border_radius": 0, "tooltip_fancy_mode": true, "truncate_label": null, "truncate_legend": null, "width": 800, "x_label_rotation": 90, "x_labels": ["28-02-2020", "04-03-2020", "09-03-2020", "12-03-2020", "15-03-2020", "18-03-2020", "21-03-2020", "24-03-2020", "27-03-2020", "30-03-2020", "02-04-2020"], "x_labels_major": null, "x_labels_major_count": null, "x_labels_major_every": null, "x_title": null, "xrange": null, "y_label_rotation": 0, "y_labels": null, "y_labels_major": null, "y_labels_major_count": null, "y_labels_major_every": null, "y_title": null, "zero": 0, "legends": ["Confirmados"]}</script><script type="text/javascript" xlink:href="https://kozea.github.io/pygal.js/2.0.x/pygal-tooltips.min.js"/></defs><title>COVID-19 | Mato Grosso do Sul
 Fonte: jhoonb.github.io/corona</title><g class="graph line-graph vertical"><rect x="0" y="0" width="800" height="600" class="background"/><g transform="translate(156, 72)" class="plot"><rect x="0" y="0" width="623.6" height="438.0" class="background"/><g class="axis y always_show"><g class="guides"><path d="M0.000000 428.589645 h623.600000" class="axis major line"/><text x="-5" y="432.0896454712024" class="major">0</text><title>0</title></g><g class="guides"><path d="M0.000000 349.312934 h623.600000" class="guide line"/><text x="-5" y="352.8129344243863" class="">10</text><title>10</title></g><g class="guides"><path d="M0.000000 270.036223 h623.600000" class="guide line"/><text x="-5" y="273.5362233775702" class="">20</text><title>20</title></g><g class="guides"><path d="M0.000000 190.759512 h623.600000" class="guide line"/><text x="-5" y="194.25951233075403" class="">30</text><title>30</title></g><g class="guides"><path d="M0.000000 111.482801 h623.600000" class="guide line"/><text x="-5" y="114.98280128393787" class="">40</text><title>40</title></g><g class="guides"><path d="M0.000000 32.206090 h623.600000" class="major guide line"/><text x="-5" y="35.70609023712177" class="major">50</text><title>50</title></g></g><g class="axis x"><g class="guides"><path d="M11.992308 0.000000 v438.000000" class="line"/><text x="11.992307692307692" y="453.0" class="" transform="rotate(90 11.992308 453.000000)">28-02-2020</text></g><g class="guides"><path d="M71.953846 0.000000 v438.000000" class="guide line"/><text x="71.95384615384616" y="453.0" class="" transform="rotate(90 71.953846 453.000000)">04-03-2020</text></g><g class="guides"><path d="M131.915385 0.000000 v438.000000" class="guide line"/><text x="131.91538461538462" y="453.0" class="" transform="rotate(90 131.915385 453.000000)">09-03-2020</text></g><g class="guides"><path d="M191.876923 0.000000 v438.000000" class="guide line"/><text x="191.87692307692308" y="453.0" class="" transform="rotate(90 191.876923 453.000000)">12-03-2020</text></g><g class="guides"><path d="M251.838462 0.000000 v438.000000" class="guide line"/><text x="251.83846153846156" y="453.0" class="" transform="rotate(90 251.838462 453.000000)">15-03-2020</text></g><g class="guides"><path d="M311.800000 0.000000 v438.000000" class="guide line"/><text x="311.8" y="453.0" class="" transform="rotate(90 311.800000 453.000000)">18-03-2020</text></g><g class="guides"><path d="M371.761538 0.000000 v438.000000" class="guide line"/><text x="371.76153846153846" y="453.0" class="" transform="rotate(90 371.761538 453.000000)">21-03-2020</text></g><g class="guides"><path d="M431.723077 0.000000 v438.000000" class="guide line"/><text x="431.7230769230769" y="453.0" class="" transform="rotate(90 431.723077 453.000000)">24-03-2020</text></g><g class="guides"><path d="M491.684615 0.000000 v438.000000" class="guide line"/><text x="491.6846153846154" y="453.0" class="" transform="rotate(90 491.684615 453.000000)">27-03-2020</text></g><g class="guides"><path d="M551.646154 0.000000 v438.000000" class="guide line"/><text x="551.6461538461538" y="453.0" class="" transform="rotate(90 551.646154 453.000000)">30-03-2020</text></g><g class="guides"><path d="M611.607692 0.000000 v438.000000" class="guide line"/><text x="611.6076923076923" y="453.0" class="" transform="rotate(90 611.607692 453.000000)">02-04-2020</text></g></g><g class="series serie-0 color-0"><path d="M11.992308 428.589645 L12.232154 428.590538 12.472000 428.591430 12.711846 428.592323 12.951692 428.593215 13.191538 428.594106 13.431385 428.594998 13.671231 428.595888 13.911077 428.596778 14.150923 428.597668 14.390769 428.598557 14.630615 428.599444 14.870462 428.600331 15.110308 428.601217 15.350154 428.602102 15.590000 428.602985 15.829846 428.603868 16.069692 428.604749 16.309538 428.605628 16.549385 428.606506 16.789231 428.607382 17.029077 428.608257 17.268923 428.609129 17.508769 428.610000 17.748615 428.610869 17.988462 428.611736 18.228308 428.612601 18.468154 428.613463 18.708000 428.614323 18.947846 428.615181 19.187692 428.616036 19.427538 428.616889 19.667385 428.617739 19.907231 428.618586 20.147077 428.619431 20.386923 428.620272 20.626769 428.621111 20.866615 428.621946 21.106462 428.622778 21.346308 428.623607 21.586154 428.624433 21.826000 428.625255 22.065846 428.626074 22.305692 428.626889 22.545538 428.627701 22.785385 428.628509 23.025231 428.629312 23.265077 428.630112 23.504923 428.630908 23.744769 428.631700 23.984615 428.632487 24.224462 428.633271 24.464308 428.634050 24.704154 428.634824 24.944000 428.635594 25.183846 428.636359 25.423692 428.637120 25.663538 428.637876 25.903385 428.638627 26.143231 428.639372 26.383077 428.640113 26.622923 428.640849 26.862769 428.641580 27.102615 428.642305 27.342462 428.643025 27.582308 428.643739 27.822154 428.644448 28.062000 428.645151 28.301846 428.645848 28.541692 428.646540 28.781538 428.647225 29.021385 428.647905 29.261231 428.648578 29.501077 428.649246 29.740923 428.649907 29.980769 428.650561 30.220615 428.651210 30.460462 428.651852 30.700308 428.652487 30.940154 428.653115 31.180000 428.653737 31.419846 428.654352 31.659692 428.654960 31.899538 428.655561 32.139385 428.656155 32.379231 428.656741 32.619077 428.657321 32.858923 428.657893 33.098769 428.658457 33.338615 428.659014 33.578462 428.659564 33.818308 428.660105 34.058154 428.660639 34.298000 428.661165 34.537846 428.661683 34.777692 428.662193 35.017538 428.662695 35.257385 428.663188 35.497231 428.663674 35.737077 428.664151 35.976923 428.664619 36.216769 428.665079 36.456615 428.665530 36.696462 428.665972 36.936308 428.666406 37.176154 428.666831 37.416000 428.667246 37.655846 428.667653 37.895692 428.668050 38.135538 428.668439 38.375385 428.668817 38.615231 428.669187 38.855077 428.669547 39.094923 428.669897 39.334769 428.670238 39.574615 428.670569 39.814462 428.670890 40.054308 428.671201 40.294154 428.671502 40.534000 428.671793 40.773846 428.672073 41.013692 428.672344 41.253538 428.672604 41.493385 428.672854 41.733231 428.673093 41.973077 428.673321 42.212923 428.673539 42.452769 428.673746 42.692615 428.673942 42.932462 428.674127 43.172308 428.674301 43.412154 428.674464 43.652000 428.674616 43.891846 428.674756 44.131692 428.674885 44.371538 428.675003 44.611385 428.675109 44.851231 428.675203 45.091077 428.675286 45.330923 428.675356 45.570769 428.675415 45.810615 428.675462 46.050462 428.675497 46.290308 428.675519 46.530154 428.675530 46.770000 428.675528 47.009846 428.675513 47.249692 428.675486 47.489538 428.675447 47.729385 428.675394 47.969231 428.675329 48.209077 428.675252 48.448923 428.675161 48.688769 428.675057 48.928615 428.674940 49.168462 428.674810 49.408308 428.674667 49.648154 428.674510 49.888000 428.674340 50.127846 428.674156 50.367692 428.673959 50.607538 428.673747 50.847385 428.673523 51.087231 428.673284 51.327077 428.673031 51.566923 428.672764 51.806769 428.672483 52.046615 428.672188 52.286462 428.671879 52.526308 428.671555 52.766154 428.671217 53.006000 428.670864 53.245846 428.670496 53.485692 428.670114 53.725538 428.669717 53.965385 428.669305 54.205231 428.668878 54.445077 428.668436 54.684923 428.667978 54.924769 428.667506 55.164615 428.667018 55.404462 428.666515 55.644308 428.665996 55.884154 428.665462 56.124000 428.664912 56.363846 428.664346 56.603692 428.663764 56.843538 428.663167 57.083385 428.662553 57.323231 428.661923 57.563077 428.661277 57.802923 428.660615 58.042769 428.659936 58.282615 428.659241 58.522462 428.658530 58.762308 428.657802 59.002154 428.657057 59.242000 428.656295 59.481846 428.655517 59.721692 428.654721 59.961538 428.653908 60.201385 428.653079 60.441231 428.652232 60.681077 428.651368 60.920923 428.650486 61.160769 428.649587 61.400615 428.648670 61.640462 428.647736 61.880308 428.646784 62.120154 428.645814 62.360000 428.644826 62.599846 428.643820 62.839692 428.642796 63.079538 428.641754 63.319385 428.640694 63.559231 428.639615 63.799077 428.638518 64.038923 428.637403 64.278769 428.636269 64.518615 428.635116 64.758462 428.633944 64.998308 428.632754 65.238154 428.631544 65.478000 428.630316 65.717846 428.629068 65.957692 428.627802 66.197538 428.626516 66.437385 428.625210 66.677231 428.623885 66.917077 428.622541 67.156923 428.621177 67.396769 428.619794 67.636615 428.618390 67.876462 428.616967 68.116308 428.615523 68.356154 428.614060 68.596000 428.612577 68.835846 428.611073 69.075692 428.609549 69.315538 428.608004 69.555385 428.606440 69.795231 428.604854 70.035077 428.603248 70.274923 428.601621 70.514769 428.599973 70.754615 428.598305 70.994462 428.596615 71.234308 428.594905 71.474154 428.593173 71.714000 428.591420 71.953846 428.589645 72.193692 428.587850 72.433538 428.586033 72.673385 428.584196 72.913231 428.582338 73.153077 428.580461 73.392923 428.578565 73.632769 428.576650 73.872615 428.574716 74.112462 428.572764 74.352308 428.570795 74.592154 428.568809 74.832000 428.566806 75.071846 428.564786 75.311692 428.562751 75.551538 428.560700 75.791385 428.558635 76.031231 428.556555 76.271077 428.554460 76.510923 428.552352 76.750769 428.550231 76.990615 428.548097 77.230462 428.545950 77.470308 428.543791 77.710154 428.541621 77.950000 428.539440 78.189846 428.537248 78.429692 428.535046 78.669538 428.532834 78.909385 428.530612 79.149231 428.528381 79.389077 428.526142 79.628923 428.523895 79.868769 428.521640 80.108615 428.519378 80.348462 428.517109 80.588308 428.514833 80.828154 428.512552 81.068000 428.510264 81.307846 428.507972 81.547692 428.505675 81.787538 428.503374 82.027385 428.501069 82.267231 428.498760 82.507077 428.496449 82.746923 428.494135 82.986769 428.491818 83.226615 428.489500 83.466462 428.487181 83.706308 428.484861 83.946154 428.482540 84.186000 428.480220 84.425846 428.477900 84.665692 428.475581 84.905538 428.473263 85.145385 428.470946 85.385231 428.468632 85.625077 428.466321 85.864923 428.464012 86.104769 428.461707 86.344615 428.459406 86.584462 428.457109 86.824308 428.454817 87.064154 428.452529 87.304000 428.450248 87.543846 428.447972 87.783692 428.445703 88.023538 428.443441 88.263385 428.441186 88.503231 428.438939 88.743077 428.436700 88.982923 428.434469 89.222769 428.432247 89.462615 428.430035 89.702462 428.427833 89.942308 428.425641 90.182154 428.423460 90.422000 428.421290 90.661846 428.419131 90.901692 428.416984 91.141538 428.414850 91.381385 428.412729 91.621231 428.410621 91.861077 428.408526 92.100923 428.406446 92.340769 428.404381 92.580615 428.402330 92.820462 428.400295 93.060308 428.398275 93.300154 428.396272 93.540000 428.394286 93.779846 428.392317 94.019692 428.390365 94.259538 428.388431 94.499385 428.386516 94.739231 428.384620 94.979077 428.382743 95.218923 428.380885 95.458769 428.379048 95.698615 428.377231 95.938462 428.375436 96.178308 428.373661 96.418154 428.371909 96.658000 428.370179 96.897846 428.368471 97.137692 428.366787 97.377538 428.365126 97.617385 428.363489 97.857231 428.361877 98.097077 428.360289 98.336923 428.358727 98.576769 428.357191 98.816615 428.355680 99.056462 428.354196 99.296308 428.352740 99.536154 428.351310 99.776000 428.349909 100.015846 428.348535 100.255692 428.347191 100.495538 428.345875 100.735385 428.344589 100.975231 428.343333 101.215077 428.342108 101.454923 428.340913 101.694769 428.339750 101.934615 428.338618 102.174462 428.337519 102.414308 428.336452 102.654154 428.335418 102.894000 428.334417 103.133846 428.333450 103.373692 428.332518 103.613538 428.331620 103.853385 428.330758 104.093231 428.329930 104.333077 428.329139 104.572923 428.328385 104.812769 428.327667 105.052615 428.326986 105.292462 428.326344 105.532308 428.325739 105.772154 428.325173 106.012000 428.324645 106.251846 428.324158 106.491692 428.323710 106.731538 428.323302 106.971385 428.322935 107.211231 428.322609 107.451077 428.322325 107.690923 428.322083 107.930769 428.321883 108.170615 428.321726 108.410462 428.321612 108.650308 428.321542 108.890154 428.321516 109.130000 428.321535 109.369846 428.321599 109.609692 428.321708 109.849538 428.321862 110.089385 428.322064 110.329231 428.322311 110.569077 428.322606 110.808923 428.322949 111.048769 428.323339 111.288615 428.323778 111.528462 428.324266 111.768308 428.324803 112.008154 428.325390 112.248000 428.326027 112.487846 428.326714 112.727692 428.327452 112.967538 428.328242 113.207385 428.329084 113.447231 428.329978 113.687077 428.330924 113.926923 428.331924 114.166769 428.332977 114.406615 428.334085 114.646462 428.335246 114.886308 428.336463 115.126154 428.337735 115.366000 428.339062 115.605846 428.340446 115.845692 428.341886 116.085538 428.343383 116.325385 428.344937 116.565231 428.346550 116.805077 428.348220 117.044923 428.349950 117.284769 428.351738 117.524615 428.353586 117.764462 428.355494 118.004308 428.357462 118.244154 428.359492 118.484000 428.361582 118.723846 428.363734 118.963692 428.365949 119.203538 428.368225 119.443385 428.370565 119.683231 428.372968 119.923077 428.375436 120.162923 428.377967 120.402769 428.380563 120.642615 428.383224 120.882462 428.385951 121.122308 428.388743 121.362154 428.391602 121.602000 428.394528 121.841846 428.397521 122.081692 428.400582 122.321538 428.403711 122.561385 428.406909 122.801231 428.410175 123.041077 428.413511 123.280923 428.416917 123.520769 428.420393 123.760615 428.423940 124.000462 428.427557 124.240308 428.431247 124.480154 428.435008 124.720000 428.438842 124.959846 428.442748 125.199692 428.446728 125.439538 428.450782 125.679385 428.454909 125.919231 428.459111 126.159077 428.463388 126.398923 428.467741 126.638769 428.472169 126.878615 428.476674 127.118462 428.481255 127.358308 428.485914 127.598154 428.490650 127.838000 428.495464 128.077846 428.500356 128.317692 428.505327 128.557538 428.510378 128.797385 428.515508 129.037231 428.520718 129.277077 428.526009 129.516923 428.531380 129.756769 428.536834 129.996615 428.542368 130.236462 428.547986 130.476308 428.553686 130.716154 428.559469 130.956000 428.565335 131.195846 428.571286 131.435692 428.577321 131.675538 428.583440 131.915385 428.589645 132.155231 428.595936 132.395077 428.602310 132.634923 428.608767 132.874769 428.615305 133.114615 428.621922 133.354462 428.628616 133.594308 428.635386 133.834154 428.642231 134.074000 428.649148 134.313846 428.656136 134.553692 428.663194 134.793538 428.670319 135.033385 428.677511 135.273231 428.684767 135.513077 428.692086 135.752923 428.699466 135.992769 428.706906 136.232615 428.714404 136.472462 428.721958 136.712308 428.729567 136.952154 428.737230 137.192000 428.744943 137.431846 428.752707 137.671692 428.760519 137.911538 428.768377 138.151385 428.776280 138.391231 428.784227 138.631077 428.792215 138.870923 428.800244 139.110769 428.808311 139.350615 428.816415 139.590462 428.824554 139.830308 428.832727 140.070154 428.840931 140.310000 428.849166 140.549846 428.857430 140.789692 428.865721 141.029538 428.874037 141.269385 428.882377 141.509231 428.890739 141.749077 428.899122 141.988923 428.907523 142.228769 428.915942 142.468615 428.924377 142.708462 428.932826 142.948308 428.941287 143.188154 428.949759 143.428000 428.958240 143.667846 428.966729 143.907692 428.975223 144.147538 428.983722 144.387385 428.992224 144.627231 429.000726 144.867077 429.009228 145.106923 429.017728 145.346769 429.026224 145.586615 429.034714 145.826462 429.043198 146.066308 429.051672 146.306154 429.060136 146.546000 429.068588 146.785846 429.077027 147.025692 429.085450 147.265538 429.093857 147.505385 429.102245 147.745231 429.110612 147.985077 429.118958 148.224923 429.127281 148.464769 429.135579 148.704615 429.143849 148.944462 429.152092 149.184308 429.160305 149.424154 429.168486 149.664000 429.176634 149.903846 429.184747 150.143692 429.192824 150.383538 429.200863 150.623385 429.208862 150.863231 429.216820 151.103077 429.224735 151.342923 429.232606 151.582769 429.240430 151.822615 429.248206 152.062462 429.255933 152.302308 429.263609 152.542154 429.271232 152.782000 429.278801 153.021846 429.286314 153.261692 429.293769 153.501538 429.301165 153.741385 429.308501 153.981231 429.315773 154.221077 429.322982 154.460923 429.330125 154.700769 429.337201 154.940615 429.344207 155.180462 429.351143 155.420308 429.358007 155.660154 429.364797 155.900000 429.371512 156.139846 429.378149 156.379692 429.384708 156.619538 429.391186 156.859385 429.397582 157.099231 429.403895 157.339077 429.410122 157.578923 429.416263 157.818769 429.422315 158.058615 429.428277 158.298462 429.434147 158.538308 429.439923 158.778154 429.445605 159.018000 429.451190 159.257846 429.456677 159.497692 429.462064 159.737538 429.467349 159.977385 429.472531 160.217231 429.477608 160.457077 429.482579 160.696923 429.487442 160.936769 429.492195 161.176615 429.496837 161.416462 429.501366 161.656308 429.505781 161.896154 429.510079 162.136000 429.514259 162.375846 429.518320 162.615692 429.522260 162.855538 429.526077 163.095385 429.529770 163.335231 429.533337 163.575077 429.536776 163.814923 429.540086 164.054769 429.543266 164.294615 429.546312 164.534462 429.549225 164.774308 429.552002 165.014154 429.554642 165.254000 429.557142 165.493846 429.559502 165.733692 429.561720 165.973538 429.563794 166.213385 429.565723 166.453231 429.567504 166.693077 429.569137 166.932923 429.570619 167.172769 429.571949 167.412615 429.573126 167.652462 429.574147 167.892308 429.575011 168.132154 429.575717 168.372000 429.576263 168.611846 429.576647 168.851692 429.576868 169.091538 429.576923 169.331385 429.576812 169.571231 429.576533 169.811077 429.576083 170.050923 429.575463 170.290769 429.574669 170.530615 429.573700 170.770462 429.572555 171.010308 429.571231 171.250154 429.569728 171.490000 429.568044 171.729846 429.566177 171.969692 429.564125 172.209538 429.561887 172.449385 429.559461 172.689231 429.556846 172.929077 429.554040 173.168923 429.551041 173.408769 429.547848 173.648615 429.544458 173.888462 429.540872 174.128308 429.537085 174.368154 429.533099 174.608000 429.528909 174.847846 429.524516 175.087692 429.519916 175.327538 429.515110 175.567385 429.510094 175.807231 429.504868 176.047077 429.499430 176.286923 429.493777 176.526769 429.487910 176.766615 429.481825 177.006462 429.475521 177.246308 429.468997 177.486154 429.462251 177.726000 429.455281 177.965846 429.448087 178.205692 429.440665 178.445538 429.433014 178.685385 429.425134 178.925231 429.417022 179.165077 429.408676 179.404923 429.400095 179.644769 429.391278 179.884615 429.382222 180.124462 429.372927 180.364308 429.363390 180.604154 429.353609 180.844000 429.343584 181.083846 429.333313 181.323692 429.322793 181.563538 429.312024 181.803385 429.301003 182.043231 429.289730 182.283077 429.278202 182.522923 429.266418 182.762769 429.254376 183.002615 429.242074 183.242462 429.229512 183.482308 429.216686 183.722154 429.203597 183.962000 429.190241 184.201846 429.176618 184.441692 429.162725 184.681538 429.148562 184.921385 429.134126 185.161231 429.119417 185.401077 429.104431 185.640923 429.089168 185.880769 429.073626 186.120615 429.057804 186.360462 429.041699 186.600308 429.025310 186.840154 429.008636 187.080000 428.991675 187.319846 428.974425 187.559692 428.956884 187.799538 428.939052 188.039385 428.920926 188.279231 428.902504 188.519077 428.883786 188.758923 428.864769 188.998769 428.845453 189.238615 428.825834 189.478462 428.805912 189.718308 428.785685 189.958154 428.765151 190.198000 428.744309 190.437846 428.723157 190.677692 428.701693 190.917538 428.679917 191.157385 428.657825 191.397231 428.635417 191.637077 428.612691 191.876923 428.589645 192.116769 428.566279 192.356615 428.542591 192.596462 428.518581 192.836308 428.494251 193.076154 428.469599 193.316000 428.444625 193.555846 428.419330 193.795692 428.393714 194.035538 428.367777 194.275385 428.341518 194.515231 428.314938 194.755077 428.288036 194.994923 428.260814 195.234769 428.233269 195.474615 428.205404 195.714462 428.177217 195.954308 428.148708 196.194154 428.119878 196.434000 428.090727 196.673846 428.061254 196.913692 428.031460 197.153538 428.001345 197.393385 427.970908 197.633231 427.940150 197.873077 427.909070 198.112923 427.877669 198.352769 427.845946 198.592615 427.813902 198.832462 427.781536 199.072308 427.748849 199.312154 427.715841 199.552000 427.682511 199.791846 427.648860 200.031692 427.614887 200.271538 427.580592 200.511385 427.545977 200.751231 427.511039 200.991077 427.475780 201.230923 427.440200 201.470769 427.404298 201.710615 427.368075 201.950462 427.331530 202.190308 427.294664 202.430154 427.257476 202.670000 427.219966 202.909846 427.182135 203.149692 427.143983 203.389538 427.105509 203.629385 427.066713 203.869231 427.027596 204.109077 426.988157 204.348923 426.948397 204.588769 426.908315 204.828615 426.867912 205.068462 426.827187 205.308308 426.786140 205.548154 426.744772 205.788000 426.703082 206.027846 426.661071 206.267692 426.618738 206.507538 426.576083 206.747385 426.533107 206.987231 426.489809 207.227077 426.446190 207.466923 426.402249 207.706769 426.357986 207.946615 426.313402 208.186462 426.268496 208.426308 426.223268 208.666154 426.177719 208.906000 426.131848 209.145846 426.085655 209.385692 426.039141 209.625538 425.992305 209.865385 425.945148 210.105231 425.897668 210.345077 425.849867 210.584923 425.801745 210.824769 425.753300 211.064615 425.704534 211.304462 425.655446 211.544308 425.606037 211.784154 425.556306 212.024000 425.506253 212.263846 425.455878 212.503692 425.405182 212.743538 425.354164 212.983385 425.302824 213.223231 425.251162 213.463077 425.199179 213.702923 425.146874 213.942769 425.094247 214.182615 425.041298 214.422462 424.988028 214.662308 424.934436 214.902154 424.880522 215.142000 424.826286 215.381846 424.771729 215.621692 424.716849 215.861538 424.661648 216.101385 424.606125 216.341231 424.550281 216.581077 424.494114 216.820923 424.437626 217.060769 424.380815 217.300615 424.323683 217.540462 424.266230 217.780308 424.208454 218.020154 424.150356 218.260000 424.091937 218.499846 424.033196 218.739692 423.974133 218.979538 423.914748 219.219385 423.855041 219.459231 423.795012 219.699077 423.734662 219.938923 423.673989 220.178769 423.612995 220.418615 423.551679 220.658462 423.490041 220.898308 423.428081 221.138154 423.365799 221.378000 423.303195 221.617846 423.240269 221.857692 423.177021 222.097538 423.113452 222.337385 423.049560 222.577231 422.985347 222.817077 422.920811 223.056923 422.855954 223.296769 422.790775 223.536615 422.725273 223.776462 422.659450 224.016308 422.593305 224.256154 422.526838 224.496000 422.460049 224.735846 422.392938 224.975692 422.325505 225.215538 422.257750 225.455385 422.189672 225.695231 422.121273 225.935077 422.052552 226.174923 421.983509 226.414769 421.914144 226.654615 421.844457 226.894462 421.774448 227.134308 421.704117 227.374154 421.633463 227.614000 421.562488 227.853846 421.491191 228.093692 421.419572 228.333538 421.347630 228.573385 421.275367 228.813231 421.202781 229.053077 421.129874 229.292923 421.056644 229.532769 420.983092 229.772615 420.909218 230.012462 420.835022 230.252308 420.760504 230.492154 420.685664 230.732000 420.610502 230.971846 420.535018 231.211692 420.459211 231.451538 420.383083 231.691385 420.306632 231.931231 420.229860 232.171077 420.152765 232.410923 420.075348 232.650769 419.997608 232.890615 419.919547 233.130462 419.841164 233.370308 419.762458 233.610154 419.683430 233.850000 419.604080 234.089846 419.524408 234.329692 419.444414 234.569538 419.364097 234.809385 419.283459 235.049231 419.202498 235.289077 419.121215 235.528923 419.039609 235.768769 418.957682 236.008615 418.875432 236.248462 418.792860 236.488308 418.709966 236.728154 418.626750 236.968000 418.543211 237.207846 418.459351 237.447692 418.375167 237.687538 418.290662 237.927385 418.205835 238.167231 418.120685 238.407077 418.035213 238.646923 417.949419 238.886769 417.863302 239.126615 417.776863 239.366462 417.690102 239.606308 417.603019 239.846154 417.515613 240.086000 417.427885 240.325846 417.339835 240.565692 417.251462 240.805538 417.162767 241.045385 417.073750 241.285231 416.984410 241.525077 416.894749 241.764923 416.804764 242.004769 416.714458 242.244615 416.623829 242.484462 416.532878 242.724308 416.441604 242.964154 416.350008 243.204000 416.258090 243.443846 416.165850 243.683692 416.073287 243.923538 415.980401 244.163385 415.887194 244.403231 415.793664 244.643077 415.699811 244.882923 415.605636 245.122769 415.511139 245.362615 415.416319 245.602462 415.321177 245.842308 415.225713 246.082154 415.129926 246.322000 415.033817 246.561846 414.937385 246.801692 414.840631 247.041538 414.743554 247.281385 414.646155 247.521231 414.548434 247.761077 414.450390 248.000923 414.352023 248.240769 414.253334 248.480615 414.154323 248.720462 414.054989 248.960308 413.955333 249.200154 413.855354 249.440000 413.755053 249.679846 413.654429 249.919692 413.553483 250.159538 413.452214 250.399385 413.350623 250.639231 413.248710 250.879077 413.146473 251.118923 413.043915 251.358769 412.941033 251.598615 412.837830 251.838462 412.734303 252.078308 412.630454 252.318154 412.526281 252.558000 412.421783 252.797846 412.316958 253.037692 412.211805 253.277538 412.106322 253.517385 412.000508 253.757231 411.894362 253.997077 411.787883 254.236923 411.681068 254.476769 411.573917 254.716615 411.466427 254.956462 411.358599 255.196308 411.250430 255.436154 411.141918 255.676000 411.033064 255.915846 410.923864 256.155692 410.814318 256.395538 410.704425 256.635385 410.594182 256.875231 410.483589 257.115077 410.372644 257.354923 410.261346 257.594769 410.149693 257.834615 410.037684 258.074462 409.925317 258.314308 409.812592 258.554154 409.699506 258.794000 409.586059 259.033846 409.472249 259.273692 409.358074 259.513538 409.243534 259.753385 409.128626 259.993231 409.013350 260.233077 408.897703 260.472923 408.781686 260.712769 408.665295 260.952615 408.548530 261.192462 408.431390 261.432308 408.313872 261.672154 408.195976 261.912000 408.077701 262.151846 407.959044 262.391692 407.840005 262.631538 407.720581 262.871385 407.600772 263.111231 407.480577 263.351077 407.359993 263.590923 407.239020 263.830769 407.117655 264.070615 406.995899 264.310462 406.873748 264.550308 406.751202 264.790154 406.628260 265.030000 406.504920 265.269846 406.381181 265.509692 406.257040 265.749538 406.132498 265.989385 406.007552 266.229231 405.882201 266.469077 405.756444 266.708923 405.630279 266.948769 405.503705 267.188615 405.376720 267.428462 405.249324 267.668308 405.121514 267.908154 404.993289 268.148000 404.864649 268.387846 404.735590 268.627692 404.606113 268.867538 404.476216 269.107385 404.345897 269.347231 404.215154 269.587077 404.083988 269.826923 403.952395 270.066769 403.820375 270.306615 403.687927 270.546462 403.555048 270.786308 403.421738 271.026154 403.287995 271.266000 403.153818 271.505846 403.019205 271.745692 402.884155 271.985538 402.748666 272.225385 402.612738 272.465231 402.476368 272.705077 402.339556 272.944923 402.202300 273.184769 402.064598 273.424615 401.926449 273.664462 401.787853 273.904308 401.648806 274.144154 401.509309 274.384000 401.369359 274.623846 401.228955 274.863692 401.088096 275.103538 400.946780 275.343385 400.805007 275.583231 400.662774 275.823077 400.520080 276.062923 400.376924 276.302769 400.233304 276.542615 400.089220 276.782462 399.944669 277.022308 399.799650 277.262154 399.654162 277.502000 399.508204 277.741846 399.361773 277.981692 399.214869 278.221538 399.067490 278.461385 398.919636 278.701231 398.771303 278.941077 398.622492 279.180923 398.473200 279.420769 398.323426 279.660615 398.173170 279.900462 398.022428 280.140308 397.871201 280.380154 397.719487 280.620000 397.567284 280.859846 397.414590 281.099692 397.261405 281.339538 397.107727 281.579385 396.953555 281.819231 396.798887 282.059077 396.643722 282.298923 396.488059 282.538769 396.331895 282.778615 396.175230 283.018462 396.018063 283.258308 395.860391 283.498154 395.702214 283.738000 395.543530 283.977846 395.384338 284.217692 395.224636 284.457538 395.064423 284.697385 394.903697 284.937231 394.742458 285.177077 394.580703 285.416923 394.418432 285.656769 394.255642 285.896615 394.092333 286.136462 393.928503 286.376308 393.764151 286.616154 393.599276 286.856000 393.433875 287.095846 393.267948 287.335692 393.101493 287.575538 392.934508 287.815385 392.766993 288.055231 392.598946 288.295077 392.430366 288.534923 392.261251 288.774769 392.091599 289.014615 391.921410 289.254462 391.750682 289.494308 391.579413 289.734154 391.407603 289.974000 391.235249 290.213846 391.062351 290.453692 390.888907 290.693538 390.714915 290.933385 390.540375 291.173231 390.365284 291.413077 390.189642 291.652923 390.013447 291.892769 389.836698 292.132615 389.659392 292.372462 389.481530 292.612308 389.303109 292.852154 389.124127 293.092000 388.944585 293.331846 388.764480 293.571692 388.583810 293.811538 388.402576 294.051385 388.220774 294.291231 388.038403 294.531077 387.855463 294.770923 387.671952 295.010769 387.487869 295.250615 387.303211 295.490462 387.117978 295.730308 386.932168 295.970154 386.745781 296.210000 386.558813 296.449846 386.371265 296.689692 386.183135 296.929538 385.994420 297.169385 385.805121 297.409231 385.615235 297.649077 385.424761 297.888923 385.233698 298.128769 385.042044 298.368615 384.849798 298.608462 384.656959 298.848308 384.463525 299.088154 384.269494 299.328000 384.074866 299.567846 383.879639 299.807692 383.683811 300.047538 383.487381 300.287385 383.290348 300.527231 383.092710 300.767077 382.894467 301.006923 382.695616 301.246769 382.496156 301.486615 382.296085 301.726462 382.095404 301.966308 381.894109 302.206154 381.692199 302.446000 381.489674 302.685846 381.286532 302.925692 381.082770 303.165538 380.878389 303.405385 380.673387 303.645231 380.467761 303.885077 380.261512 304.124923 380.054637 304.364769 379.847135 304.604615 379.639004 304.844462 379.430243 305.084308 379.220852 305.324154 379.010828 305.564000 378.800169 305.803846 378.588876 306.043692 378.376945 306.283538 378.164377 306.523385 377.951169 306.763231 377.737319 307.003077 377.522828 307.242923 377.307693 307.482769 377.091912 307.722615 376.875485 307.962462 376.658410 308.202308 376.440686 308.442154 376.222311 308.682000 376.003283 308.921846 375.783603 309.161692 375.563267 309.401538 375.342275 309.641385 375.120625 309.881231 374.898316 310.121077 374.675346 310.360923 374.451715 310.600769 374.227420 310.840615 374.002461 311.080462 373.776835 311.320308 373.550542 311.560154 373.323580 311.800000 373.095948 312.039846 372.867644 312.279692 372.638672 312.519538 372.409033 312.759385 372.178729 312.999231 371.947765 313.239077 371.716141 313.478923 371.483861 313.718769 371.250927 313.958615 371.017342 314.198462 370.783107 314.438308 370.548227 314.678154 370.312703 314.918000 370.076538 315.157846 369.839734 315.397692 369.602294 315.637538 369.364221 315.877385 369.125517 316.117231 368.886184 316.357077 368.646226 316.596923 368.405644 316.836769 368.164441 317.076615 367.922621 317.316462 367.680184 317.556308 367.437135 317.796154 367.193474 318.036000 366.949206 318.275846 366.704333 318.515692 366.458856 318.755538 366.212779 318.995385 365.966104 319.235231 365.718834 319.475077 365.470972 319.714923 365.222519 319.954769 364.973478 320.194615 364.723852 320.434462 364.473644 320.674308 364.222856 320.914154 363.971490 321.154000 363.719550 321.393846 363.467037 321.633692 363.213954 321.873538 362.960304 322.113385 362.706089 322.353231 362.451312 322.593077 362.195975 322.832923 361.940082 323.072769 361.683634 323.312615 361.426634 323.552462 361.169084 323.792308 360.910988 324.032154 360.652347 324.272000 360.393164 324.511846 360.133442 324.751692 359.873184 324.991538 359.612391 325.231385 359.351067 325.471231 359.089214 325.711077 358.826834 325.950923 358.563930 326.190769 358.300505 326.430615 358.036561 326.670462 357.772100 326.910308 357.507126 327.150154 357.241641 327.390000 356.975647 327.629846 356.709147 327.869692 356.442143 328.109538 356.174638 328.349385 355.906635 328.589231 355.638136 328.829077 355.369143 329.068923 355.099659 329.308769 354.829688 329.548615 354.559230 329.788462 354.288290 330.028308 354.016868 330.268154 353.744969 330.508000 353.472594 330.747846 353.199746 330.987692 352.926427 331.227538 352.652641 331.467385 352.378389 331.707231 352.103674 331.947077 351.828500 332.186923 351.552867 332.426769 351.276779 332.666615 351.000239 332.906462 350.723248 333.146308 350.445810 333.386154 350.167927 333.626000 349.889602 333.865846 349.610836 334.105692 349.331634 334.345538 349.051996 334.585385 348.771926 334.825231 348.491427 335.065077 348.210500 335.304923 347.929149 335.544769 347.647376 335.784615 347.365183 336.024462 347.082573 336.264308 346.799549 336.504154 346.516113 336.744000 346.232268 336.983846 345.948015 337.223692 345.663359 337.463538 345.378301 337.703385 345.092844 337.943231 344.806990 338.183077 344.520742 338.422923 344.234102 338.662769 343.947074 338.902615 343.659659 339.142462 343.371861 339.382308 343.083681 339.622154 342.795122 339.862000 342.506187 340.101846 342.216879 340.341692 341.927199 340.581538 341.637151 340.821385 341.346737 341.061231 341.055959 341.301077 340.764820 341.540923 340.473323 341.780769 340.181471 342.020615 339.889264 342.260462 339.596708 342.500308 339.303802 342.740154 339.010552 342.980000 338.716958 343.219846 338.423024 343.459692 338.128751 343.699538 337.834143 343.939385 337.539203 344.179231 337.243932 344.419077 336.948333 344.658923 336.652409 344.898769 336.356162 345.138615 336.059595 345.378462 335.762710 345.618308 335.465510 345.858154 335.167998 346.098000 334.870176 346.337846 334.572046 346.577692 334.273612 346.817538 333.974875 347.057385 333.675838 347.297231 333.376504 347.537077 333.076875 347.776923 332.776955 348.016769 332.476744 348.256615 332.176247 348.496462 331.875465 348.736308 331.574401 348.976154 331.273058 349.216000 330.971437 349.455846 330.669543 349.695692 330.367377 349.935538 330.064941 350.175385 329.762239 350.415231 329.459273 350.655077 329.156045 350.894923 328.852558 351.134769 328.548815 351.374615 328.244817 351.614462 327.940569 351.854308 327.636071 352.094154 327.331327 352.334000 327.026340 352.573846 326.721111 352.813692 326.415643 353.053538 326.109940 353.293385 325.804003 353.533231 325.497834 353.773077 325.191438 354.012923 324.884815 354.252769 324.577969 354.492615 324.270903 354.732462 323.963618 354.972308 323.656117 355.212154 323.348403 355.452000 323.040479 355.691846 322.732346 355.931692 322.424008 356.171538 322.115467 356.411385 321.806725 356.651231 321.497786 356.891077 321.188651 357.130923 320.879323 357.370769 320.569805 357.610615 320.260100 357.850462 319.950209 358.090308 319.640136 358.330154 319.329882 358.570000 319.019451 358.809846 318.708845 359.049692 318.398067 359.289538 318.087119 359.529385 317.776003 359.769231 317.464723 360.009077 317.153280 360.248923 316.841678 360.488769 316.529919 360.728615 316.218005 360.968462 315.905939 361.208308 315.593723 361.448154 315.281361 361.688000 314.968854 361.927846 314.656205 362.167692 314.343417 362.407538 314.030492 362.647385 313.717433 362.887231 313.404243 363.127077 313.090923 363.366923 312.777476 363.606769 312.463906 363.846615 312.150214 364.086462 311.836403 364.326308 311.522476 364.566154 311.208435 364.806000 310.894283 365.045846 310.580022 365.285692 310.265655 365.525538 309.951184 365.765385 309.636612 366.005231 309.321941 366.245077 309.007175 366.484923 308.692315 366.724769 308.377364 366.964615 308.062325 367.204462 307.747200 367.444308 307.431992 367.684154 307.116702 367.924000 306.801335 368.163846 306.485892 368.403692 306.170377 368.643538 305.854790 368.883385 305.539136 369.123231 305.223416 369.363077 304.907633 369.602923 304.591790 369.842769 304.275889 370.082615 303.959933 370.322462 303.643924 370.562308 303.327866 370.802154 303.011759 371.042000 302.695607 371.281846 302.379413 371.521692 302.063179 371.761538 301.746908 372.001385 301.430602 372.241231 301.114268 372.481077 300.797912 372.720923 300.481540 372.960769 300.165159 373.200615 299.848776 373.440462 299.532396 373.680308 299.216026 373.920154 298.899673 374.160000 298.583343 374.399846 298.267042 374.639692 297.950777 374.879538 297.634554 375.119385 297.318380 375.359231 297.002262 375.599077 296.686204 375.838923 296.370215 376.078769 296.054300 376.318615 295.738466 376.558462 295.422719 376.798308 295.107066 377.038154 294.791513 377.278000 294.476067 377.517846 294.160734 377.757692 293.845520 377.997538 293.530432 378.237385 293.215476 378.477231 292.900659 378.717077 292.585987 378.956923 292.271466 379.196769 291.957104 379.436615 291.642906 379.676462 291.328879 379.916308 291.015029 380.156154 290.701362 380.396000 290.387886 380.635846 290.074607 380.875692 289.761530 381.115538 289.448663 381.355385 289.136012 381.595231 288.823583 381.835077 288.511382 382.074923 288.199417 382.314769 287.887693 382.554615 287.576218 382.794462 287.264996 383.034308 286.954036 383.274154 286.643343 383.514000 286.332923 383.753846 286.022784 383.993692 285.712931 384.233538 285.403371 384.473385 285.094111 384.713231 284.785156 384.953077 284.476514 385.192923 284.168191 385.432769 283.860192 385.672615 283.552525 385.912462 283.245196 386.152308 282.938212 386.392154 282.631578 386.632000 282.325301 386.871846 282.019389 387.111692 281.713846 387.351538 281.408680 387.591385 281.103897 387.831231 280.799503 388.071077 280.495505 388.310923 280.191910 388.550769 279.888723 388.790615 279.585951 389.030462 279.283601 389.270308 278.981679 389.510154 278.680191 389.750000 278.379144 389.989846 278.078544 390.229692 277.778398 390.469538 277.478712 390.709385 277.179492 390.949231 276.880746 391.189077 276.582479 391.428923 276.284698 391.668769 275.987409 391.908615 275.690619 392.148462 275.394333 392.388308 275.098560 392.628154 274.803304 392.868000 274.508573 393.107846 274.214373 393.347692 273.920709 393.587538 273.627590 393.827385 273.335021 394.067231 273.043008 394.307077 272.751558 394.546923 272.460678 394.786769 272.170373 395.026615 271.880651 395.266462 271.591517 395.506308 271.302978 395.746154 271.015041 395.986000 270.727712 396.225846 270.440998 396.465692 270.154904 396.705538 269.869437 396.945385 269.584605 397.185231 269.300412 397.425077 269.016866 397.664923 268.733972 397.904769 268.451739 398.144615 268.170171 398.384462 267.889275 398.624308 267.609058 398.864154 267.329526 399.104000 267.050685 399.343846 266.772543 399.583692 266.495105 399.823538 266.218378 400.063385 265.942368 400.303231 265.667081 400.543077 265.392525 400.782923 265.118705 401.022769 264.845629 401.262615 264.573301 401.502462 264.301730 401.742308 264.030921 401.982154 263.760880 402.222000 263.491615 402.461846 263.223131 402.701692 262.955435 402.941538 262.688533 403.181385 262.422432 403.421231 262.157139 403.661077 261.892659 403.900923 261.628999 404.140769 261.366166 404.380615 261.104166 404.620462 260.843005 404.860308 260.582690 405.100154 260.323227 405.340000 260.064623 405.579846 259.806884 405.819692 259.550017 406.059538 259.294027 406.299385 259.038922 406.539231 258.784708 406.779077 258.531391 407.018923 258.278978 407.258769 258.027474 407.498615 257.776888 407.738462 257.527224 407.978308 257.278490 408.218154 257.030691 408.458000 256.783835 408.697846 256.537927 408.937692 256.292974 409.177538 256.048983 409.417385 255.805960 409.657231 255.563912 409.897077 255.322844 410.136923 255.082763 410.376769 254.843676 410.616615 254.605589 410.856462 254.368509 411.096308 254.132442 411.336154 253.897394 411.576000 253.663372 411.815846 253.430382 412.055692 253.198430 412.295538 252.967524 412.535385 252.737670 412.775231 252.508873 413.015077 252.281141 413.254923 252.054479 413.494769 251.828895 413.734615 251.604394 413.974462 251.380984 414.214308 251.158670 414.454154 250.937459 414.694000 250.717357 414.933846 250.498372 415.173692 250.280508 415.413538 250.063773 415.653385 249.848173 415.893231 249.633715 416.133077 249.420405 416.372923 249.208249 416.612769 248.997254 416.852615 248.787426 417.092462 248.578771 417.332308 248.371297 417.572154 248.165010 417.812000 247.959915 418.051846 247.756020 418.291692 247.553330 418.531538 247.351853 418.771385 247.151594 419.011231 246.952561 419.251077 246.754759 419.490923 246.558195 419.730769 246.362875 419.970615 246.168806 420.210462 245.975995 420.450308 245.784447 420.690154 245.594169 420.930000 245.405167 421.169846 245.217449 421.409692 245.031020 421.649538 244.845887 421.889385 244.662056 422.129231 244.479533 422.369077 244.298326 422.608923 244.118440 422.848769 243.939883 423.088615 243.762659 423.328462 243.586777 423.568308 243.412241 423.808154 243.239060 424.048000 243.067238 424.287846 242.896783 424.527692 242.727701 424.767538 242.559998 425.007385 242.393681 425.247231 242.228756 425.487077 242.065230 425.726923 241.903109 425.966769 241.742399 426.206615 241.583108 426.446462 241.425241 426.686308 241.268804 426.926154 241.113805 427.166000 240.960250 427.405846 240.808144 427.645692 240.657495 427.885538 240.508309 428.125385 240.360593 428.365231 240.214352 428.605077 240.069593 428.844923 239.926323 429.084769 239.784548 429.324615 239.644275 429.564462 239.505510 429.804308 239.368259 430.044154 239.232528 430.284000 239.098325 430.523846 238.965656 430.763692 238.834527 431.003538 238.704944 431.243385 238.576914 431.483231 238.450444 431.723077 238.325539 431.962923 238.202202 432.202769 238.080419 432.442615 237.960169 432.682462 237.841434 432.922308 237.724195 433.162154 237.608433 433.402000 237.494127 433.641846 237.381261 433.881692 237.269813 434.121538 237.159766 434.361385 237.051099 434.601231 236.943794 434.841077 236.837832 435.080923 236.733194 435.320769 236.629860 435.560615 236.527811 435.800462 236.427029 436.040308 236.327493 436.280154 236.229185 436.520000 236.132087 436.759846 236.036177 436.999692 235.941439 437.239538 235.847852 437.479385 235.755397 437.719231 235.664055 437.959077 235.573807 438.198923 235.484634 438.438769 235.396517 438.678615 235.309437 438.918462 235.223374 439.158308 235.138309 439.398154 235.054224 439.638000 234.971098 439.877846 234.888914 440.117692 234.807652 440.357538 234.727292 440.597385 234.647816 440.837231 234.569205 441.077077 234.491439 441.316923 234.414499 441.556769 234.338366 441.796615 234.263021 442.036462 234.188445 442.276308 234.114619 442.516154 234.041523 442.756000 233.969139 442.995846 233.897447 443.235692 233.826428 443.475538 233.756063 443.715385 233.686333 443.955231 233.617220 444.195077 233.548702 444.434923 233.480763 444.674769 233.413382 444.914615 233.346540 445.154462 233.280218 445.394308 233.214397 445.634154 233.149058 445.874000 233.084182 446.113846 233.019750 446.353692 232.955742 446.593538 232.892140 446.833385 232.828924 447.073231 232.766075 447.313077 232.703574 447.552923 232.641402 447.792769 232.579540 448.032615 232.517968 448.272462 232.456668 448.512308 232.395621 448.752154 232.334806 448.992000 232.274206 449.231846 232.213801 449.471692 232.153571 449.711538 232.093498 449.951385 232.033563 450.191231 231.973747 450.431077 231.914030 450.670923 231.854393 450.910769 231.794817 451.150615 231.735283 451.390462 231.675772 451.630308 231.616264 451.870154 231.556742 452.110000 231.497184 452.349846 231.437573 452.589692 231.377890 452.829538 231.318114 453.069385 231.258227 453.309231 231.198210 453.549077 231.138044 453.788923 231.077709 454.028769 231.017187 454.268615 230.956458 454.508462 230.895504 454.748308 230.834304 454.988154 230.772840 455.228000 230.711093 455.467846 230.649044 455.707692 230.586673 455.947538 230.523962 456.187385 230.460891 456.427231 230.397441 456.667077 230.333593 456.906923 230.269328 457.146769 230.204627 457.386615 230.139471 457.626462 230.073840 457.866308 230.007715 458.106154 229.941078 458.346000 229.873909 458.585846 229.806188 458.825692 229.737898 459.065538 229.669019 459.305385 229.599531 459.545231 229.529415 459.785077 229.458653 460.024923 229.387225 460.264769 229.315112 460.504615 229.242296 460.744462 229.168756 460.984308 229.094473 461.224154 229.019430 461.464000 228.943606 461.703846 228.866982 461.943692 228.789539 462.183538 228.711259 462.423385 228.632121 462.663231 228.552108 462.903077 228.471198 463.142923 228.389375 463.382769 228.306618 463.622615 228.222908 463.862462 228.138227 464.102308 228.052554 464.342154 227.965872 464.582000 227.878160 464.821846 227.789400 465.061692 227.699573 465.301538 227.608659 465.541385 227.516639 465.781231 227.423494 466.021077 227.329206 466.260923 227.233754 466.500769 227.137120 466.740615 227.039285 466.980462 226.940229 467.220308 226.839934 467.460154 226.738380 467.700000 226.635548 467.939846 226.531419 468.179692 226.425974 468.419538 226.319193 468.659385 226.211059 468.899231 226.101550 469.139077 225.990650 469.378923 225.878337 469.618769 225.764594 469.858615 225.649400 470.098462 225.532738 470.338308 225.414587 470.578154 225.294928 470.818000 225.173744 471.057846 225.051013 471.297692 224.926718 471.537538 224.800839 471.777385 224.673357 472.017231 224.544252 472.257077 224.413506 472.496923 224.281100 472.736769 224.147015 472.976615 224.011230 473.216462 223.873728 473.456308 223.734489 473.696154 223.593494 473.936000 223.450724 474.175846 223.306159 474.415692 223.159781 474.655538 223.011570 474.895385 222.861508 475.135231 222.709575 475.375077 222.555752 475.614923 222.400019 475.854769 222.242359 476.094615 222.082751 476.334462 221.921177 476.574308 221.757617 476.814154 221.592052 477.054000 221.424464 477.293846 221.254832 477.533692 221.083139 477.773538 220.909364 478.013385 220.733489 478.253231 220.555494 478.493077 220.375361 478.732923 220.193069 478.972769 220.008601 479.212615 219.821938 479.452462 219.633058 479.692308 219.441945 479.932154 219.248578 480.172000 219.052939 480.411846 218.855008 480.651692 218.654766 480.891538 218.452195 481.131385 218.247274 481.371231 218.039985 481.611077 217.830309 481.850923 217.618226 482.090769 217.403718 482.330615 217.186766 482.570462 216.967349 482.810308 216.745449 483.050154 216.521048 483.290000 216.294125 483.529846 216.064662 483.769692 215.832639 484.009538 215.598038 484.249385 215.360840 484.489231 215.121024 484.729077 214.878572 484.968923 214.633466 485.208769 214.385685 485.448615 214.135211 485.688462 213.882024 485.928308 213.626106 486.168154 213.367437 486.408000 213.105998 486.647846 212.841770 486.887692 212.574734 487.127538 212.304871 487.367385 212.032161 487.607231 211.756586 487.847077 211.478126 488.086923 211.196763 488.326769 210.912477 488.566615 210.625248 488.806462 210.335059 489.046308 210.041889 489.286154 209.745720 489.526000 209.446533 489.765846 209.144307 490.005692 208.839025 490.245538 208.530667 490.485385 208.219214 490.725231 207.904647 490.965077 207.586947 491.204923 207.266094 491.444769 206.942070 491.684615 206.614855 491.924462 206.284436 492.164308 205.950830 492.404154 205.614056 492.644000 205.274137 492.883846 204.931094 493.123692 204.584947 493.363538 204.235719 493.603385 203.883431 493.843231 203.528104 494.083077 203.169760 494.322923 202.808419 494.562769 202.444104 494.802615 202.076836 495.042462 201.706636 495.282308 201.333525 495.522154 200.957525 495.762000 200.578657 496.001846 200.196943 496.241692 199.812404 496.481538 199.425061 496.721385 199.034936 496.961231 198.642050 497.201077 198.246425 497.440923 197.848081 497.680769 197.447041 497.920615 197.043325 498.160462 196.636955 498.400308 196.227953 498.640154 195.816339 498.880000 195.402136 499.119846 194.985364 499.359692 194.566044 499.599538 194.144199 499.839385 193.719850 500.079231 193.293018 500.319077 192.863724 500.558923 192.431990 500.798769 191.997837 501.038615 191.561286 501.278462 191.122359 501.518308 190.681078 501.758154 190.237463 501.998000 189.791536 502.237846 189.343319 502.477692 188.892832 502.717538 188.440098 502.957385 187.985137 503.197231 187.527971 503.437077 187.068621 503.676923 186.607108 503.916769 186.143455 504.156615 185.677683 504.396462 185.209812 504.636308 184.739864 504.876154 184.267860 505.116000 183.793823 505.355846 183.317773 505.595692 182.839731 505.835538 182.359720 506.075385 181.877760 506.315231 181.393872 506.555077 180.908079 506.794923 180.420402 507.034769 179.930861 507.274615 179.439479 507.514462 178.946276 507.754308 178.451274 507.994154 177.954495 508.234000 177.455960 508.473846 176.955689 508.713692 176.453706 508.953538 175.950030 509.193385 175.444683 509.433231 174.937687 509.673077 174.429064 509.912923 173.918833 510.152769 173.407018 510.392615 172.893638 510.632462 172.378717 510.872308 171.862274 511.112154 171.344331 511.352000 170.824910 511.591846 170.304033 511.831692 169.781719 512.071538 169.257992 512.311385 168.732871 512.551231 168.206380 512.791077 167.678538 513.030923 167.149367 513.270769 166.618889 513.510615 166.087126 513.750462 165.554097 513.990308 165.019826 514.230154 164.484333 514.470000 163.947639 514.709846 163.409766 514.949692 162.870736 515.189538 162.330569 515.429385 161.789288 515.669231 161.246913 515.909077 160.703465 516.148923 160.158967 516.388769 159.613440 516.628615 159.066904 516.868462 158.519382 517.108308 157.970895 517.348154 157.421463 517.588000 156.871110 517.827846 156.319855 518.067692 155.767720 518.307538 155.214727 518.547385 154.660896 518.787231 154.106251 519.027077 153.550810 519.266923 152.994597 519.506769 152.437633 519.746615 151.879938 519.986462 151.321535 520.226308 150.762444 520.466154 150.202687 520.706000 149.642286 520.945846 149.081261 521.185692 148.519635 521.425538 147.957427 521.665385 147.394661 521.905231 146.831357 522.145077 146.267537 522.384923 145.703222 522.624769 145.138433 522.864615 144.573192 523.104462 144.007519 523.344308 143.441438 523.584154 142.874968 523.824000 142.308132 524.063846 141.740950 524.303692 141.173444 524.543538 140.605636 524.783385 140.037546 525.023231 139.469197 525.263077 138.900609 525.502923 138.331804 525.742769 137.762803 525.982615 137.193628 526.222462 136.624300 526.462308 136.054840 526.702154 135.485270 526.942000 134.915612 527.181846 134.345885 527.421692 133.776113 527.661538 133.206316 527.901385 132.636516 528.141231 132.066733 528.381077 131.496990 528.620923 130.927308 528.860769 130.357708 529.100615 129.788212 529.340462 129.218840 529.580308 128.649615 529.820154 128.080557 530.060000 127.511689 530.299846 126.943031 530.539692 126.374604 530.779538 125.806431 531.019385 125.238533 531.259231 124.670930 531.499077 124.103645 531.738923 123.536698 531.978769 122.970112 532.218615 122.403906 532.458462 121.838104 532.698308 121.272726 532.938154 120.707793 533.178000 120.143328 533.417846 119.579350 533.657692 119.015883 533.897538 118.452946 534.137385 117.890562 534.377231 117.328752 534.617077 116.767537 534.856923 116.206938 535.096769 115.646977 535.336615 115.087676 535.576462 114.529056 535.816308 113.971137 536.056154 113.413942 536.296000 112.857492 536.535846 112.301808 536.775692 111.746912 537.015538 111.192824 537.255385 110.639567 537.495231 110.087162 537.735077 109.535629 537.974923 108.984992 538.214769 108.435270 538.454615 107.886485 538.694462 107.338659 538.934308 106.791813 539.174154 106.245968 539.414000 105.701146 539.653846 105.157368 539.893692 104.614655 540.133538 104.073029 540.373385 103.532512 540.613231 102.993124 540.853077 102.454887 541.092923 101.917823 541.332769 101.381952 541.572615 100.847297 541.812462 100.313877 542.052308 99.781716 542.292154 99.250834 542.532000 98.721253 542.771846 98.192993 543.011692 97.666077 543.251538 97.140526 543.491385 96.616361 543.731231 96.093603 543.971077 95.572274 544.210923 95.052396 544.450769 94.533989 544.690615 94.017075 544.930462 93.501675 545.170308 92.987812 545.410154 92.475505 545.650000 91.964777 545.889846 91.455649 546.129692 90.948142 546.369538 90.442278 546.609385 89.938077 546.849231 89.435562 547.089077 88.934754 547.328923 88.435674 547.568769 87.938344 547.808615 87.442784 548.048462 86.949017 548.288308 86.457063 548.528154 85.966945 548.768000 85.478683 549.007846 84.992298 549.247692 84.507813 549.487538 84.025248 549.727385 83.544625 549.967231 83.065966 550.207077 82.589291 550.446923 82.114622 550.686769 81.641981 550.926615 81.171388 551.166462 80.702866 551.406308 80.236435 551.646154 79.772117 551.886000 79.309928 552.125846 78.849865 552.365692 78.391920 552.605538 77.936083 552.845385 77.482346 553.085231 77.030701 553.325077 76.581138 553.564923 76.133651 553.804769 75.688229 554.044615 75.244865 554.284462 74.803550 554.524308 74.364275 554.764154 73.927032 555.004000 73.491812 555.243846 73.058608 555.483692 72.627409 555.723538 72.198208 555.963385 71.770996 556.203231 71.345765 556.443077 70.922506 556.682923 70.501211 556.922769 70.081870 557.162615 69.664476 557.402462 69.249020 557.642308 68.835493 557.882154 68.423888 558.122000 68.014194 558.361846 67.606405 558.601692 67.200510 558.841538 66.796502 559.081385 66.394373 559.321231 65.994113 559.561077 65.595714 559.800923 65.199168 560.040769 64.804466 560.280615 64.411599 560.520462 64.020560 560.760308 63.631339 561.000154 63.243927 561.240000 62.858317 561.479846 62.474500 561.719692 62.092467 561.959538 61.712210 562.199385 61.333720 562.439231 60.956989 562.679077 60.582007 562.918923 60.208768 563.158769 59.837261 563.398615 59.467479 563.638462 59.099413 563.878308 58.733054 564.118154 58.368395 564.358000 58.005425 564.597846 57.644138 564.837692 57.284523 565.077538 56.926574 565.317385 56.570281 565.557231 56.215635 565.797077 55.862628 566.036923 55.511253 566.276769 55.161499 566.516615 54.813359 566.756462 54.466823 566.996308 54.121884 567.236154 53.778534 567.476000 53.436762 567.715846 53.096561 567.955692 52.757923 568.195538 52.420838 568.435385 52.085299 568.675231 51.751296 568.915077 51.418822 569.154923 51.087867 569.394769 50.758423 569.634615 50.430482 569.874462 50.104035 570.114308 49.779073 570.354154 49.455588 570.594000 49.133571 570.833846 48.813015 571.073692 48.493910 571.313538 48.176247 571.553385 47.860019 571.793231 47.545216 572.033077 47.231831 572.272923 46.919854 572.512769 46.609278 572.752615 46.300093 572.992462 45.992291 573.232308 45.685863 573.472154 45.380801 573.712000 45.077097 573.951846 44.774742 574.191692 44.473727 574.431538 44.174044 574.671385 43.875684 574.911231 43.578639 575.151077 43.282900 575.390923 42.988459 575.630769 42.695306 575.870615 42.403435 576.110462 42.112835 576.350308 41.823499 576.590154 41.535418 576.830000 41.248583 577.069846 40.962986 577.309692 40.678619 577.549538 40.395472 577.789385 40.113538 578.029231 39.832808 578.269077 39.553272 578.508923 39.274923 578.748769 38.997753 578.988615 38.721752 579.228462 38.446912 579.468308 38.173225 579.708154 37.900681 579.948000 37.629273 580.187846 37.358992 580.427692 37.089829 580.667538 36.821777 580.907385 36.554825 581.147231 36.288966 581.387077 36.024192 581.626923 35.760493 581.866769 35.497861 582.106615 35.236288 582.346462 34.975765 582.586308 34.716283 582.826154 34.457835 583.066000 34.200411 583.305846 33.944003 583.545692 33.688602 583.785538 33.434200 584.025385 33.180789 584.265231 32.928359 584.505077 32.676902 584.744923 32.426410 584.984769 32.176875 585.224615 31.928287 585.464462 31.680638 585.704308 31.433919 585.944154 31.188123 586.184000 30.943240 586.423846 30.699262 586.663692 30.456181 586.903538 30.213987 587.143385 29.972673 587.383231 29.732229 587.623077 29.492648 587.862923 29.253920 588.102769 29.016038 588.342615 28.778992 588.582462 28.542774 588.822308 28.307376 589.062154 28.072789 589.302000 27.839005 589.541846 27.606014 589.781692 27.373809 590.021538 27.142381 590.261385 26.911721 590.501231 26.681820 590.741077 26.452672 590.980923 26.224266 591.220769 25.996594 591.460615 25.769647 591.700462 25.543418 591.940308 25.317898 592.180154 25.093077 592.420000 24.868948 592.659846 24.645502 592.899692 24.422731 593.139538 24.200625 593.379385 23.979177 593.619231 23.758377 593.859077 23.538218 594.098923 23.318691 594.338769 23.099786 594.578615 22.881497 594.818462 22.663813 595.058308 22.446728 595.298154 22.230231 595.538000 22.014315 595.777846 21.798970 596.017692 21.584190 596.257538 21.369964 596.497385 21.156284 596.737231 20.943143 596.977077 20.730530 597.216923 20.518439 597.456769 20.306860 597.696615 20.095784 597.936462 19.885204 598.176308 19.675110 598.416154 19.465494 598.656000 19.256348 598.895846 19.047663 599.135692 18.839430 599.375538 18.631641 599.615385 18.424288 599.855231 18.217361 600.095077 18.010853 600.334923 17.804754 600.574769 17.599057 600.814615 17.393753 601.054462 17.188833 601.294308 16.984288 601.534154 16.780110 601.774000 16.576291 602.013846 16.372822 602.253692 16.169695 602.493538 15.966900 602.733385 15.764430 602.973231 15.562276 603.213077 15.360429 603.452923 15.158881 603.692769 14.957623 603.932615 14.756647 604.172462 14.555944 604.412308 14.355506 604.652154 14.155324 604.892000 13.955389 605.131846 13.755694 605.371692 13.556229 605.611538 13.356985 605.851385 13.157956 606.091231 12.959131 606.331077 12.760503 606.570923 12.562062 606.810769 12.363801 607.050615 12.165710 607.290462 11.967782 607.530308 11.770007 607.770154 11.572378 608.010000 11.374885 608.249846 11.177520 608.489692 10.980275 608.729538 10.783140 608.969385 10.586108 609.209231 10.389170 609.449077 10.192318 609.688923 9.995542 609.928769 9.798834 610.168615 9.602187 610.408462 9.405590 610.648308 9.209036 610.888154 9.012516 611.128000 8.816022 611.367846 8.619545 611.607692 8.423077" class="line reactive nofill"/></g></g><g class="titles"><text x="400.0" y="26" class="title plot_title">COVID-19 | Mato Grosso do Sul</text><text x="400.0" y="52" class="title plot_title"> Fonte: jhoonb.github.io/corona</text></g><g transform="translate(156, 72)" class="plot overlay"><g class="series serie-0 color-0"><g class="dots"><circle cx="11.992307692307692" cy="428.5896454712024" r="2.5" class="dot reactive tooltip-trigger"/><desc class="value">0</desc><desc class="x top">11.992307692307692</desc><desc class="y top">428.5896454712024</desc><desc class="x_label">28-02-2020</desc></g><g class="dots"><circle cx="71.95384615384616" cy="428.5896454712024" r="2.5" class="dot reactive tooltip-trigger"/><desc class="value">0</desc><desc class="x top">71.95384615384616</desc><desc class="y top">428.5896454712024</desc><desc class="x_label">04-03-2020</desc></g><g class="dots"><circle cx="131.91538461538462" cy="428.5896454712024" r="2.5" class="dot reactive tooltip-trigger"/><desc class="value">0</desc><desc class="x top">131.91538461538462</desc><desc class="y top">428.5896454712024</desc><desc class="x_label">09-03-2020</desc></g><g class="dots"><circle cx="191.87692307692308" cy="428.5896454712024" r="2.5" class="dot reactive tooltip-trigger"/><desc class="value">0</desc><desc class="x top">191.87692307692308</desc><desc class="y top">428.5896454712024</desc><desc class="x_label">12-03-2020</desc></g><g class="dots"><circle cx="251.83846153846156" cy="412.73430326183916" r="2.5" class="dot reactive tooltip-trigger"/><desc class="value">2</desc><desc class="x top">251.83846153846156</desc><desc class="y top">412.73430326183916</desc><desc class="x_label">15-03-2020</desc></g><g class="dots"><circle cx="311.8" cy="373.0959477384311" r="2.5" class="dot reactive tooltip-trigger"/><desc class="value">7</desc><desc class="x top">311.8</desc><desc class="y top">373.0959477384311</desc><desc class="x_label">18-03-2020</desc></g><g class="dots"><circle cx="371.76153846153846" cy="301.74690779629657" r="2.5" class="dot reactive tooltip-trigger"/><desc class="value">16</desc><desc class="x left top">371.76153846153846</desc><desc class="y left top">301.74690779629657</desc><desc class="x_label">21-03-2020</desc></g><g class="dots"><circle cx="431.7230769230769" cy="238.3255389588437" r="2.5" class="dot reactive tooltip-trigger"/><desc class="value">24</desc><desc class="x left top">431.7230769230769</desc><desc class="y left top">238.3255389588437</desc><desc class="x_label">24-03-2020</desc></g><g class="dots"><circle cx="491.6846153846154" cy="206.61485454011725" r="2.5" class="dot reactive tooltip-trigger"/><desc class="value">28</desc><desc class="x left">491.6846153846154</desc><desc class="y left">206.61485454011725</desc><desc class="x_label">27-03-2020</desc></g><g class="dots"><circle cx="551.6461538461538" cy="79.77211686521144" r="2.5" class="dot reactive tooltip-trigger"/><desc class="value">44</desc><desc class="x left">551.6461538461538</desc><desc class="y left">79.77211686521144</desc><desc class="x_label">30-03-2020</desc></g><g class="dots"><circle cx="611.6076923076923" cy="8.423076923076906" r="2.5" class="dot reactive tooltip-trigger"/><desc class="value">53</desc><desc class="x left">611.6076923076923</desc><desc class="y left">8.423076923076906</desc><desc class="x_label">02-04-2020</desc></g></g></g><g transform="translate(156, 72)" class="plot text-overlay"><g class="series serie-0 color-0"><text text-anchor="left" x="27.99230769230769" y="449.9229788045357" class="value">0</text><text text-anchor="left" x="87.95384615384616" y="449.9229788045357" class="value">0</text><text text-anchor="left" x="147.91538461538462" y="449.9229788045357" class="value">0</text><text text-anchor="left" x="207.87692307692308" y="449.9229788045357" class="value">0</text><text text-anchor="left" x="267.83846153846156" y="434.0676365951725" class="value">2</text><text text-anchor="left" x="327.8" y="394.4292810717644" class="value">7</text><text text-anchor="left" x="387.76153846153846" y="323.0802411296299" class="value">16</text><text text-anchor="left" x="447.7230769230769" y="259.658872292177" class="value">24</text><text text-anchor="left" x="507.6846153846154" y="227.9481878734506" class="value">28</text><text text-anchor="left" x="567.6461538461538" y="101.10545019854477" class="value">44</text><text text-anchor="left" x="627.6076923076923" y="29.756410256410238" class="value">53</text></g></g><g transform="translate(156, 72)" class="plot tooltip-overlay"><g transform="translate(0 0)" style="opacity: 0" class="tooltip"><rect rx="0" ry="0" width="0" height="0" class="tooltip-box"/><g class="text"/></g></g><g transform="translate(10, 82)" class="legends"><g id="activate-serie-0" class="legend reactive activate-serie"><rect x="0.0" y="1.0" width="12" height="12" class="color-0 reactive"/><text x="17.0" y="11.2">Confirmados</text></g></g><g transform="translate(790, 82)" class="legends"/></g></svg>