<?xml version='1.0' encoding='utf-8'?>
<svg xmlns="http://www.w3.org/2000/svg" xmlns:xlink="http://www.w3.org/1999/xlink" id="chart-4c89ee43-d2ba-4a53-ba91-75337e798c47" class="pygal-chart" viewBox="0 0 800 600"><!--Generated with pygal 2.4.0 (lxml) ©Kozea 2012-2016 on 2020-05-11--><!--http://pygal.org--><!--http://github.com/Kozea/pygal--><defs><style type="text/css">#chart-4c89ee43-d2ba-4a53-ba91-75337e798c47{-webkit-user-select:none;-webkit-font-smoothing:antialiased;font-family:Consolas,"Liberation Mono",Menlo,Courier,monospace}#chart-4c89ee43-d2ba-4a53-ba91-75337e798c47 .title{font-family:Consolas,"Liberation Mono",Menlo,Courier,monospace;font-size:16px}#chart-4c89ee43-d2ba-4a53-ba91-75337e798c47 .legends .legend text{font-family:Consolas,"Liberation Mono",Menlo,Courier,monospace;font-size:14px}#chart-4c89ee43-d2ba-4a53-ba91-75337e798c47 .axis text{font-family:Consolas,"Liberation Mono",Menlo,Courier,monospace;font-size:10px}#chart-4c89ee43-d2ba-4a53-ba91-75337e798c47 .axis text.major{font-family:Consolas,"Liberation Mono",Menlo,Courier,monospace;font-size:10px}#chart-4c89ee43-d2ba-4a53-ba91-75337e798c47 .text-overlay text.value{font-family:Consolas,"Liberation Mono",Menlo,Courier,monospace;font-size:16px}#chart-4c89ee43-d2ba-4a53-ba91-75337e798c47 .text-overlay text.label{font-family:Consolas,"Liberation Mono",Menlo,Courier,monospace;font-size:10px}#chart-4c89ee43-d2ba-4a53-ba91-75337e798c47 .tooltip{font-family:Consolas,"Liberation Mono",Menlo,Courier,monospace;font-size:14px}#chart-4c89ee43-d2ba-4a53-ba91-75337e798c47 text.no_data{font-family:Consolas,"Liberation Mono",Menlo,Courier,monospace;font-size:64px}
#chart-4c89ee43-d2ba-4a53-ba91-75337e798c47{background-color:rgba(249,249,249,1)}#chart-4c89ee43-d2ba-4a53-ba91-75337e798c47 path,#chart-4c89ee43-d2ba-4a53-ba91-75337e798c47 line,#chart-4c89ee43-d2ba-4a53-ba91-75337e798c47 rect,#chart-4c89ee43-d2ba-4a53-ba91-75337e798c47 circle{-webkit-transition:150ms;-moz-transition:150ms;transition:150ms}#chart-4c89ee43-d2ba-4a53-ba91-75337e798c47 .graph &gt; .background{fill:rgba(249,249,249,1)}#chart-4c89ee43-d2ba-4a53-ba91-75337e798c47 .plot &gt; .background{fill:rgba(255,255,255,1)}#chart-4c89ee43-d2ba-4a53-ba91-75337e798c47 .graph{fill:rgba(0,0,0,.87)}#chart-4c89ee43-d2ba-4a53-ba91-75337e798c47 text.no_data{fill:rgba(0,0,0,1)}#chart-4c89ee43-d2ba-4a53-ba91-75337e798c47 .title{fill:rgba(0,0,0,1)}#chart-4c89ee43-d2ba-4a53-ba91-75337e798c47 .legends .legend text{fill:rgba(0,0,0,.87)}#chart-4c89ee43-d2ba-4a53-ba91-75337e798c47 .legends .legend:hover text{fill:rgba(0,0,0,1)}#chart-4c89ee43-d2ba-4a53-ba91-75337e798c47 .axis .line{stroke:rgba(0,0,0,1)}#chart-4c89ee43-d2ba-4a53-ba91-75337e798c47 .axis .guide.line{stroke:rgba(0,0,0,.54)}#chart-4c89ee43-d2ba-4a53-ba91-75337e798c47 .axis .major.line{stroke:rgba(0,0,0,.87)}#chart-4c89ee43-d2ba-4a53-ba91-75337e798c47 .axis text.major{fill:rgba(0,0,0,1)}#chart-4c89ee43-d2ba-4a53-ba91-75337e798c47 .axis.y .guides:hover .guide.line,#chart-4c89ee43-d2ba-4a53-ba91-75337e798c47 .line-graph .axis.x .guides:hover .guide.line,#chart-4c89ee43-d2ba-4a53-ba91-75337e798c47 .stackedline-graph .axis.x .guides:hover .guide.line,#chart-4c89ee43-d2ba-4a53-ba91-75337e798c47 .xy-graph .axis.x .guides:hover .guide.line{stroke:rgba(0,0,0,1)}#chart-4c89ee43-d2ba-4a53-ba91-75337e798c47 .axis .guides:hover text{fill:rgba(0,0,0,1)}#chart-4c89ee43-d2ba-4a53-ba91-75337e798c47 .reactive{fill-opacity:.7;stroke-opacity:.8}#chart-4c89ee43-d2ba-4a53-ba91-75337e798c47 .ci{stroke:rgba(0,0,0,.87)}#chart-4c89ee43-d2ba-4a53-ba91-75337e798c47 .reactive.active,#chart-4c89ee43-d2ba-4a53-ba91-75337e798c47 .active .reactive{fill-opacity:.8;stroke-opacity:.9;stroke-width:4}#chart-4c89ee43-d2ba-4a53-ba91-75337e798c47 .ci .reactive.active{stroke-width:1.5}#chart-4c89ee43-d2ba-4a53-ba91-75337e798c47 .series text{fill:rgba(0,0,0,1)}#chart-4c89ee43-d2ba-4a53-ba91-75337e798c47 .tooltip rect{fill:rgba(255,255,255,1);stroke:rgba(0,0,0,1);-webkit-transition:opacity 150ms;-moz-transition:opacity 150ms;transition:opacity 150ms}#chart-4c89ee43-d2ba-4a53-ba91-75337e798c47 .tooltip .label{fill:rgba(0,0,0,.87)}#chart-4c89ee43-d2ba-4a53-ba91-75337e798c47 .tooltip .label{fill:rgba(0,0,0,.87)}#chart-4c89ee43-d2ba-4a53-ba91-75337e798c47 .tooltip .legend{font-size:.8em;fill:rgba(0,0,0,.54)}#chart-4c89ee43-d2ba-4a53-ba91-75337e798c47 .tooltip .x_label{font-size:.6em;fill:rgba(0,0,0,1)}#chart-4c89ee43-d2ba-4a53-ba91-75337e798c47 .tooltip .xlink{font-size:.5em;text-decoration:underline}#chart-4c89ee43-d2ba-4a53-ba91-75337e798c47 .tooltip .value{font-size:1.5em}#chart-4c89ee43-d2ba-4a53-ba91-75337e798c47 .bound{font-size:.5em}#chart-4c89ee43-d2ba-4a53-ba91-75337e798c47 .max-value{font-size:.75em;fill:rgba(0,0,0,.54)}#chart-4c89ee43-d2ba-4a53-ba91-75337e798c47 .map-element{fill:rgba(255,255,255,1);stroke:rgba(0,0,0,.54) !important}#chart-4c89ee43-d2ba-4a53-ba91-75337e798c47 .map-element .reactive{fill-opacity:inherit;stroke-opacity:inherit}#chart-4c89ee43-d2ba-4a53-ba91-75337e798c47 .color-0,#chart-4c89ee43-d2ba-4a53-ba91-75337e798c47 .color-0 a:visited{stroke:#F44336;fill:#F44336}#chart-4c89ee43-d2ba-4a53-ba91-75337e798c47 .text-overlay .color-0 text{fill:black}
#chart-4c89ee43-d2ba-4a53-ba91-75337e798c47 text.no_data{text-anchor:middle}#chart-4c89ee43-d2ba-4a53-ba91-75337e798c47 .guide.line{fill:none}#chart-4c89ee43-d2ba-4a53-ba91-75337e798c47 .centered{text-anchor:middle}#chart-4c89ee43-d2ba-4a53-ba91-75337e798c47 .title{text-anchor:middle}#chart-4c89ee43-d2ba-4a53-ba91-75337e798c47 .legends .legend text{fill-opacity:1}#chart-4c89ee43-d2ba-4a53-ba91-75337e798c47 .axis.x text{text-anchor:middle}#chart-4c89ee43-d2ba-4a53-ba91-75337e798c47 .axis.x:not(.web) text[transform]{text-anchor:start}#chart-4c89ee43-d2ba-4a53-ba91-75337e798c47 .axis.x:not(.web) text[transform].backwards{text-anchor:end}#chart-4c89ee43-d2ba-4a53-ba91-75337e798c47 .axis.y text{text-anchor:end}#chart-4c89ee43-d2ba-4a53-ba91-75337e798c47 .axis.y text[transform].backwards{text-anchor:start}#chart-4c89ee43-d2ba-4a53-ba91-75337e798c47 .axis.y2 text{text-anchor:start}#chart-4c89ee43-d2ba-4a53-ba91-75337e798c47 .axis.y2 text[transform].backwards{text-anchor:end}#chart-4c89ee43-d2ba-4a53-ba91-75337e798c47 .axis .guide.line{stroke-dasharray:4,4}#chart-4c89ee43-d2ba-4a53-ba91-75337e798c47 .axis .major.guide.line{stroke-dasharray:6,6}#chart-4c89ee43-d2ba-4a53-ba91-75337e798c47 .horizontal .axis.y .guide.line,#chart-4c89ee43-d2ba-4a53-ba91-75337e798c47 .horizontal .axis.y2 .guide.line,#chart-4c89ee43-d2ba-4a53-ba91-75337e798c47 .vertical .axis.x .guide.line{opacity:0}#chart-4c89ee43-d2ba-4a53-ba91-75337e798c47 .horizontal .axis.always_show .guide.line,#chart-4c89ee43-d2ba-4a53-ba91-75337e798c47 .vertical .axis.always_show .guide.line{opacity:1 !important}#chart-4c89ee43-d2ba-4a53-ba91-75337e798c47 .axis.y .guides:hover .guide.line,#chart-4c89ee43-d2ba-4a53-ba91-75337e798c47 .axis.y2 .guides:hover .guide.line,#chart-4c89ee43-d2ba-4a53-ba91-75337e798c47 .axis.x .guides:hover .guide.line{opacity:1}#chart-4c89ee43-d2ba-4a53-ba91-75337e798c47 .axis .guides:hover text{opacity:1}#chart-4c89ee43-d2ba-4a53-ba91-75337e798c47 .nofill{fill:none}#chart-4c89ee43-d2ba-4a53-ba91-75337e798c47 .subtle-fill{fill-opacity:.2}#chart-4c89ee43-d2ba-4a53-ba91-75337e798c47 .dot{stroke-width:1px;fill-opacity:1}#chart-4c89ee43-d2ba-4a53-ba91-75337e798c47 .dot.active{stroke-width:5px}#chart-4c89ee43-d2ba-4a53-ba91-75337e798c47 .dot.negative{fill:transparent}#chart-4c89ee43-d2ba-4a53-ba91-75337e798c47 text,#chart-4c89ee43-d2ba-4a53-ba91-75337e798c47 tspan{stroke:none !important}#chart-4c89ee43-d2ba-4a53-ba91-75337e798c47 .series text.active{opacity:1}#chart-4c89ee43-d2ba-4a53-ba91-75337e798c47 .tooltip rect{fill-opacity:.95;stroke-width:.5}#chart-4c89ee43-d2ba-4a53-ba91-75337e798c47 .tooltip text{fill-opacity:1}#chart-4c89ee43-d2ba-4a53-ba91-75337e798c47 .showable{visibility:hidden}#chart-4c89ee43-d2ba-4a53-ba91-75337e798c47 .showable.shown{visibility:visible}#chart-4c89ee43-d2ba-4a53-ba91-75337e798c47 .gauge-background{fill:rgba(229,229,229,1);stroke:none}#chart-4c89ee43-d2ba-4a53-ba91-75337e798c47 .bg-lines{stroke:rgba(249,249,249,1);stroke-width:2px}</style><script type="text/javascript">window.pygal = window.pygal || {};window.pygal.config = window.pygal.config || {};window.pygal.config['4c89ee43-d2ba-4a53-ba91-75337e798c47'] = {"allow_interruptions": false, "box_mode": "extremes", "classes": ["pygal-chart"], "css": ["file://style.css", "file://graph.css"], "defs": [], "disable_xml_declaration": false, "dots_size": 2.5, "dynamic_print_values": false, "explicit_size": false, "fill": false, "force_uri_protocol": "https", "formatter": null, "half_pie": false, "height": 600, "include_x_axis": false, "inner_radius": 0, "interpolate": "cubic", "interpolation_parameters": {}, "interpolation_precision": 250, "inverse_y_axis": false, "js": ["//kozea.github.io/pygal.js/2.0.x/pygal-tooltips.min.js"], "legend_at_bottom": false, "legend_at_bottom_columns": null, "legend_box_size": 12, "logarithmic": false, "margin": 20, "margin_bottom": null, "margin_left": null, "margin_right": null, "margin_top": null, "max_scale": 16, "min_scale": 4, "missing_value_fill_truncation": "x", "no_data_text": "No data", "no_prefix": false, "order_min": null, "pretty_print": false, "print_labels": false, "print_values": true, "print_values_position": "center", "print_zeroes": true, "range": null, "rounded_bars": null, "secondary_range": null, "show_dots": true, "show_legend": true, "show_minor_x_labels": true, "show_minor_y_labels": true, "show_only_major_dots": false, "show_x_guides": false, "show_x_labels": true, "show_y_guides": true, "show_y_labels": true, "spacing": 10, "stack_from_top": false, "strict": false, "stroke": true, "stroke_style": null, "style": {"background": "rgba(249, 249, 249, 1)", "ci_colors": [], "colors": ["#F44336", "#3F51B5", "#009688", "#FFC107", "#FF5722", "#9C27B0", "#03A9F4", "#8BC34A", "#FF9800", "#E91E63", "#2196F3", "#4CAF50", "#FFEB3B", "#673AB7", "#00BCD4", "#CDDC39", "#9E9E9E", "#607D8B"], "font_family": "Consolas, \"Liberation Mono\", Menlo, Courier, monospace", "foreground": "rgba(0, 0, 0, .87)", "foreground_strong": "rgba(0, 0, 0, 1)", "foreground_subtle": "rgba(0, 0, 0, .54)", "guide_stroke_dasharray": "4,4", "label_font_family": "Consolas, \"Liberation Mono\", Menlo, Courier, monospace", "label_font_size": 10, "legend_font_family": "Consolas, \"Liberation Mono\", Menlo, Courier, monospace", "legend_font_size": 14, "major_guide_stroke_dasharray": "6,6", "major_label_font_family": "Consolas, \"Liberation Mono\", Menlo, Courier, monospace", "major_label_font_size": 10, "no_data_font_family": "Consolas, \"Liberation Mono\", Menlo, Courier, monospace", "no_data_font_size": 64, "opacity": ".7", "opacity_hover": ".8", "plot_background": "rgba(255, 255, 255, 1)", "stroke_opacity": ".8", "stroke_opacity_hover": ".9", "title_font_family": "Consolas, \"Liberation Mono\", Menlo, Courier, monospace", "title_font_size": 16, "tooltip_font_family": "Consolas, \"Liberation Mono\", Menlo, Courier, monospace", "tooltip_font_size": 14, "transition": "150ms", "value_background": "rgba(229, 229, 229, 1)", "value_colors": [], "value_font_family": "Consolas, \"Liberation Mono\", Menlo, Courier, monospace", "value_font_size": 16, "value_label_font_family": "Consolas, \"Liberation Mono\", Menlo, Courier, monospace", "value_label_font_size": 10}, "title": "COVID-19 | Mato Grosso do Sul\n Fonte: jhoonb.github.io/corona", "tooltip_border_radius": 0, "tooltip_fancy_mode": true, "truncate_label": null, "truncate_legend": null, "width": 800, "x_label_rotation": 90, "x_labels": ["28-02-2020", "10-03-2020", "17-03-2020", "24-03-2020", "31-03-2020", "07-04-2020", "14-04-2020", "21-04-2020", "28-04-2020", "05-05-2020"], "x_labels_major": null, "x_labels_major_count": null, "x_labels_major_every": null, "x_title": null, "xrange": null, "y_label_rotation": 0, "y_labels": null, "y_labels_major": null, "y_labels_major_count": null, "y_labels_major_every": null, "y_title": null, "zero": 0, "legends": ["Confirmados"]}</script><script type="text/javascript" xlink:href="https://kozea.github.io/pygal.js/2.0.x/pygal-tooltips.min.js"/></defs><title>COVID-19 | Mato Grosso do Sul
 Fonte: jhoonb.github.io/corona</title><g class="graph line-graph vertical"><rect x="0" y="0" width="800" height="600" class="background"/><g transform="translate(162, 72)" class="plot"><rect x="0" y="0" width="617.6" height="438.0" class="background"/><g class="axis y always_show"><g class="guides"><path d="M0.000000 429.109219 h617.600000" class="axis major line"/><text x="-5" y="432.60921934406656" class="major">0</text><title>0</title></g><g class="guides"><path d="M0.000000 399.378750 h617.600000" class="guide line"/><text x="-5" y="402.8787499150214" class="">20</text><title>20</title></g><g class="guides"><path d="M0.000000 369.648280 h617.600000" class="guide line"/><text x="-5" y="373.14828048597616" class="">40</text><title>40</title></g><g class="guides"><path d="M0.000000 339.917811 h617.600000" class="guide line"/><text x="-5" y="343.417811056931" class="">60</text><title>60</title></g><g class="guides"><path d="M0.000000 310.187342 h617.600000" class="guide line"/><text x="-5" y="313.68734162788576" class="">80</text><title>80</title></g><g class="guides"><path d="M0.000000 280.456872 h617.600000" class="major guide line"/><text x="-5" y="283.95687219884053" class="major">100</text><title>100</title></g><g class="guides"><path d="M0.000000 250.726403 h617.600000" class="guide line"/><text x="-5" y="254.22640276979533" class="">120</text><title>120</title></g><g class="guides"><path d="M0.000000 220.995933 h617.600000" class="guide line"/><text x="-5" y="224.49593334075013" class="">140</text><title>140</title></g><g class="guides"><path d="M0.000000 191.265464 h617.600000" class="guide line"/><text x="-5" y="194.76546391170496" class="">160</text><title>160</title></g><g class="guides"><path d="M0.000000 161.534994 h617.600000" class="guide line"/><text x="-5" y="165.03499448265973" class="">180</text><title>180</title></g><g class="guides"><path d="M0.000000 131.804525 h617.600000" class="major guide line"/><text x="-5" y="135.30452505361455" class="major">200</text><title>200</title></g><g class="guides"><path d="M0.000000 102.074056 h617.600000" class="guide line"/><text x="-5" y="105.57405562456933" class="">220</text><title>220</title></g><g class="guides"><path d="M0.000000 72.343586 h617.600000" class="guide line"/><text x="-5" y="75.8435861955241" class="">240</text><title>240</title></g><g class="guides"><path d="M0.000000 42.613117 h617.600000" class="guide line"/><text x="-5" y="46.113116766478925" class="">260</text><title>260</title></g><g class="guides"><path d="M0.000000 12.882647 h617.600000" class="guide line"/><text x="-5" y="16.382647337433696" class="">280</text><title>280</title></g></g><g class="axis x"><g class="guides"><path d="M11.876923 0.000000 v438.000000" class="line"/><text x="11.876923076923077" y="453.0" class="" transform="rotate(90 11.876923 453.000000)">28-02-2020</text></g><g class="guides"><path d="M77.859829 0.000000 v438.000000" class="guide line"/><text x="77.85982905982904" y="453.0" class="" transform="rotate(90 77.859829 453.000000)">10-03-2020</text></g><g class="guides"><path d="M143.842735 0.000000 v438.000000" class="guide line"/><text x="143.84273504273503" y="453.0" class="" transform="rotate(90 143.842735 453.000000)">17-03-2020</text></g><g class="guides"><path d="M209.825641 0.000000 v438.000000" class="guide line"/><text x="209.82564102564103" y="453.0" class="" transform="rotate(90 209.825641 453.000000)">24-03-2020</text></g><g class="guides"><path d="M275.808547 0.000000 v438.000000" class="guide line"/><text x="275.808547008547" y="453.0" class="" transform="rotate(90 275.808547 453.000000)">31-03-2020</text></g><g class="guides"><path d="M341.791453 0.000000 v438.000000" class="guide line"/><text x="341.791452991453" y="453.0" class="" transform="rotate(90 341.791453 453.000000)">07-04-2020</text></g><g class="guides"><path d="M407.774359 0.000000 v438.000000" class="guide line"/><text x="407.77435897435896" y="453.0" class="" transform="rotate(90 407.774359 453.000000)">14-04-2020</text></g><g class="guides"><path d="M473.757265 0.000000 v438.000000" class="guide line"/><text x="473.75726495726497" y="453.0" class="" transform="rotate(90 473.757265 453.000000)">21-04-2020</text></g><g class="guides"><path d="M539.740171 0.000000 v438.000000" class="guide line"/><text x="539.7401709401709" y="453.0" class="" transform="rotate(90 539.740171 453.000000)">28-04-2020</text></g><g class="guides"><path d="M605.723077 0.000000 v438.000000" class="guide line"/><text x="605.7230769230769" y="453.0" class="" transform="rotate(90 605.723077 453.000000)">05-05-2020</text></g></g><g class="series serie-0 color-0"><path d="M11.876923 429.109219 L12.140855 429.114080 12.404786 429.118940 12.668718 429.123799 12.932650 429.128657 13.196581 429.133512 13.460513 429.138366 13.724444 429.143217 13.988376 429.148064 14.252308 429.152908 14.516239 429.157747 14.780171 429.162582 15.044103 429.167412 15.308034 429.172236 15.571966 429.177054 15.835897 429.181865 16.099829 429.186670 16.363761 429.191467 16.627692 429.196256 16.891624 429.201037 17.155556 429.205808 17.419487 429.210571 17.683419 429.215324 17.947350 429.220066 18.211282 429.224798 18.475214 429.229518 18.739145 429.234227 19.003077 429.238924 19.267009 429.243608 19.530940 429.248279 19.794872 429.252936 20.058803 429.257580 20.322735 429.262209 20.586667 429.266823 20.850598 429.271422 21.114530 429.276005 21.378462 429.280571 21.642393 429.285121 21.906325 429.289653 22.170256 429.294168 22.434188 429.298665 22.698120 429.303142 22.962051 429.307601 23.225983 429.312040 23.489915 429.316459 23.753846 429.320858 24.017778 429.325235 24.281709 429.329591 24.545641 429.333926 24.809573 429.338237 25.073504 429.342526 25.337436 429.346792 25.601368 429.351034 25.865299 429.355251 26.129231 429.359444 26.393162 429.363611 26.657094 429.367753 26.921026 429.371869 27.184957 429.375958 27.448889 429.380020 27.712821 429.384055 27.976752 429.388061 28.240684 429.392040 28.504615 429.395989 28.768547 429.399908 29.032479 429.403798 29.296410 429.407658 29.560342 429.411487 29.824274 429.415284 30.088205 429.419050 30.352137 429.422784 30.616068 429.426485 30.880000 429.430153 31.143932 429.433787 31.407863 429.437387 31.671795 429.440953 31.935726 429.444483 32.199658 429.447978 32.463590 429.451438 32.727521 429.454860 32.991453 429.458246 33.255385 429.461595 33.519316 429.464906 33.783248 429.468179 34.047179 429.471412 34.311111 429.474607 34.575043 429.477762 34.838974 429.480877 35.102906 429.483951 35.366838 429.486984 35.630769 429.489976 35.894701 429.492926 36.158632 429.495833 36.422564 429.498697 36.686496 429.501518 36.950427 429.504295 37.214359 429.507028 37.478291 429.509716 37.742222 429.512359 38.006154 429.514956 38.270085 429.517506 38.534017 429.520010 38.797949 429.522467 39.061880 429.524877 39.325812 429.527238 39.589744 429.529551 39.853675 429.531815 40.117607 429.534029 40.381538 429.536193 40.645470 429.538307 40.909402 429.540370 41.173333 429.542382 41.437265 429.544342 41.701197 429.546250 41.965128 429.548105 42.229060 429.549907 42.492991 429.551655 42.756923 429.553349 43.020855 429.554988 43.284786 429.556573 43.548718 429.558102 43.812650 429.559575 44.076581 429.560991 44.340513 429.562350 44.604444 429.563653 44.868376 429.564897 45.132308 429.566083 45.396239 429.567210 45.660171 429.568278 45.924103 429.569286 46.188034 429.570234 46.451966 429.571121 46.715897 429.571947 46.979829 429.572712 47.243761 429.573414 47.507692 429.574054 47.771624 429.574631 48.035556 429.575145 48.299487 429.575594 48.563419 429.575979 48.827350 429.576300 49.091282 429.576555 49.355214 429.576744 49.619145 429.576867 49.883077 429.576923 50.147009 429.576912 50.410940 429.576833 50.674872 429.576687 50.938803 429.576471 51.202735 429.576187 51.466667 429.575833 51.730598 429.575409 51.994530 429.574915 52.258462 429.574349 52.522393 429.573713 52.786325 429.573004 53.050256 429.572223 53.314188 429.571370 53.578120 429.570443 53.842051 429.569442 54.105983 429.568367 54.369915 429.567218 54.633846 429.565993 54.897778 429.564693 55.161709 429.563317 55.425641 429.561864 55.689573 429.560334 55.953504 429.558727 56.217436 429.557042 56.481368 429.555278 56.745299 429.553436 57.009231 429.551514 57.273162 429.549512 57.537094 429.547431 57.801026 429.545268 58.064957 429.543024 58.328889 429.540699 58.592821 429.538291 58.856752 429.535801 59.120684 429.533228 59.384615 429.530572 59.648547 429.527831 59.912479 429.525006 60.176410 429.522096 60.440342 429.519100 60.704274 429.516019 60.968205 429.512851 61.232137 429.509597 61.496068 429.506255 61.760000 429.502826 62.023932 429.499308 62.287863 429.495702 62.551795 429.492007 62.815726 429.488222 63.079658 429.484347 63.343590 429.480381 63.607521 429.476325 63.871453 429.472177 64.135385 429.467937 64.399316 429.463605 64.663248 429.459180 64.927179 429.454661 65.191111 429.450049 65.455043 429.445342 65.718974 429.440541 65.982906 429.435645 66.246838 429.430653 66.510769 429.425565 66.774701 429.420380 67.038632 429.415098 67.302564 429.409719 67.566496 429.404241 67.830427 429.398665 68.094359 429.392991 68.358291 429.387217 68.622222 429.381343 68.886154 429.375368 69.150085 429.369293 69.414017 429.363117 69.677949 429.356839 69.941880 429.350459 70.205812 429.343976 70.469744 429.337390 70.733675 429.330700 70.997607 429.323906 71.261538 429.317008 71.525470 429.310005 71.789402 429.302896 72.053333 429.295682 72.317265 429.288361 72.581197 429.280933 72.845128 429.273398 73.109060 429.265755 73.372991 429.258004 73.636923 429.250144 73.900855 429.242175 74.164786 429.234096 74.428718 429.225908 74.692650 429.217608 74.956581 429.209198 75.220513 429.200676 75.484444 429.192042 75.748376 429.183295 76.012308 429.174436 76.276239 429.165463 76.540171 429.156376 76.804103 429.147176 77.068034 429.137860 77.331966 429.128429 77.595897 429.118882 77.859829 429.109219 78.123761 429.099440 78.387692 429.089542 78.651624 429.079526 78.915556 429.069390 79.179487 429.059133 79.443419 429.048754 79.707350 429.038251 79.971282 429.027624 80.235214 429.016872 80.499145 429.005993 80.763077 428.994987 81.027009 428.983852 81.290940 428.972588 81.554872 428.961192 81.818803 428.949665 82.082735 428.938004 82.346667 428.926210 82.610598 428.914280 82.874530 428.902214 83.138462 428.890010 83.402393 428.877668 83.666325 428.865187 83.930256 428.852565 84.194188 428.839801 84.458120 428.826894 84.722051 428.813843 84.985983 428.800647 85.249915 428.787305 85.513846 428.773816 85.777778 428.760178 86.041709 428.746391 86.305641 428.732454 86.569573 428.718365 86.833504 428.704123 87.097436 428.689728 87.361368 428.675177 87.625299 428.660471 87.889231 428.645607 88.153162 428.630586 88.417094 428.615405 88.681026 428.600064 88.944957 428.584561 89.208889 428.568896 89.472821 428.553068 89.736752 428.537074 90.000684 428.520915 90.264615 428.504589 90.528547 428.488095 90.792479 428.471432 91.056410 428.454599 91.320342 428.437595 91.584274 428.420418 91.848205 428.403068 92.112137 428.385543 92.376068 428.367843 92.640000 428.349965 92.903932 428.331911 93.167863 428.313677 93.431795 428.295263 93.695726 428.276668 93.959658 428.257891 94.223590 428.238931 94.487521 428.219786 94.751453 428.200456 95.015385 428.180940 95.279316 428.161236 95.543248 428.141343 95.807179 428.121260 96.071111 428.100986 96.335043 428.080521 96.598974 428.059862 96.862906 428.039009 97.126838 428.017961 97.390769 427.996717 97.654701 427.975275 97.918632 427.953634 98.182564 427.931794 98.446496 427.909753 98.710427 427.887511 98.974359 427.865065 99.238291 427.842415 99.502222 427.819561 99.766154 427.796500 100.030085 427.773232 100.294017 427.749755 100.557949 427.726069 100.821880 427.702173 101.085812 427.678064 101.349744 427.653743 101.613675 427.629209 101.877607 427.604459 102.141538 427.579493 102.405470 427.554310 102.669402 427.528909 102.933333 427.503289 103.197265 427.477448 103.461197 427.451386 103.725128 427.425102 103.989060 427.398593 104.252991 427.371860 104.516923 427.344901 104.780855 427.317715 105.044786 427.290301 105.308718 427.262658 105.572650 427.234785 105.836581 427.206680 106.100513 427.178343 106.364444 427.149773 106.628376 427.120968 106.892308 427.091927 107.156239 427.062650 107.420171 427.033135 107.684103 427.003380 107.948034 426.973386 108.211966 426.943151 108.475897 426.912673 108.739829 426.881952 109.003761 426.850987 109.267692 426.819776 109.531624 426.788318 109.795556 426.756613 110.059487 426.724660 110.323419 426.692456 110.587350 426.660001 110.851282 426.627294 111.115214 426.594334 111.379145 426.561120 111.643077 426.527651 111.907009 426.493925 112.170940 426.459942 112.434872 426.425700 112.698803 426.391198 112.962735 426.356436 113.226667 426.321411 113.490598 426.286124 113.754530 426.250573 114.018462 426.214756 114.282393 426.178674 114.546325 426.142324 114.810256 426.105705 115.074188 426.068817 115.338120 426.031659 115.602051 425.994228 115.865983 425.956525 116.129915 425.918548 116.393846 425.880296 116.657778 425.841768 116.921709 425.802963 117.185641 425.763880 117.449573 425.724517 117.713504 425.684874 117.977436 425.644949 118.241368 425.604742 118.505299 425.564251 118.769231 425.523475 119.033162 425.482413 119.297094 425.441064 119.561026 425.399428 119.824957 425.357502 120.088889 425.315285 120.352821 425.272778 120.616752 425.229978 120.880684 425.186884 121.144615 425.143496 121.408547 425.099812 121.672479 425.055831 121.936410 425.011552 122.200342 424.966975 122.464274 424.922097 122.728205 424.876918 122.992137 424.831437 123.256068 424.785652 123.520000 424.739563 123.783932 424.693169 124.047863 424.646467 124.311795 424.599458 124.575726 424.552141 124.839658 424.504513 125.103590 424.456574 125.367521 424.408324 125.631453 424.359760 125.895385 424.310881 126.159316 424.261688 126.423248 424.212177 126.687179 424.162350 126.951111 424.112203 127.215043 424.061737 127.478974 424.010950 127.742906 423.959842 128.006838 423.908410 128.270769 423.856654 128.534701 423.804573 128.798632 423.752165 129.062564 423.699430 129.326496 423.646367 129.590427 423.592974 129.854359 423.539251 130.118291 423.485195 130.382222 423.430807 130.646154 423.376085 130.910085 423.321028 131.174017 423.265635 131.437949 423.209904 131.701880 423.153835 131.965812 423.097427 132.229744 423.040678 132.493675 422.983588 132.757607 422.926155 133.021538 422.868379 133.285470 422.810257 133.549402 422.751790 133.813333 422.692975 134.077265 422.633812 134.341197 422.574301 134.605128 422.514438 134.869060 422.454225 135.132991 422.393659 135.396923 422.332739 135.660855 422.271465 135.924786 422.209834 136.188718 422.147847 136.452650 422.085502 136.716581 422.022798 136.980513 421.959734 137.244444 421.896309 137.508376 421.832521 137.772308 421.768370 138.036239 421.703854 138.300171 421.638973 138.564103 421.573725 138.828034 421.508109 139.091966 421.442125 139.355897 421.375770 139.619829 421.309044 139.883761 421.241947 140.147692 421.174476 140.411624 421.106630 140.675556 421.038409 140.939487 420.969812 141.203419 420.900837 141.467350 420.831483 141.731282 420.761750 141.995214 420.691636 142.259145 420.621139 142.523077 420.550260 142.787009 420.478996 143.050940 420.407347 143.314872 420.335312 143.578803 420.262890 143.842735 420.190079 144.106667 420.116878 144.370598 420.043290 144.634530 419.969314 144.898462 419.894953 145.162393 419.820209 145.426325 419.745081 145.690256 419.669573 145.954188 419.593685 146.218120 419.517418 146.482051 419.440774 146.745983 419.363755 147.009915 419.286362 147.273846 419.208596 147.537778 419.130459 147.801709 419.051952 148.065641 418.973076 148.329573 418.893834 148.593504 418.814225 148.857436 418.734253 149.121368 418.653917 149.385299 418.573220 149.649231 418.492163 149.913162 418.410748 150.177094 418.328975 150.441026 418.246847 150.704957 418.164364 150.968889 418.081528 151.232821 417.998340 151.496752 417.914802 151.760684 417.830916 152.024615 417.746682 152.288547 417.662102 152.552479 417.577178 152.816410 417.491911 153.080342 417.406302 153.344274 417.320352 153.608205 417.234064 153.872137 417.147438 154.136068 417.060476 154.400000 416.973180 154.663932 416.885550 154.927863 416.797589 155.191795 416.709296 155.455726 416.620675 155.719658 416.531727 155.983590 416.442452 156.247521 416.352852 156.511453 416.262929 156.775385 416.172684 157.039316 416.082118 157.303248 415.991233 157.567179 415.900031 157.831111 415.808512 158.095043 415.716678 158.358974 415.624531 158.622906 415.532071 158.886838 415.439301 159.150769 415.346221 159.414701 415.252834 159.678632 415.159140 159.942564 415.065141 160.206496 414.970839 160.470427 414.876234 160.734359 414.781328 160.998291 414.686123 161.262222 414.590620 161.526154 414.494820 161.790085 414.398725 162.054017 414.302336 162.317949 414.205655 162.581880 414.108683 162.845812 414.011421 163.109744 413.913871 163.373675 413.816034 163.637607 413.717912 163.901538 413.619506 164.165470 413.520818 164.429402 413.421848 164.693333 413.322599 164.957265 413.223071 165.221197 413.123267 165.485128 413.023187 165.749060 412.922833 166.012991 412.822206 166.276923 412.721308 166.540855 412.620141 166.804786 412.518704 167.068718 412.417001 167.332650 412.315032 167.596581 412.212799 167.860513 412.110303 168.124444 412.007546 168.388376 411.904529 168.652308 411.801253 168.916239 411.697720 169.180171 411.593931 169.444103 411.489888 169.708034 411.385592 169.971966 411.281045 170.235897 411.176247 170.499829 411.071201 170.763761 410.965907 171.027692 410.860368 171.291624 410.754584 171.555556 410.648557 171.819487 410.542288 172.083419 410.435779 172.347350 410.329031 172.611282 410.222046 172.875214 410.114825 173.139145 410.007369 173.403077 409.899680 173.667009 409.791759 173.930940 409.683608 174.194872 409.575227 174.458803 409.466620 174.722735 409.357786 174.986667 409.248727 175.250598 409.139445 175.514530 409.029941 175.778462 408.920217 176.042393 408.810273 176.306325 408.700112 176.570256 408.589734 176.834188 408.479142 177.098120 408.368336 177.362051 408.257318 177.625983 408.146089 177.889915 408.034651 178.153846 407.923005 178.417778 407.811153 178.681709 407.699096 178.945641 407.586835 179.209573 407.474372 179.473504 407.361708 179.737436 407.248845 180.001368 407.135784 180.265299 407.022526 180.529231 406.909073 180.793162 406.795426 181.057094 406.681587 181.321026 406.567558 181.584957 406.453338 181.848889 406.338931 182.112821 406.224336 182.376752 406.109557 182.640684 405.994593 182.904615 405.879448 183.168547 405.764121 183.432479 405.648614 183.696410 405.532929 183.960342 405.417067 184.224274 405.301030 184.488205 405.184819 184.752137 405.068435 185.016068 404.951881 185.280000 404.835156 185.543932 404.718263 185.807863 404.601203 186.071795 404.483977 186.335726 404.366587 186.599658 404.249035 186.863590 404.131321 187.127521 404.013447 187.391453 403.895415 187.655385 403.777225 187.919316 403.658880 188.183248 403.540381 188.447179 403.421728 188.711111 403.302925 188.975043 403.183971 189.238974 403.064868 189.502906 402.945619 189.766838 402.826223 190.030769 402.706683 190.294701 402.587000 190.558632 402.467175 190.822564 402.347211 191.086496 402.227107 191.350427 402.106866 191.614359 401.986489 191.878291 401.865978 192.142222 401.745333 192.406154 401.624557 192.670085 401.503650 192.934017 401.382614 193.197949 401.261451 193.461880 401.140162 193.725812 401.018748 193.989744 400.897211 194.253675 400.775552 194.517607 400.653772 194.781538 400.531873 195.045470 400.409857 195.309402 400.287724 195.573333 400.165477 195.837265 400.043116 196.101197 399.920643 196.365128 399.798060 196.629060 399.675367 196.892991 399.552567 197.156923 399.429660 197.420855 399.306648 197.684786 399.183533 197.948718 399.060316 198.212650 398.936998 198.476581 398.813580 198.740513 398.690065 199.004444 398.566453 199.268376 398.442746 199.532308 398.318945 199.796239 398.195052 200.060171 398.071068 200.324103 397.946994 200.588034 397.822833 200.851966 397.698585 201.115897 397.574252 201.379829 397.449834 201.643761 397.325335 201.907692 397.200754 202.171624 397.076094 202.435556 396.951356 202.699487 396.826541 202.963419 396.701650 203.227350 396.576686 203.491282 396.451648 203.755214 396.326540 204.019145 396.201362 204.283077 396.076116 204.547009 395.950803 204.810940 395.825424 205.074872 395.699981 205.338803 395.574476 205.602735 395.448909 205.866667 395.323282 206.130598 395.197597 206.394530 395.071855 206.658462 394.946057 206.922393 394.820205 207.186325 394.694300 207.450256 394.568344 207.714188 394.442338 207.978120 394.316283 208.242051 394.190181 208.505983 394.064033 208.769915 393.937841 209.033846 393.811605 209.297778 393.685329 209.561709 393.559012 209.825641 393.432656 210.089573 393.306263 210.353504 393.179831 210.617436 393.053359 210.881368 392.926847 211.145299 392.800293 211.409231 392.673697 211.673162 392.547056 211.937094 392.420370 212.201026 392.293637 212.464957 392.166858 212.728889 392.040029 212.992821 391.913151 213.256752 391.786223 213.520684 391.659242 213.784615 391.532209 214.048547 391.405121 214.312479 391.277978 214.576410 391.150779 214.840342 391.023522 215.104274 390.896207 215.368205 390.768831 215.632137 390.641395 215.896068 390.513898 216.160000 390.386337 216.423932 390.258711 216.687863 390.131021 216.951795 390.003264 217.215726 389.875439 217.479658 389.747546 217.743590 389.619583 218.007521 389.491549 218.271453 389.363443 218.535385 389.235264 218.799316 389.107010 219.063248 388.978682 219.327179 388.850276 219.591111 388.721793 219.855043 388.593231 220.118974 388.464590 220.382906 388.335867 220.646838 388.207062 220.910769 388.078174 221.174701 387.949202 221.438632 387.820144 221.702564 387.690999 221.966496 387.561767 222.230427 387.432446 222.494359 387.303035 222.758291 387.173533 223.022222 387.043939 223.286154 386.914251 223.550085 386.784469 223.814017 386.654591 224.077949 386.524617 224.341880 386.394545 224.605812 386.264374 224.869744 386.134103 225.133675 386.003731 225.397607 385.873256 225.661538 385.742678 225.925470 385.611996 226.189402 385.481208 226.453333 385.350313 226.717265 385.219310 226.981197 385.088198 227.245128 384.956976 227.509060 384.825643 227.772991 384.694198 228.036923 384.562639 228.300855 384.430965 228.564786 384.299176 228.828718 384.167270 229.092650 384.035246 229.356581 383.903103 229.620513 383.770839 229.884444 383.638455 230.148376 383.505948 230.412308 383.373317 230.676239 383.240562 230.940171 383.107680 231.204103 382.974672 231.468034 382.841536 231.731966 382.708271 231.995897 382.574875 232.259829 382.441348 232.523761 382.307689 232.787692 382.173896 233.051624 382.039968 233.315556 381.905904 233.579487 381.771703 233.843419 381.637365 234.107350 381.502886 234.371282 381.368268 234.635214 381.233508 234.899145 381.098605 235.163077 380.963559 235.427009 380.828368 235.690940 380.693031 235.954872 380.557547 236.218803 380.421915 236.482735 380.286133 236.746667 380.150201 237.010598 380.014117 237.274530 379.877881 237.538462 379.741491 237.802393 379.604945 238.066325 379.468244 238.330256 379.331386 238.594188 379.194370 238.858120 379.057194 239.122051 378.919857 239.385983 378.782359 239.649915 378.644698 239.913846 378.506874 240.177778 378.368884 240.441709 378.230728 240.705641 378.092405 240.969573 377.953913 241.233504 377.815252 241.497436 377.676421 241.761368 377.537418 242.025299 377.398242 242.289231 377.258892 242.553162 377.119367 242.817094 376.979665 243.081026 376.839787 243.344957 376.699730 243.608889 376.559493 243.872821 376.419076 244.136752 376.278477 244.400684 376.137695 244.664615 375.996728 244.928547 375.855577 245.192479 375.714240 245.456410 375.572715 245.720342 375.431002 245.984274 375.289098 246.248205 375.147005 246.512137 375.004719 246.776068 374.862240 247.040000 374.719568 247.303932 374.576700 247.567863 374.433635 247.831795 374.290373 248.095726 374.146913 248.359658 374.003253 248.623590 373.859392 248.887521 373.715329 249.151453 373.571063 249.415385 373.426593 249.679316 373.281917 249.943248 373.137035 250.207179 372.991946 250.471111 372.846647 250.735043 372.701139 250.998974 372.555421 251.262906 372.409490 251.526838 372.263346 251.790769 372.116987 252.054701 371.970413 252.318632 371.823623 252.582564 371.676615 252.846496 371.529389 253.110427 371.381942 253.374359 371.234274 253.638291 371.086385 253.902222 370.938272 254.166154 370.789935 254.430085 370.641372 254.694017 370.492583 254.957949 370.343566 255.221880 370.194320 255.485812 370.044844 255.749744 369.895137 256.013675 369.745198 256.277607 369.595026 256.541538 369.444619 256.805470 369.293976 257.069402 369.143097 257.333333 368.991980 257.597265 368.840625 257.861197 368.689029 258.125128 368.537192 258.389060 368.385113 258.652991 368.232790 258.916923 368.080223 259.180855 367.927410 259.444786 367.774351 259.708718 367.621043 259.972650 367.467487 260.236581 367.313681 260.500513 367.159623 260.764444 367.005313 261.028376 366.850749 261.292308 366.695931 261.556239 366.540857 261.820171 366.385527 262.084103 366.229938 262.348034 366.074090 262.611966 365.917982 262.875897 365.761613 263.139829 365.604981 263.403761 365.448086 263.667692 365.290926 263.931624 365.133501 264.195556 364.975808 264.459487 364.817848 264.723419 364.659618 264.987350 364.501118 265.251282 364.342346 265.515214 364.183303 265.779145 364.023985 266.043077 363.864393 266.307009 363.704525 266.570940 363.544379 266.834872 363.383956 267.098803 363.223254 267.362735 363.062271 267.626667 362.901006 267.890598 362.739459 268.154530 362.577629 268.418462 362.415513 268.682393 362.253112 268.946325 362.090424 269.210256 361.927447 269.474188 361.764181 269.738120 361.600624 270.002051 361.436777 270.265983 361.272636 270.529915 361.108201 270.793846 360.943472 271.057778 360.778447 271.321709 360.613124 271.585641 360.447504 271.849573 360.281583 272.113504 360.115363 272.377436 359.948840 272.641368 359.782015 272.905299 359.614886 273.169231 359.447453 273.433162 359.279713 273.697094 359.111665 273.961026 358.943310 274.224957 358.774645 274.488889 358.605669 274.752821 358.436382 275.016752 358.266781 275.280684 358.096867 275.544615 357.926638 275.808547 357.756093 276.072479 357.585231 276.336410 357.414053 276.600342 357.242562 276.864274 357.070759 277.128205 356.898647 277.392137 356.726227 277.656068 356.553502 277.920000 356.380473 278.183932 356.207141 278.447863 356.033510 278.711795 355.859581 278.975726 355.685356 279.239658 355.510836 279.503590 355.336025 279.767521 355.160923 280.031453 354.985532 280.295385 354.809856 280.559316 354.633894 280.823248 354.457650 281.087179 354.281126 281.351111 354.104323 281.615043 353.927242 281.878974 353.749887 282.142906 353.572260 282.406838 353.394361 282.670769 353.216193 282.934701 353.037757 283.198632 352.859057 283.462564 352.680093 283.726496 352.500868 283.990427 352.321384 284.254359 352.141642 284.518291 351.961644 284.782222 351.781393 285.046154 351.600890 285.310085 351.420137 285.574017 351.239136 285.837949 351.057890 286.101880 350.876399 286.365812 350.694667 286.629744 350.512694 286.893675 350.330483 287.157607 350.148035 287.421538 349.965354 287.685470 349.782439 287.949402 349.599295 288.213333 349.415922 288.477265 349.232322 288.741197 349.048497 289.005128 348.864450 289.269060 348.680181 289.532991 348.495694 289.796923 348.310990 290.060855 348.126070 290.324786 347.940938 290.588718 347.755594 290.852650 347.570041 291.116581 347.384281 291.380513 347.198315 291.644444 347.012146 291.908376 346.825775 292.172308 346.639205 292.436239 346.452436 292.700171 346.265472 292.964103 346.078315 293.228034 345.890965 293.491966 345.703425 293.755897 345.515697 294.019829 345.327783 294.283761 345.139685 294.547692 344.951404 294.811624 344.762944 295.075556 344.574304 295.339487 344.385488 295.603419 344.196498 295.867350 344.007335 296.131282 343.818001 296.395214 343.628499 296.659145 343.438829 296.923077 343.248995 297.187009 343.058998 297.450940 342.868839 297.714872 342.678522 297.978803 342.488047 298.242735 342.297417 298.506667 342.106634 298.770598 341.915699 299.034530 341.724615 299.298462 341.533383 299.562393 341.342005 299.826325 341.150484 300.090256 340.958821 300.354188 340.767018 300.618120 340.575078 300.882051 340.383001 301.145983 340.190790 301.409915 339.998447 301.673846 339.805974 301.937778 339.613372 302.201709 339.420645 302.465641 339.227792 302.729573 339.034818 302.993504 338.841722 303.257436 338.648508 303.521368 338.455178 303.785299 338.261732 304.049231 338.068174 304.313162 337.874505 304.577094 337.680727 304.841026 337.486842 305.104957 337.292851 305.368889 337.098758 305.632821 336.904563 305.896752 336.710269 306.160684 336.515877 306.424615 336.321390 306.688547 336.126810 306.952479 335.932137 307.216410 335.737375 307.480342 335.542526 307.744274 335.347590 308.008205 335.152570 308.272137 334.957469 308.536068 334.762287 308.800000 334.567028 309.063932 334.371692 309.327863 334.176282 309.591795 333.980799 309.855726 333.785246 310.119658 333.589625 310.383590 333.393937 310.647521 333.198184 310.911453 333.002369 311.175385 332.806493 311.439316 332.610558 311.703248 332.414567 311.967179 332.218520 312.231111 332.022420 312.495043 331.826269 312.758974 331.630069 313.022906 331.433821 313.286838 331.237529 313.550769 331.041193 313.814701 330.844815 314.078632 330.648398 314.342564 330.451943 314.606496 330.255452 314.870427 330.058928 315.134359 329.862372 315.398291 329.665786 315.662222 329.469172 315.926154 329.272532 316.190085 329.075868 316.454017 328.879182 316.717949 328.682475 316.981880 328.485750 317.245812 328.289009 317.509744 328.092253 317.773675 327.895484 318.037607 327.698705 318.301538 327.501918 318.565470 327.305123 318.829402 327.108324 319.093333 326.911522 319.357265 326.714719 319.621197 326.517917 319.885128 326.321117 320.149060 326.124323 320.412991 325.927535 320.676923 325.730756 320.940855 325.533987 321.204786 325.337232 321.468718 325.140490 321.732650 324.943765 321.996581 324.747058 322.260513 324.550372 322.524444 324.353707 322.788376 324.157067 323.052308 323.960453 323.316239 323.763866 323.580171 323.567310 323.844103 323.370785 324.108034 323.174295 324.371966 322.977839 324.635897 322.781422 324.899829 322.585044 325.163761 322.388707 325.427692 322.192414 325.691624 321.996166 325.955556 321.799966 326.219487 321.603814 326.483419 321.407714 326.747350 321.211666 327.011282 321.015674 327.275214 320.819739 327.539145 320.623862 327.803077 320.428046 328.067009 320.232293 328.330940 320.036604 328.594872 319.840982 328.858803 319.645429 329.122735 319.449946 329.386667 319.254535 329.650598 319.059198 329.914530 318.863938 330.178462 318.668755 330.442393 318.473653 330.706325 318.278633 330.970256 318.083696 331.234188 317.888846 331.498120 317.694083 331.762051 317.499410 332.025983 317.304828 332.289915 317.110340 332.553846 316.915948 332.817778 316.721652 333.081709 316.527457 333.345641 316.333362 333.609573 316.139371 333.873504 315.945484 334.137436 315.751705 334.401368 315.558035 334.665299 315.364476 334.929231 315.171029 335.193162 314.977697 335.457094 314.784482 335.721026 314.591386 335.984957 314.398410 336.248889 314.205556 336.512821 314.012827 336.776752 313.820225 337.040684 313.627750 337.304615 313.435406 337.568547 313.243194 337.832479 313.051116 338.096410 312.859174 338.360342 312.667369 338.624274 312.475705 338.888205 312.284182 339.152137 312.092804 339.416068 311.901570 339.680000 311.710484 339.943932 311.519548 340.207863 311.328763 340.471795 311.138132 340.735726 310.947656 340.999658 310.757336 341.263590 310.567176 341.527521 310.377178 341.791453 310.187342 342.055385 309.997670 342.319316 309.808159 342.583248 309.618805 342.847179 309.429606 343.111111 309.240556 343.375043 309.051653 343.638974 308.862891 343.902906 308.674269 344.166838 308.485782 344.430769 308.297426 344.694701 308.109197 344.958632 307.921092 345.222564 307.733107 345.486496 307.545238 345.750427 307.357482 346.014359 307.169835 346.278291 306.982293 346.542222 306.794852 346.806154 306.607508 347.070085 306.420259 347.334017 306.233099 347.597949 306.046026 347.861880 305.859036 348.125812 305.672124 348.389744 305.485287 348.653675 305.298522 348.917607 305.111825 349.181538 304.925191 349.445470 304.738617 349.709402 304.552100 349.973333 304.365636 350.237265 304.179220 350.501197 303.992850 350.765128 303.806521 351.029060 303.620230 351.292991 303.433972 351.556923 303.247745 351.820855 303.061545 352.084786 302.875367 352.348718 302.689208 352.612650 302.503065 352.876581 302.316933 353.140513 302.130808 353.404444 301.944688 353.668376 301.758568 353.932308 301.572445 354.196239 301.386314 354.460171 301.200172 354.724103 301.014016 354.988034 300.827841 355.251966 300.641645 355.515897 300.455422 355.779829 300.269169 356.043761 300.082884 356.307692 299.896561 356.571624 299.710197 356.835556 299.523789 357.099487 299.337332 357.363419 299.150823 357.627350 298.964258 357.891282 298.777634 358.155214 298.590947 358.419145 298.404192 358.683077 298.217367 358.947009 298.030467 359.210940 297.843488 359.474872 297.656428 359.738803 297.469282 360.002735 297.282046 360.266667 297.094718 360.530598 296.907292 360.794530 296.719765 361.058462 296.532134 361.322393 296.344395 361.586325 296.156544 361.850256 295.968577 362.114188 295.780491 362.378120 295.592281 362.642051 295.403945 362.905983 295.215478 363.169915 295.026877 363.433846 294.838137 363.697778 294.649255 363.961709 294.460228 364.225641 294.271052 364.489573 294.081722 364.753504 293.892236 365.017436 293.702589 365.281368 293.512777 365.545299 293.322798 365.809231 293.132647 366.073162 292.942320 366.337094 292.751814 366.601026 292.561124 366.864957 292.370248 367.128889 292.179182 367.392821 291.987921 367.656752 291.796462 367.920684 291.604802 368.184615 291.412936 368.448547 291.220861 368.712479 291.028572 368.976410 290.836067 369.240342 290.643342 369.504274 290.450392 369.768205 290.257215 370.032137 290.063806 370.296068 289.870161 370.560000 289.676277 370.823932 289.482151 371.087863 289.287777 371.351795 289.093153 371.615726 288.898276 371.879658 288.703140 372.143590 288.507742 372.407521 288.312080 372.671453 288.116148 372.935385 287.919943 373.199316 287.723462 373.463248 287.526700 373.727179 287.329655 373.991111 287.132321 374.255043 286.934697 374.518974 286.736776 374.782906 286.538557 375.046838 286.340035 375.310769 286.141206 375.574701 285.942068 375.838632 285.742615 376.102564 285.542844 376.366496 285.342752 376.630427 285.142335 376.894359 284.941589 377.158291 284.740510 377.422222 284.539095 377.686154 284.337339 377.950085 284.135240 378.214017 283.932793 378.477949 283.729994 378.741880 283.526841 379.005812 283.323328 379.269744 283.119453 379.533675 282.915212 379.797607 282.710600 380.061538 282.505614 380.325470 282.300251 380.589402 282.094507 380.853333 281.888377 381.117265 281.681859 381.381197 281.474948 381.645128 281.267641 381.909060 281.059934 382.172991 280.851823 382.436923 280.643304 382.700855 280.434374 382.964786 280.225030 383.228718 280.015266 383.492650 279.805080 383.756581 279.594468 384.020513 279.383425 384.284444 279.171949 384.548376 278.960036 384.812308 278.747681 385.076239 278.534882 385.340171 278.321633 385.604103 278.107933 385.868034 277.893776 386.131966 277.679159 386.395897 277.464078 386.659829 277.248531 386.923761 277.032512 387.187692 276.816018 387.451624 276.599045 387.715556 276.381591 387.979487 276.163650 388.243419 275.945219 388.507350 275.726295 388.771282 275.506873 389.035214 275.286950 389.299145 275.066523 389.563077 274.845587 389.827009 274.624138 390.090940 274.402174 390.354872 274.179690 390.618803 273.956682 390.882735 273.733147 391.146667 273.509081 391.410598 273.284481 391.674530 273.059342 391.938462 272.833660 392.202393 272.607433 392.466325 272.380656 392.730256 272.153326 392.994188 271.925438 393.258120 271.696989 393.522051 271.467976 393.785983 271.238395 394.049915 271.008241 394.313846 270.777511 394.577778 270.546202 394.841709 270.314309 395.105641 270.081829 395.369573 269.848759 395.633504 269.615094 395.897436 269.380830 396.161368 269.145964 396.425299 268.910493 396.689231 268.674412 396.953162 268.437717 397.217094 268.200406 397.481026 267.962474 397.744957 267.723917 398.008889 267.484732 398.272821 267.244915 398.536752 267.004462 398.800684 266.763370 399.064615 266.521635 399.328547 266.279252 399.592479 266.036219 399.856410 265.792531 400.120342 265.548185 400.384274 265.303178 400.648205 265.057504 400.912137 264.811161 401.176068 264.564145 401.440000 264.316452 401.703932 264.068079 401.967863 263.819021 402.231795 263.569274 402.495726 263.318836 402.759658 263.067703 403.023590 262.815870 403.287521 262.563334 403.551453 262.310091 403.815385 262.056137 404.079316 261.801469 404.343248 261.546083 404.607179 261.289976 404.871111 261.033142 405.135043 260.775580 405.398974 260.517284 405.662906 260.258252 405.926838 259.998479 406.190769 259.737962 406.454701 259.476697 406.718632 259.214680 406.982564 258.951907 407.246496 258.688376 407.510427 258.424081 407.774359 258.159020 408.038291 257.893189 408.302222 257.626590 408.566154 257.359223 408.830085 257.091091 409.094017 256.822194 409.357949 256.552535 409.621880 256.282116 409.885812 256.010937 410.149744 255.739001 410.413675 255.466310 410.677607 255.192863 410.941538 254.918665 411.205470 254.643715 411.469402 254.368016 411.733333 254.091569 411.997265 253.814376 412.261197 253.536438 412.525128 253.257758 412.789060 252.978336 413.052991 252.698175 413.316923 252.417275 413.580855 252.135640 413.844786 251.853269 414.108718 251.570165 414.372650 251.286330 414.636581 251.001764 414.900513 250.716471 415.164444 250.430451 415.428376 250.143705 415.692308 249.856236 415.956239 249.568046 416.220171 249.279135 416.484103 248.989505 416.748034 248.699159 417.011966 248.408097 417.275897 248.116321 417.539829 247.823834 417.803761 247.530635 418.067692 247.236728 418.331624 246.942114 418.595556 246.646794 418.859487 246.350770 419.123419 246.054044 419.387350 245.756617 419.651282 245.458490 419.915214 245.159667 420.179145 244.860147 420.443077 244.559933 420.707009 244.259026 420.970940 243.957428 421.234872 243.655141 421.498803 243.352166 421.762735 243.048505 422.026667 242.744159 422.290598 242.439131 422.554530 242.133421 422.818462 241.827031 423.082393 241.519963 423.346325 241.212219 423.610256 240.903800 423.874188 240.594707 424.138120 240.284944 424.402051 239.974510 424.665983 239.663407 424.929915 239.351638 425.193846 239.039204 425.457778 238.726106 425.721709 238.412347 425.985641 238.097927 426.249573 237.782848 426.513504 237.467113 426.777436 237.150722 427.041368 236.833677 427.305299 236.515980 427.569231 236.197633 427.833162 235.878637 428.097094 235.558993 428.361026 235.238704 428.624957 234.917770 428.888889 234.596195 429.152821 234.273978 429.416752 233.951122 429.680684 233.627629 429.944615 233.303499 430.208547 232.978736 430.472479 232.653339 430.736410 232.327312 431.000342 232.000655 431.264274 231.673370 431.528205 231.345459 431.792137 231.016923 432.056068 230.687764 432.320000 230.357984 432.583932 230.027584 432.847863 229.696566 433.111795 229.364931 433.375726 229.032682 433.639658 228.699819 433.903590 228.366345 434.167521 228.032261 434.431453 227.697568 434.695385 227.362268 434.959316 227.026363 435.223248 226.689855 435.487179 226.352745 435.751111 226.015034 436.015043 225.676725 436.278974 225.337819 436.542906 224.998317 436.806838 224.658221 437.070769 224.317533 437.334701 223.976255 437.598632 223.634387 437.862564 223.291933 438.126496 222.948892 438.390427 222.605267 438.654359 222.261060 438.918291 221.916272 439.182222 221.570905 439.446154 221.224960 439.710085 220.878439 439.974017 220.531344 440.237949 220.183676 440.501880 219.835437 440.765812 219.486628 441.029744 219.137251 441.293675 218.787309 441.557607 218.436801 441.821538 218.085730 442.085470 217.734098 442.349402 217.381906 442.613333 217.029156 442.877265 216.675850 443.141197 216.321988 443.405128 215.967573 443.669060 215.612607 443.932991 215.257090 444.196923 214.901025 444.460855 214.544413 444.724786 214.187256 444.988718 213.829555 445.252650 213.471312 445.516581 213.112529 445.780513 212.753207 446.044444 212.393348 446.308376 212.032953 446.572308 211.672025 446.836239 211.310564 447.100171 210.948573 447.364103 210.586052 447.628034 210.223005 447.891966 209.859431 448.155897 209.495333 448.419829 209.130713 448.683761 208.765572 448.947692 208.399912 449.211624 208.033733 449.475556 207.667039 449.739487 207.299831 450.003419 206.932109 450.267350 206.563876 450.531282 206.195134 450.795214 205.825884 451.059145 205.456128 451.323077 205.085866 451.587009 204.715102 451.850940 204.343836 452.114872 203.972070 452.378803 203.599806 452.642735 203.227046 452.906667 202.853790 453.170598 202.480041 453.434530 202.105801 453.698462 201.731070 453.962393 201.355851 454.226325 200.980145 454.490256 200.603953 454.754188 200.227278 455.018120 199.850121 455.282051 199.472483 455.545983 199.094367 455.809915 198.715773 456.073846 198.336704 456.337778 197.957161 456.601709 197.577146 456.865641 197.196660 457.129573 196.815705 457.393504 196.434282 457.657436 196.052394 457.921368 195.670041 458.185299 195.287226 458.449231 194.903950 458.713162 194.520214 458.977094 194.136021 459.241026 193.751372 459.504957 193.366268 459.768889 192.980711 460.032821 192.594703 460.296752 192.208245 460.560684 191.821340 460.824615 191.433988 461.088547 191.046191 461.352479 190.657951 461.616410 190.269270 461.880342 189.880149 462.144274 189.490589 462.408205 189.100593 462.672137 188.710161 462.936068 188.319297 463.200000 187.928000 463.463932 187.536273 463.727863 187.144118 463.991795 186.751536 464.255726 186.358528 464.519658 185.965097 464.783590 185.571244 465.047521 185.176970 465.311453 184.782277 465.575385 184.387167 465.839316 183.991642 466.103248 183.595702 466.367179 183.199350 466.631111 182.802588 466.895043 182.405416 467.158974 182.007837 467.422906 181.609852 467.686838 181.211463 467.950769 180.812671 468.214701 180.413478 468.478632 180.013885 468.742564 179.613895 469.006496 179.213509 469.270427 178.812728 469.534359 178.411554 469.798291 178.009989 470.062222 177.608034 470.326154 177.205691 470.590085 176.802962 470.854017 176.399848 471.117949 175.996351 471.381880 175.592472 471.645812 175.188213 471.909744 174.783576 472.173675 174.378562 472.437607 173.973173 472.701538 173.567411 472.965470 173.161277 473.229402 172.754772 473.493333 172.347899 473.757265 171.940659 474.021197 171.533054 474.285128 171.125089 474.549060 170.716769 474.812991 170.308100 475.076923 169.899086 475.340855 169.489733 475.604786 169.080046 475.868718 168.670030 476.132650 168.259692 476.396581 167.849035 476.660513 167.438065 476.924444 167.026788 477.188376 166.615208 477.452308 166.203331 477.716239 165.791162 477.980171 165.378707 478.244103 164.965971 478.508034 164.552958 478.771966 164.139674 479.035897 163.726125 479.299829 163.312316 479.563761 162.898251 479.827692 162.483937 480.091624 162.069378 480.355556 161.654580 480.619487 161.239547 480.883419 160.824286 481.147350 160.408801 481.411282 159.993098 481.675214 159.577182 481.939145 159.161058 482.203077 158.744732 482.467009 158.328208 482.730940 157.911492 482.994872 157.494589 483.258803 157.077505 483.522735 156.660244 483.786667 156.242812 484.050598 155.825215 484.314530 155.407457 484.578462 154.989544 484.842393 154.571480 485.106325 154.153272 485.370256 153.734924 485.634188 153.316442 485.898120 152.897831 486.162051 152.479097 486.425983 152.060243 486.689915 151.641277 486.953846 151.222202 487.217778 150.803024 487.481709 150.383749 487.745641 149.964382 488.009573 149.544928 488.273504 149.125392 488.537436 148.705779 488.801368 148.286095 489.065299 147.866345 489.329231 147.446535 489.593162 147.026669 489.857094 146.606752 490.121026 146.186791 490.384957 145.766789 490.648889 145.346754 490.912821 144.926689 491.176752 144.506600 491.440684 144.086492 491.704615 143.666371 491.968547 143.246241 492.232479 142.826109 492.496410 142.405979 492.760342 141.985856 493.024274 141.565746 493.288205 141.145654 493.552137 140.725585 493.816068 140.305545 494.080000 139.885539 494.343932 139.465571 494.607863 139.045648 494.871795 138.625774 495.135726 138.205956 495.399658 137.786197 495.663590 137.366503 495.927521 136.946880 496.191453 136.527333 496.455385 136.107867 496.719316 135.688487 496.983248 135.269198 497.247179 134.850007 497.511111 134.430917 497.775043 134.011935 498.038974 133.593065 498.302906 133.174313 498.566838 132.755685 498.830769 132.337184 499.094701 131.918817 499.358632 131.500589 499.622564 131.082504 499.886496 130.664570 500.150427 130.246789 500.414359 129.829169 500.678291 129.411713 500.942222 128.994428 501.206154 128.577319 501.470085 128.160390 501.734017 127.743647 501.997949 127.327096 502.261880 126.910741 502.525812 126.494588 502.789744 126.078642 503.053675 125.662908 503.317607 125.247392 503.581538 124.832099 503.845470 124.417034 504.109402 124.002202 504.373333 123.587609 504.637265 123.173260 504.901197 122.759160 505.165128 122.345314 505.429060 121.931727 505.692991 121.518406 505.956923 121.105355 506.220855 120.692579 506.484786 120.280083 506.748718 119.867874 507.012650 119.455955 507.276581 119.044333 507.540513 118.633012 507.804444 118.221999 508.068376 117.811297 508.332308 117.400913 508.596239 116.990852 508.860171 116.581118 509.124103 116.171717 509.388034 115.762655 509.651966 115.353937 509.915897 114.945567 510.179829 114.537551 510.443761 114.129895 510.707692 113.722604 510.971624 113.315682 511.235556 112.909135 511.499487 112.502969 511.763419 112.097189 512.027350 111.691799 512.291282 111.286805 512.555214 110.882213 512.819145 110.478028 513.083077 110.074254 513.347009 109.670898 513.610940 109.267964 513.874872 108.865457 514.138803 108.463384 514.402735 108.061749 514.666667 107.660557 514.930598 107.259813 515.194530 106.859524 515.458462 106.459694 515.722393 106.060328 515.986325 105.661432 516.250256 105.263011 516.514188 104.865070 516.778120 104.467614 517.042051 104.070649 517.305983 103.674180 517.569915 103.278212 517.833846 102.882751 518.097778 102.487801 518.361709 102.093369 518.625641 101.699458 518.889573 101.306075 519.153504 100.913224 519.417436 100.520912 519.681368 100.129142 519.945299 99.737922 520.209231 99.347254 520.473162 98.957146 520.737094 98.567602 521.001026 98.178627 521.264957 97.790228 521.528889 97.402408 521.792821 97.015173 522.056752 96.628529 522.320684 96.242480 522.584615 95.857032 522.848547 95.472191 523.112479 95.087961 523.376410 94.704348 523.640342 94.321356 523.904274 93.938992 524.168205 93.557261 524.432137 93.176167 524.696068 92.795716 524.960000 92.415913 525.223932 92.036764 525.487863 91.658274 525.751795 91.280447 526.015726 90.903290 526.279658 90.526807 526.543590 90.151004 526.807521 89.775886 527.071453 89.401459 527.335385 89.027726 527.599316 88.654695 527.863248 88.282369 528.127179 87.910755 528.391111 87.539857 528.655043 87.169681 528.918974 86.800232 529.182906 86.431516 529.446838 86.063536 529.710769 85.696300 529.974701 85.329811 530.238632 84.964076 530.502564 84.599099 530.766496 84.234886 531.030427 83.871443 531.294359 83.508773 531.558291 83.146883 531.822222 82.785777 532.086154 82.425462 532.350085 82.065942 532.614017 81.707223 532.877949 81.349309 533.141880 80.992206 533.405812 80.635920 533.669744 80.280455 533.933675 79.925817 534.197607 79.572011 534.461538 79.219042 534.725470 78.866916 534.989402 78.515637 535.253333 78.165212 535.517265 77.815645 535.781197 77.466941 536.045128 77.119107 536.309060 76.772146 536.572991 76.426065 536.836923 76.080868 537.100855 75.736561 537.364786 75.393149 537.628718 75.050637 537.892650 74.709031 538.156581 74.368336 538.420513 74.028557 538.684444 73.689699 538.948376 73.351768 539.212308 73.014769 539.476239 72.678706 539.740171 72.343586 540.004103 72.009412 540.268034 71.676182 540.531966 71.343892 540.795897 71.012538 541.059829 70.682116 541.323761 70.352624 541.587692 70.024056 541.851624 69.696409 542.115556 69.369679 542.379487 69.043862 542.643419 68.718956 542.907350 68.394955 543.171282 68.071857 543.435214 67.749656 543.699145 67.428350 543.963077 67.107935 544.227009 66.788407 544.490940 66.469762 544.754872 66.151997 545.018803 65.835107 545.282735 65.519088 545.546667 65.203938 545.810598 64.889652 546.074530 64.576226 546.338462 64.263657 546.602393 63.951941 546.866325 63.641073 547.130256 63.331051 547.394188 63.021871 547.658120 62.713528 547.922051 62.406019 548.185983 62.099340 548.449915 61.793487 548.713846 61.488457 548.977778 61.184246 549.241709 60.880849 549.505641 60.578264 549.769573 60.276486 550.033504 59.975511 550.297436 59.675337 550.561368 59.375958 550.825299 59.077371 551.089231 58.779573 551.353162 58.482559 551.617094 58.186327 551.881026 57.890871 552.144957 57.596188 552.408889 57.302275 552.672821 57.009128 552.936752 56.716742 553.200684 56.425114 553.464615 56.134241 553.728547 55.844118 553.992479 55.554742 554.256410 55.266109 554.520342 54.978215 554.784274 54.691056 555.048205 54.404629 555.312137 54.118929 555.576068 53.833954 555.840000 53.549698 556.103932 53.266159 556.367863 52.983333 556.631795 52.701215 556.895726 52.419803 557.159658 52.139091 557.423590 51.859077 557.687521 51.579757 557.951453 51.301126 558.215385 51.023182 558.479316 50.745920 558.743248 50.469336 559.007179 50.193427 559.271111 49.918188 559.535043 49.643617 559.798974 49.369710 560.062906 49.096461 560.326838 48.823869 560.590769 48.551928 560.854701 48.280636 561.118632 48.009987 561.382564 47.739980 561.646496 47.470609 561.910427 47.201871 562.174359 46.933763 562.438291 46.666279 562.702222 46.399418 562.966154 46.133174 563.230085 45.867544 563.494017 45.602525 563.757949 45.338112 564.021880 45.074301 564.285812 44.811090 564.549744 44.548474 564.813675 44.286448 565.077607 44.025011 565.341538 43.764157 565.605470 43.503883 565.869402 43.244185 566.133333 42.985059 566.397265 42.726502 566.661197 42.468510 566.925128 42.211079 567.189060 41.954205 567.452991 41.697884 567.716923 41.442113 567.980855 41.186888 568.244786 40.932204 568.508718 40.678059 568.772650 40.424449 569.036581 40.171369 569.300513 39.918816 569.564444 39.666785 569.828376 39.415275 570.092308 39.164279 570.356239 38.913796 570.620171 38.663820 570.884103 38.414348 571.148034 38.165377 571.411966 37.916902 571.675897 37.668920 571.939829 37.421427 572.203761 37.174420 572.467692 36.927893 572.731624 36.681844 572.995556 36.436269 573.259487 36.191164 573.523419 35.946525 573.787350 35.702348 574.051282 35.458631 574.315214 35.215367 574.579145 34.972555 574.843077 34.730191 575.107009 34.488269 575.370940 34.246788 575.634872 34.005742 575.898803 33.765129 576.162735 33.524943 576.426667 33.285182 576.690598 33.045842 576.954530 32.806919 577.218462 32.568409 577.482393 32.330309 577.746325 32.092614 578.010256 31.855320 578.274188 31.618425 578.538120 31.381924 578.802051 31.145813 579.065983 30.910089 579.329915 30.674748 579.593846 30.439786 579.857778 30.205199 580.121709 29.970983 580.385641 29.737135 580.649573 29.503651 580.913504 29.270527 581.177436 29.037760 581.441368 28.805345 581.705299 28.573278 581.969231 28.341557 582.233162 28.110176 582.497094 27.879133 582.761026 27.648424 583.024957 27.418044 583.288889 27.187990 583.552821 26.958259 583.816752 26.728845 584.080684 26.499747 584.344615 26.270959 584.608547 26.042478 584.872479 25.814301 585.136410 25.586423 585.400342 25.358840 585.664274 25.131549 585.928205 24.904547 586.192137 24.677829 586.456068 24.451391 586.720000 24.225230 586.983932 23.999341 587.247863 23.773722 587.511795 23.548369 587.775726 23.323276 588.039658 23.098442 588.303590 22.873861 588.567521 22.649531 588.831453 22.425447 589.095385 22.201606 589.359316 21.978003 589.623248 21.754635 589.887179 21.531499 590.151111 21.308590 590.415043 21.085904 590.678974 20.863439 590.942906 20.641189 591.206838 20.419152 591.470769 20.197323 591.734701 19.975699 591.998632 19.754276 592.262564 19.533050 592.526496 19.312017 592.790427 19.091174 593.054359 18.870516 593.318291 18.650041 593.582222 18.429743 593.846154 18.209620 594.110085 17.989668 594.374017 17.769882 594.637949 17.550259 594.901880 17.330795 595.165812 17.111487 595.429744 16.892331 595.693675 16.673322 595.957607 16.454457 596.221538 16.235733 596.485470 16.017145 596.749402 15.798689 597.013333 15.580363 597.277265 15.362161 597.541197 15.144081 597.805128 14.926119 598.069060 14.708270 598.332991 14.490531 598.596923 14.272898 598.860855 14.055367 599.124786 13.837935 599.388718 13.620598 599.652650 13.403352 599.916581 13.186193 600.180513 12.969117 600.444444 12.752121 600.708376 12.535200 600.972308 12.318352 601.236239 12.101572 601.500171 11.884857 601.764103 11.668202 602.028034 11.451603 602.291966 11.235058 602.555897 11.018563 602.819829 10.802112 603.083761 10.585704 603.347692 10.369333 603.611624 10.152996 603.875556 9.936690 604.139487 9.720410 604.403419 9.504153 604.667350 9.287915 604.931282 9.071692 605.195214 8.855481 605.459145 8.639277 605.723077 8.423077" class="line reactive nofill"/></g></g><g class="titles"><text x="400.0" y="26" class="title plot_title">COVID-19 | Mato Grosso do Sul</text><text x="400.0" y="52" class="title plot_title"> Fonte: jhoonb.github.io/corona</text></g><g transform="translate(162, 72)" class="plot overlay"><g class="series serie-0 color-0"><g class="dots"><circle cx="11.876923076923077" cy="429.10921934406656" r="2.5" class="dot reactive tooltip-trigger"/><desc class="value">0</desc><desc class="x top">11.876923076923077</desc><desc class="y top">429.10921934406656</desc><desc class="x_label">28-02-2020</desc></g><g class="dots"><circle cx="77.85982905982904" cy="429.10921934406656" r="2.5" class="dot reactive tooltip-trigger"/><desc class="value">0</desc><desc class="x top">77.85982905982904</desc><desc class="y top">429.10921934406656</desc><desc class="x_label">10-03-2020</desc></g><g class="dots"><circle cx="143.84273504273503" cy="420.19007851535304" r="2.5" class="dot reactive tooltip-trigger"/><desc class="value">6</desc><desc class="x top">143.84273504273503</desc><desc class="y top">420.19007851535304</desc><desc class="x_label">17-03-2020</desc></g><g class="dots"><circle cx="209.82564102564103" cy="393.43265602921235" r="2.5" class="dot reactive tooltip-trigger"/><desc class="value">24</desc><desc class="x top">209.82564102564103</desc><desc class="y top">393.43265602921235</desc><desc class="x_label">24-03-2020</desc></g><g class="dots"><circle cx="275.808547008547" cy="357.7560927143581" r="2.5" class="dot reactive tooltip-trigger"/><desc class="value">48</desc><desc class="x top">275.808547008547</desc><desc class="y top">357.7560927143581</desc><desc class="x_label">31-03-2020</desc></g><g class="dots"><circle cx="341.791452991453" cy="310.18734162788576" r="2.5" class="dot reactive tooltip-trigger"/><desc class="value">80</desc><desc class="x left top">341.791452991453</desc><desc class="y left top">310.18734162788576</desc><desc class="x_label">07-04-2020</desc></g><g class="dots"><circle cx="407.77435897435896" cy="258.15902012705664" r="2.5" class="dot reactive tooltip-trigger"/><desc class="value">115</desc><desc class="x left top">407.77435897435896</desc><desc class="y left top">258.15902012705664</desc><desc class="x_label">14-04-2020</desc></g><g class="dots"><circle cx="473.75726495726497" cy="171.94065878282555" r="2.5" class="dot reactive tooltip-trigger"/><desc class="value">173</desc><desc class="x left">473.75726495726497</desc><desc class="y left">171.94065878282555</desc><desc class="x_label">21-04-2020</desc></g><g class="dots"><circle cx="539.7401709401709" cy="72.3435861955241" r="2.5" class="dot reactive tooltip-trigger"/><desc class="value">240</desc><desc class="x left">539.7401709401709</desc><desc class="y left">72.3435861955241</desc><desc class="x_label">28-04-2020</desc></g><g class="dots"><circle cx="605.7230769230769" cy="8.423076923076906" r="2.5" class="dot reactive tooltip-trigger"/><desc class="value">283</desc><desc class="x left">605.7230769230769</desc><desc class="y left">8.423076923076906</desc><desc class="x_label">05-05-2020</desc></g></g></g><g transform="translate(162, 72)" class="plot text-overlay"><g class="series serie-0 color-0"><text text-anchor="left" x="27.876923076923077" y="450.4425526773999" class="value">0</text><text text-anchor="left" x="93.85982905982904" y="450.4425526773999" class="value">0</text><text text-anchor="left" x="159.84273504273503" y="441.52341184868635" class="value">6</text><text text-anchor="left" x="225.82564102564103" y="414.76598936254567" class="value">24</text><text text-anchor="left" x="291.808547008547" y="379.0894260476914" class="value">48</text><text text-anchor="left" x="357.791452991453" y="331.5206749612191" class="value">80</text><text text-anchor="left" x="423.77435897435896" y="279.49235346038995" class="value">115</text><text text-anchor="left" x="489.75726495726497" y="193.2739921161589" class="value">173</text><text text-anchor="left" x="555.7401709401709" y="93.67691952885743" class="value">240</text><text text-anchor="left" x="621.7230769230769" y="29.756410256410238" class="value">283</text></g></g><g transform="translate(162, 72)" class="plot tooltip-overlay"><g transform="translate(0 0)" style="opacity: 0" class="tooltip"><rect rx="0" ry="0" width="0" height="0" class="tooltip-box"/><g class="text"/></g></g><g transform="translate(10, 82)" class="legends"><g id="activate-serie-0" class="legend reactive activate-serie"><rect x="0.0" y="1.0" width="12" height="12" class="color-0 reactive"/><text x="17.0" y="11.2">Confirmados</text></g></g><g transform="translate(790, 82)" class="legends"/></g></svg>